<?xml version="1.0" encoding="UTF-8" standalone="no"?><!DOCTYPE svg PUBLIC "-//W3C//DTD SVG 1.1//EN" "http://www.w3.org/Graphics/SVG/1.1/DTD/svg11.dtd"><svg width="100%" height="100%" viewBox="0 0 78 78" version="1.1" xmlns="http://www.w3.org/2000/svg" xmlns:xlink="http://www.w3.org/1999/xlink" xml:space="preserve" xmlns:serif="http://www.serif.com/" style="fill-rule:evenodd;clip-rule:evenodd;stroke-linejoin:round;stroke-miterlimit:1.41421;"><g id="industry-icon"><ellipse cx="38.954" cy="38.94" rx="38.893" ry="38.893" style="fill:#6b2a7d;"/><path d="M50.692,27.872l0,7.955l-10.507,-7.966l0,7.278l-10.627,-7.241l0,26.776l11.312,0c-0.032,-0.197 -0.043,-0.395 -0.039,-0.595l-10.68,0l0,-25.058l10.629,7.241l0,-7.203l10.507,7.962l0,-7.973l11.803,8.682l0,16.349l-16.52,0c0.004,0.2 -0.008,0.398 -0.039,0.595l17.152,0l0,-17.242l-12.991,-9.56Z" style="fill:#fff;fill-rule:nonzero;"/><path d="M50.765,28.017l0,7.956l-10.508,-7.965l0,7.268l-10.625,-7.238l0,26.562l11.235,0c-0.014,-0.113 -0.037,-0.225 -0.037,-0.343c0,-0.035 0.008,-0.069 0.01,-0.104l-10.763,0l0,-25.27l10.628,7.239l0,-7.212l10.508,7.963l0,-7.97l11.949,8.791l0,16.459l-16.355,0c0.001,0.035 0.011,0.069 0.011,0.104c0,0.118 -0.022,0.23 -0.036,0.343l16.827,0l0,-17.132l-12.844,-9.451Z" style="fill:#fff;fill-rule:nonzero;"/><path d="M50.468,27.43l0,7.944l-10.508,-7.964l0,7.305l-10.626,-7.239l0,27.421l13.71,0.054c0.015,-0.181 -0.053,-0.489 -0.092,-0.667c-0.093,-0.41 -1.261,-0.465 -1.713,-0.428l-10.864,0l0,-24.411l10.629,7.239l0,-7.177l10.506,7.965l0,-7.983l11.355,8.355l0,16.012l-18.429,0.018c0.154,0.334 0.13,0.668 0.205,1.058l19.266,-0.035l0,-17.579l-13.439,-9.888Z" style="fill:#fff;fill-rule:nonzero;"/><path d="M19.654,53.333c0,0 -4.018,-1.733 -4.189,-1.941c0,0 -1.211,-0.9 -1.283,-1.524c0,0 -0.38,-0.934 -0.451,-1.386c0,0 -0.171,-3.056 -0.183,-3.08c-0.012,-0.025 3.251,1.697 3.406,1.748c0,0 0.899,0.467 0.984,0.554c0,0 0.694,0.538 0.885,1.022c0,0 0.554,1.265 0.622,1.734c0.07,0.466 0.33,2.402 0.209,2.873" style="fill:#fff;fill-rule:nonzero;"/><path d="M13.88,45.902c0.03,0.441 0.071,1.208 0.147,2.564c0.052,0.313 0.33,1.039 0.43,1.29l0.021,0.079c0.037,0.34 0.702,0.978 1.162,1.319l0.052,0.047c0.174,0.13 1.972,0.943 3.698,1.694c-0.008,-0.594 -0.131,-1.674 -0.239,-2.392c-0.051,-0.352 -0.45,-1.316 -0.6,-1.658c-0.136,-0.342 -0.619,-0.769 -0.794,-0.906c-0.091,-0.07 -0.554,-0.323 -0.939,-0.525c-0.043,-0.01 -0.454,-0.218 -2.04,-1.044c-0.309,-0.163 -0.64,-0.334 -0.898,-0.468m5.974,7.841l-0.32,-0.138c-2.51,-1.083 -3.937,-1.748 -4.248,-1.976l0,0.002c-0.216,-0.161 -1.273,-0.977 -1.393,-1.685c-0.071,-0.178 -0.386,-0.983 -0.455,-1.417c-0.064,-1.11 -0.157,-2.725 -0.181,-3.038l-0.204,-0.382l0.491,-0.003c0.086,-0.001 0.084,-0.003 1.521,0.742c0.789,0.411 1.87,0.974 1.991,1.022c0.973,0.507 1.06,0.593 1.092,0.625c0.049,0.036 0.736,0.579 0.95,1.123c0.053,0.122 0.567,1.305 0.64,1.798c0.037,0.244 0.352,2.41 0.203,2.99l-0.087,0.337Z" style="fill:#fff;fill-rule:nonzero;"/><path d="M13.799,45.779c0.027,0.408 0.071,1.187 0.156,2.692c0.062,0.399 0.431,1.303 0.435,1.313l0.013,0.059c0.043,0.385 0.754,1.044 1.194,1.371l0.037,0.036c0.169,0.135 2.05,0.986 3.825,1.758c0.011,-0.577 -0.122,-1.751 -0.236,-2.516c-0.054,-0.359 -0.456,-1.332 -0.608,-1.677c-0.139,-0.354 -0.633,-0.794 -0.814,-0.932c-0.084,-0.069 -0.557,-0.328 -0.951,-0.533c-0.056,-0.014 -0.582,-0.285 -2.025,-1.038c-0.377,-0.196 -0.761,-0.397 -1.026,-0.533m6.006,7.863l-0.242,-0.103c-1.766,-0.763 -3.887,-1.703 -4.233,-1.968l0,0.001c-0.131,-0.096 -1.255,-0.95 -1.366,-1.646c-0.064,-0.161 -0.387,-0.977 -0.452,-1.408c-0.066,-1.12 -0.162,-2.761 -0.184,-3.045l-0.164,-0.29l0.381,-0.003c0.074,-0.002 0.074,0.001 1.501,0.743c0.789,0.41 1.871,0.972 1.984,1.017c0.644,0.333 0.994,0.532 1.068,0.606c0.009,0.005 0.722,0.563 0.932,1.098c0.055,0.125 0.564,1.298 0.635,1.782c0.004,0.024 0.355,2.38 0.204,2.963l-0.064,0.253Z" style="fill:#fff;fill-rule:nonzero;"/><path d="M14.129,46.283c0.026,0.464 0.066,1.15 0.123,2.172c0.037,0.224 0.245,0.798 0.411,1.211l0.029,0.101c0.032,0.252 0.544,0.807 1.082,1.207l0.063,0.058c0.127,0.086 1.423,0.689 3.313,1.515c-0.035,-0.584 -0.128,-1.398 -0.219,-2.011c-0.04,-0.274 -0.366,-1.102 -0.585,-1.604c-0.1,-0.253 -0.49,-0.634 -0.727,-0.817c-0.065,-0.05 -0.42,-0.251 -0.888,-0.494c-0.11,-0.045 -0.435,-0.211 -2.04,-1.047l-0.562,-0.291Zm5.875,7.768l-0.558,-0.24c-3.846,-1.662 -4.184,-1.92 -4.296,-2.004c-0.218,-0.161 -1.319,-1.009 -1.471,-1.798c-0.151,-0.381 -0.399,-1.046 -0.458,-1.447l-0.011,-0.127c-0.06,-1.044 -0.143,-2.474 -0.171,-2.874l-0.383,-0.673l0.888,-0.006l0.004,0c0.144,0 0.153,0.005 1.492,0.701l0.145,0.077c0.688,0.356 1.837,0.952 1.957,1.002c0.933,0.482 1.094,0.601 1.165,0.673c0.186,0.149 0.79,0.66 1.002,1.199c0.174,0.397 0.584,1.382 0.653,1.849c0.109,0.752 0.342,2.523 0.199,3.08l-0.157,0.588Z" style="fill:#fff;fill-rule:nonzero;"/><path d="M20.267,53.333c0,0 4.017,-1.733 4.188,-1.941c0,0 1.212,-0.9 1.284,-1.524c0,0 0.379,-0.934 0.45,-1.386c0,0 0.173,-3.056 0.183,-3.08c0.012,-0.025 -3.248,1.697 -3.404,1.748c0,0 -0.902,0.467 -0.986,0.554c0,0 -0.693,0.538 -0.884,1.022c0,0 -0.554,1.265 -0.623,1.734c-0.071,0.466 -0.329,2.402 -0.208,2.873" style="fill:#fff;fill-rule:nonzero;"/><path d="M26.041,45.902c-0.26,0.134 -0.593,0.311 -0.907,0.472c-1.579,0.822 -1.986,1.029 -2.073,1.057c-0.343,0.184 -0.807,0.436 -0.885,0.495c-0.187,0.149 -0.671,0.576 -0.802,0.909c-0.154,0.351 -0.554,1.315 -0.604,1.667c-0.096,0.625 -0.232,1.769 -0.239,2.393c1.725,-0.751 3.527,-1.567 3.722,-1.72c0.486,-0.363 1.152,-1 1.191,-1.34l0.021,-0.079c0.101,-0.252 0.377,-0.979 0.432,-1.319c0.075,-1.342 0.118,-2.099 0.144,-2.535m-5.975,7.841l-0.088,-0.337c-0.155,-0.608 0.201,-2.968 0.205,-2.992c0.071,-0.491 0.585,-1.674 0.643,-1.809c0.209,-0.531 0.895,-1.076 0.973,-1.135c0.004,-0.009 0.091,-0.094 1.032,-0.585c0.156,-0.062 1.246,-0.629 2.041,-1.045c1.413,-0.733 1.413,-0.733 1.5,-0.733l0.457,0l-0.165,0.371c-0.022,0.288 -0.114,1.926 -0.178,3.024c-0.072,0.459 -0.387,1.267 -0.459,1.444c-0.119,0.708 -1.178,1.524 -1.394,1.685l0,-0.001c-0.31,0.228 -1.737,0.892 -4.248,1.976l-0.319,0.137Z" style="fill:#fff;fill-rule:nonzero;"/><path d="M26.122,45.778c-0.273,0.141 -0.671,0.349 -1.039,0.541c-1.435,0.746 -1.958,1.015 -2.044,1.044c-0.364,0.191 -0.835,0.45 -0.906,0.506c-0.194,0.152 -0.691,0.591 -0.827,0.938c-0.154,0.353 -0.556,1.325 -0.609,1.684c-0.114,0.765 -0.246,1.939 -0.237,2.515c1.775,-0.77 3.656,-1.622 3.841,-1.771c0.461,-0.348 1.173,-1.007 1.217,-1.392l0.013,-0.06c0.004,-0.009 0.371,-0.914 0.438,-1.333c0.084,-1.498 0.128,-2.27 0.153,-2.672m-6.007,7.864l-0.063,-0.254c-0.154,-0.588 0.2,-2.939 0.204,-2.963c0.069,-0.484 0.579,-1.657 0.637,-1.79c0.207,-0.526 0.919,-1.086 0.952,-1.109c0.051,-0.054 0.404,-0.254 1.021,-0.574c0.14,-0.057 1.229,-0.624 2.025,-1.038c1.412,-0.736 1.412,-0.736 1.482,-0.736l0.341,0l-0.121,0.282c-0.02,0.249 -0.116,1.919 -0.18,3.037c-0.07,0.451 -0.392,1.268 -0.458,1.428c-0.109,0.696 -1.235,1.551 -1.365,1.647l-0.002,-0.001c-0.347,0.265 -2.467,1.205 -4.233,1.967l-0.24,0.104Z" style="fill:#fff;fill-rule:nonzero;"/><path d="M25.794,46.283l-0.574,0.299c-1.717,0.893 -1.988,1.029 -2.085,1.062c-0.404,0.214 -0.764,0.418 -0.821,0.459c-0.231,0.18 -0.634,0.563 -0.732,0.812c-0.21,0.478 -0.549,1.331 -0.591,1.618c-0.093,0.613 -0.186,1.427 -0.221,2.014c1.923,-0.84 3.199,-1.438 3.346,-1.547c0.628,-0.471 1.084,-1.004 1.106,-1.191l0.021,-0.098c0.069,-0.174 0.377,-0.965 0.433,-1.309c0.054,-0.988 0.092,-1.663 0.118,-2.119m-5.879,7.77l-0.151,-0.59c-0.153,-0.592 0.111,-2.506 0.196,-3.078c0.076,-0.517 0.563,-1.646 0.661,-1.869c0.218,-0.557 0.902,-1.116 1.037,-1.223c0.014,-0.018 0.089,-0.096 1.071,-0.606c0.155,-0.064 1.371,-0.697 2.024,-1.037c1.477,-0.768 1.477,-0.768 1.619,-0.768l0.793,0l-0.281,0.65c-0.026,0.367 -0.115,1.921 -0.174,2.98c-0.076,0.493 -0.381,1.278 -0.467,1.497c-0.153,0.788 -1.254,1.638 -1.475,1.802l-0.207,0.153l-0.016,-0.017c-0.555,0.31 -1.92,0.936 -4.071,1.864l-0.559,0.242Z" style="fill:#fff;fill-rule:nonzero;"/><path d="M19.654,45.921c0,0 -4.018,-1.731 -4.189,-1.941c0,0 -1.211,-0.899 -1.283,-1.523c0,0 -0.38,-0.934 -0.451,-1.385c0,0 -0.171,-3.058 -0.183,-3.081c-0.012,-0.023 3.251,1.699 3.406,1.747c0,0 0.899,0.47 0.984,0.554c0,0 0.694,0.54 0.885,1.023c0,0 0.554,1.262 0.622,1.734c0.07,0.465 0.33,2.402 0.209,2.872" style="fill:#fff;fill-rule:nonzero;"/><path d="M13.88,38.492c0.03,0.441 0.071,1.209 0.147,2.562c0.052,0.313 0.33,1.041 0.43,1.292l0.021,0.078c0.037,0.342 0.702,0.976 1.162,1.318l0.053,0.049c0.175,0.131 1.973,0.945 3.697,1.692c-0.008,-0.592 -0.131,-1.673 -0.239,-2.391c-0.051,-0.354 -0.45,-1.317 -0.6,-1.658c-0.136,-0.342 -0.632,-0.78 -0.794,-0.907c-0.087,-0.067 -0.552,-0.322 -0.94,-0.524c-0.044,-0.011 -0.467,-0.226 -2.107,-1.078c-0.296,-0.155 -0.594,-0.311 -0.83,-0.433m5.974,7.839l-0.32,-0.138c-3.415,-1.471 -4.086,-1.851 -4.248,-1.974c-0.216,-0.161 -1.273,-0.977 -1.393,-1.685c-0.071,-0.177 -0.386,-0.982 -0.455,-1.417c-0.064,-1.107 -0.157,-2.721 -0.181,-3.037l-0.211,-0.383l0.499,-0.003c0.111,-0.001 0.092,0 1.452,0.709c0.77,0.401 1.934,1.007 2.06,1.058c0.971,0.506 1.059,0.591 1.089,0.618c0.051,0.038 0.74,0.583 0.953,1.126c0.054,0.122 0.566,1.304 0.639,1.8c0.015,0.096 0.356,2.398 0.204,2.991l-0.088,0.335Z" style="fill:#fff;fill-rule:nonzero;"/><path d="M13.799,38.368c0.027,0.409 0.071,1.188 0.156,2.691c0.062,0.397 0.431,1.304 0.435,1.313l0.013,0.059c0.043,0.384 0.754,1.044 1.194,1.369l0.038,0.038c0.17,0.135 2.049,0.987 3.824,1.757c0.011,-0.576 -0.12,-1.749 -0.236,-2.513c-0.054,-0.363 -0.456,-1.336 -0.608,-1.678c-0.14,-0.358 -0.634,-0.796 -0.814,-0.935c-0.081,-0.065 -0.554,-0.324 -0.952,-0.531c-0.056,-0.015 -0.603,-0.297 -2.094,-1.073c-0.349,-0.184 -0.706,-0.368 -0.956,-0.497m6.006,7.862l-0.242,-0.103c-1.762,-0.762 -3.881,-1.699 -4.233,-1.968l0,0.001c-0.131,-0.097 -1.255,-0.95 -1.366,-1.646c-0.064,-0.16 -0.387,-0.976 -0.452,-1.408c-0.066,-1.119 -0.161,-2.759 -0.184,-3.044l-0.168,-0.292l0.384,-0.002c0.053,-0.004 0.061,-0.005 1.429,0.704c0.82,0.427 1.939,1.01 2.055,1.055c0.645,0.333 0.994,0.532 1.067,0.603c0.012,0.008 0.725,0.567 0.935,1.101c0.019,0.044 0.562,1.288 0.635,1.784c0.003,0.023 0.355,2.379 0.203,2.962l-0.063,0.253Z" style="fill:#fff;fill-rule:nonzero;"/><path d="M14.129,38.873c0.027,0.464 0.067,1.15 0.123,2.17c0.037,0.225 0.245,0.798 0.411,1.212l0.029,0.1c0.032,0.253 0.544,0.808 1.082,1.206l0.067,0.062c0.125,0.084 1.421,0.688 3.309,1.513c-0.033,-0.584 -0.127,-1.397 -0.219,-2.011c-0.04,-0.278 -0.366,-1.105 -0.585,-1.603c-0.102,-0.257 -0.485,-0.632 -0.728,-0.82c-0.061,-0.048 -0.431,-0.255 -0.889,-0.493c-0.111,-0.044 -0.447,-0.215 -2.11,-1.082l-0.49,-0.254Zm5.875,7.768l-0.559,-0.243c-2.577,-1.11 -3.578,-1.595 -3.993,-1.818l-0.013,0.028l-0.287,-0.21c-0.31,-0.231 -1.326,-1.039 -1.473,-1.8c-0.106,-0.262 -0.393,-1.015 -0.458,-1.446c-0.065,-1.076 -0.152,-2.584 -0.182,-3l-0.39,-0.674l0.896,-0.005c0.138,-0.002 0.145,-0.002 1.569,0.738l0.124,0.064c0.71,0.37 1.786,0.929 1.903,0.978c0.998,0.515 1.108,0.612 1.16,0.662c0.171,0.137 0.791,0.656 1.008,1.208c0.174,0.401 0.584,1.383 0.653,1.849c0.109,0.754 0.342,2.523 0.199,3.08l-0.157,0.589Z" style="fill:#fff;fill-rule:nonzero;"/><path d="M20.267,45.921c0,0 4.017,-1.731 4.188,-1.941c0,0 1.212,-0.899 1.284,-1.523c0,0 0.379,-0.934 0.45,-1.385c0,0 0.173,-3.058 0.183,-3.081c0.012,-0.023 -3.248,1.699 -3.404,1.747c0,0 -0.902,0.47 -0.986,0.554c0,0 -0.693,0.54 -0.884,1.023c0,0 -0.554,1.262 -0.623,1.734c-0.071,0.465 -0.329,2.402 -0.208,2.872" style="fill:#fff;fill-rule:nonzero;"/><path d="M26.041,38.492c-0.237,0.123 -0.541,0.28 -0.837,0.435c-1.634,0.85 -2.054,1.064 -2.144,1.094c-0.344,0.184 -0.81,0.437 -0.886,0.494c-0.185,0.147 -0.669,0.576 -0.8,0.908c-0.154,0.351 -0.554,1.315 -0.604,1.667c-0.096,0.627 -0.233,1.77 -0.239,2.393c1.724,-0.748 3.525,-1.563 3.722,-1.718c0.486,-0.366 1.152,-1.001 1.191,-1.342l0.021,-0.077c0.101,-0.251 0.377,-0.98 0.432,-1.322c0.075,-1.339 0.118,-2.097 0.144,-2.532m-5.975,7.839l-0.088,-0.335c-0.155,-0.608 0.201,-2.969 0.205,-2.993c0.071,-0.494 0.585,-1.676 0.643,-1.809c0.209,-0.532 0.895,-1.076 0.972,-1.138c0.005,-0.006 0.095,-0.091 1.033,-0.581c0.16,-0.065 1.335,-0.677 2.11,-1.082c1.346,-0.7 1.346,-0.7 1.431,-0.7l0.463,0l-0.173,0.374c-0.02,0.292 -0.113,1.927 -0.176,3.022c-0.072,0.459 -0.387,1.268 -0.459,1.445c-0.119,0.708 -1.178,1.524 -1.394,1.685c-0.161,0.123 -0.834,0.503 -4.248,1.974l-0.319,0.138Z" style="fill:#fff;fill-rule:nonzero;"/><path d="M26.122,38.368c-0.251,0.13 -0.613,0.317 -0.969,0.502c-1.484,0.773 -2.026,1.052 -2.115,1.082c-0.364,0.193 -0.838,0.451 -0.907,0.505c-0.193,0.151 -0.689,0.59 -0.825,0.938c-0.155,0.351 -0.556,1.324 -0.61,1.685c-0.114,0.764 -0.246,1.938 -0.237,2.514c1.775,-0.769 3.655,-1.622 3.84,-1.772c0.463,-0.347 1.174,-1.006 1.217,-1.39l0.015,-0.06c0.004,-0.009 0.371,-0.916 0.436,-1.335c0.086,-1.496 0.13,-2.267 0.155,-2.669m-6.007,7.862l-0.063,-0.253c-0.154,-0.588 0.2,-2.939 0.204,-2.962c0.069,-0.487 0.58,-1.66 0.637,-1.792c0.207,-0.526 0.919,-1.085 0.952,-1.11c0.053,-0.054 0.404,-0.253 1.021,-0.572c0.144,-0.059 1.27,-0.646 2.095,-1.074c1.344,-0.701 1.344,-0.701 1.412,-0.701l0.345,0l-0.125,0.282c-0.02,0.253 -0.116,1.921 -0.18,3.037c-0.07,0.452 -0.392,1.269 -0.458,1.429c-0.109,0.696 -1.235,1.548 -1.365,1.646l-0.002,-0.001c-0.351,0.268 -2.468,1.206 -4.233,1.967l-0.24,0.104Z" style="fill:#fff;fill-rule:nonzero;"/><path d="M25.794,38.872l-0.503,0.263c-1.779,0.925 -2.059,1.065 -2.158,1.099c-0.429,0.23 -0.769,0.42 -0.824,0.46c-0.244,0.192 -0.634,0.572 -0.728,0.81c-0.225,0.513 -0.552,1.343 -0.592,1.617c-0.091,0.614 -0.186,1.428 -0.22,2.015c1.92,-0.838 3.195,-1.437 3.344,-1.545c0.63,-0.474 1.086,-1.007 1.107,-1.193l0.021,-0.099c0.071,-0.174 0.379,-0.965 0.433,-1.308c0.056,-0.989 0.094,-1.662 0.12,-2.119m-5.879,7.77l-0.151,-0.591c-0.161,-0.616 0.136,-2.674 0.197,-3.08c0.06,-0.417 0.387,-1.236 0.652,-1.846c0.226,-0.575 0.91,-1.136 1.045,-1.243c0.016,-0.019 0.096,-0.099 1.071,-0.605c0.15,-0.063 1.251,-0.634 1.978,-1.013l0.115,-0.06c1.41,-0.733 1.41,-0.733 1.55,-0.733l0.804,0l-0.292,0.651c-0.024,0.374 -0.113,1.924 -0.174,2.979c-0.074,0.482 -0.361,1.235 -0.467,1.497c-0.146,0.754 -1.162,1.567 -1.473,1.8l-0.207,0.155l-0.017,-0.018c-0.556,0.313 -1.921,0.937 -4.072,1.863l-0.559,0.244Z" style="fill:#fff;fill-rule:nonzero;"/><path d="M19.654,38.387c0,0 -4.018,-1.728 -4.189,-1.939c0,0 -1.211,-0.898 -1.283,-1.523c0,0 -0.38,-0.934 -0.451,-1.385c0,0 -0.171,-3.059 -0.183,-3.082c-0.012,-0.02 3.251,1.7 3.406,1.751c0,0 0.899,0.465 0.984,0.554c0,0 0.694,0.536 0.885,1.02c0,0 0.554,1.265 0.622,1.733c0.07,0.467 0.33,2.406 0.209,2.871" style="fill:#fff;fill-rule:nonzero;"/><path d="M13.88,30.96c0.03,0.44 0.071,1.208 0.147,2.563c0.052,0.312 0.33,1.04 0.43,1.29l0.021,0.08c0.037,0.341 0.702,0.975 1.162,1.316l0.053,0.052c0.176,0.131 1.973,0.943 3.697,1.689c-0.008,-0.592 -0.131,-1.673 -0.239,-2.39c-0.051,-0.353 -0.45,-1.317 -0.6,-1.658c-0.136,-0.344 -0.619,-0.769 -0.794,-0.905c-0.092,-0.073 -0.556,-0.325 -0.939,-0.524c-0.047,-0.012 -0.483,-0.235 -2.17,-1.114c-0.289,-0.15 -0.556,-0.289 -0.768,-0.399m5.973,7.837l-0.317,-0.137c-3.41,-1.466 -4.086,-1.848 -4.25,-1.974c-0.216,-0.159 -1.273,-0.975 -1.393,-1.683c-0.071,-0.179 -0.386,-0.982 -0.455,-1.417c-0.064,-1.112 -0.157,-2.733 -0.181,-3.042l-0.2,-0.38l0.487,-0.004c0.097,-0.002 0.086,0 1.387,0.677c0.796,0.416 1.998,1.04 2.125,1.093c0.974,0.502 1.062,0.592 1.094,0.625c0.047,0.031 0.734,0.573 0.948,1.119c0.053,0.123 0.567,1.305 0.64,1.798c0.015,0.096 0.356,2.403 0.202,2.99l-0.087,0.335Z" style="fill:#fff;fill-rule:nonzero;"/><path d="M13.799,30.836c0.027,0.409 0.071,1.188 0.156,2.693c0.062,0.396 0.431,1.302 0.435,1.312l0.013,0.06c0.043,0.385 0.754,1.043 1.194,1.368l0.039,0.038c0.171,0.136 2.049,0.986 3.823,1.756c0.011,-0.575 -0.122,-1.75 -0.236,-2.514c-0.054,-0.359 -0.456,-1.331 -0.608,-1.674c-0.139,-0.359 -0.633,-0.796 -0.814,-0.935c-0.087,-0.072 -0.557,-0.327 -0.951,-0.533c-0.062,-0.015 -0.699,-0.345 -2.192,-1.124c-0.311,-0.163 -0.63,-0.328 -0.859,-0.447m6.004,7.859l-0.238,-0.102c-1.764,-0.759 -3.881,-1.695 -4.235,-1.966c-0.131,-0.096 -1.255,-0.948 -1.366,-1.645c-0.064,-0.16 -0.387,-0.975 -0.452,-1.408c-0.066,-1.125 -0.162,-2.775 -0.184,-3.05l-0.155,-0.288l0.371,-0.003c0.064,0 0.064,-0.001 1.331,0.658c0.809,0.421 2.032,1.059 2.153,1.105c0.646,0.334 0.996,0.533 1.071,0.61c0.007,0.002 0.721,0.557 0.931,1.095c0.054,0.124 0.564,1.299 0.635,1.781c0.003,0.023 0.355,2.383 0.202,2.962l-0.064,0.251Z" style="fill:#fff;fill-rule:nonzero;"/><path d="M14.129,31.342c0.026,0.464 0.066,1.15 0.123,2.169c0.037,0.227 0.245,0.799 0.411,1.212l0.029,0.101c0.032,0.249 0.553,0.813 1.082,1.205l0.069,0.064c0.124,0.084 1.418,0.687 3.307,1.511c-0.035,-0.584 -0.128,-1.397 -0.219,-2.012c-0.04,-0.274 -0.366,-1.102 -0.585,-1.6c-0.1,-0.256 -0.484,-0.631 -0.727,-0.818c-0.063,-0.051 -0.419,-0.251 -0.89,-0.497c-0.114,-0.046 -0.469,-0.228 -2.207,-1.132l-0.393,-0.203Zm5.875,7.763l-0.558,-0.24c-2.053,-0.882 -3.393,-1.493 -3.993,-1.82l-0.016,0.033l-0.285,-0.212c-0.311,-0.233 -1.327,-1.045 -1.473,-1.802c-0.126,-0.316 -0.395,-1.027 -0.458,-1.443c-0.065,-1.084 -0.154,-2.608 -0.184,-3.011l-0.356,-0.667l0.864,-0.006l0.001,0c0.143,0 0.146,0.002 1.469,0.691c0.697,0.363 1.994,1.039 2.126,1.094c1.012,0.52 1.117,0.621 1.168,0.674c0.237,0.177 0.804,0.697 1,1.199c0.171,0.39 0.583,1.373 0.653,1.845c0.109,0.754 0.342,2.528 0.197,3.08l-0.155,0.585Z" style="fill:#fff;fill-rule:nonzero;"/><path d="M20.267,38.387c0,0 4.017,-1.728 4.188,-1.939c0,0 1.212,-0.898 1.284,-1.523c0,0 0.379,-0.934 0.45,-1.385c0,0 0.173,-3.059 0.183,-3.082c0.012,-0.02 -3.248,1.7 -3.404,1.751c0,0 -0.902,0.465 -0.986,0.554c0,0 -0.693,0.536 -0.884,1.02c0,0 -0.554,1.265 -0.623,1.733c-0.071,0.467 -0.329,2.406 -0.208,2.871" style="fill:#fff;fill-rule:nonzero;"/><path d="M26.041,30.96c-0.213,0.11 -0.482,0.251 -0.772,0.402c-1.683,0.876 -2.117,1.097 -2.208,1.129c-0.343,0.181 -0.806,0.433 -0.883,0.492c-0.19,0.15 -0.674,0.575 -0.804,0.909c-0.154,0.351 -0.556,1.315 -0.605,1.668c-0.11,0.721 -0.23,1.8 -0.238,2.39c1.724,-0.746 3.523,-1.559 3.721,-1.716c0.487,-0.366 1.152,-1 1.192,-1.341l0.02,-0.079c0.1,-0.25 0.378,-0.979 0.432,-1.32c0.076,-1.341 0.119,-2.099 0.145,-2.534m-5.974,7.837l-0.088,-0.335c-0.156,-0.605 0.202,-2.968 0.205,-2.99c0.072,-0.492 0.584,-1.675 0.643,-1.809c0.21,-0.534 0.895,-1.077 0.972,-1.136c0.003,-0.005 0.09,-0.095 1.034,-0.582c0.16,-0.067 1.372,-0.698 2.174,-1.116c1.282,-0.668 1.282,-0.668 1.366,-0.668l0.456,0l-0.164,0.372c-0.022,0.285 -0.115,1.926 -0.178,3.025c-0.071,0.46 -0.386,1.268 -0.458,1.446c-0.121,0.708 -1.178,1.524 -1.394,1.683c-0.163,0.125 -0.842,0.508 -4.249,1.974l-0.319,0.136Z" style="fill:#fff;fill-rule:nonzero;"/><path d="M26.122,30.835c-0.231,0.12 -0.555,0.288 -0.87,0.453c-1.485,0.775 -2.121,1.103 -2.214,1.133c-0.363,0.191 -0.834,0.447 -0.905,0.506c-0.196,0.152 -0.691,0.59 -0.826,0.939c-0.156,0.352 -0.557,1.323 -0.611,1.683c-0.114,0.763 -0.246,1.938 -0.238,2.514c1.776,-0.77 3.656,-1.621 3.841,-1.772c0.463,-0.347 1.174,-1.006 1.217,-1.39l0.015,-0.06c0.004,-0.01 0.371,-0.916 0.436,-1.336c0.086,-1.497 0.13,-2.268 0.155,-2.67m-6.006,7.86l-0.064,-0.25c-0.154,-0.584 0.2,-2.94 0.204,-2.964c0.069,-0.481 0.579,-1.656 0.637,-1.789c0.207,-0.527 0.921,-1.083 0.952,-1.108c0.05,-0.054 0.403,-0.254 1.021,-0.576c0.148,-0.059 1.376,-0.699 2.192,-1.123c1.25,-0.653 1.25,-0.653 1.316,-0.653l0.336,0l-0.117,0.28c-0.018,0.243 -0.116,1.92 -0.179,3.041c-0.07,0.453 -0.393,1.269 -0.458,1.428c-0.11,0.698 -1.235,1.55 -1.366,1.646l-0.001,0c-0.353,0.27 -2.47,1.206 -4.234,1.966l-0.239,0.102Z" style="fill:#fff;fill-rule:nonzero;"/><path d="M25.794,31.34l-0.405,0.21c-1.792,0.935 -2.149,1.117 -2.256,1.151c-0.391,0.209 -0.759,0.416 -0.816,0.459c-0.234,0.181 -0.635,0.561 -0.734,0.812c-0.225,0.512 -0.552,1.342 -0.592,1.619c-0.093,0.611 -0.187,1.425 -0.222,2.013c1.921,-0.838 3.196,-1.436 3.343,-1.544c0.631,-0.473 1.087,-1.007 1.108,-1.192l0.021,-0.1c0.086,-0.21 0.379,-0.971 0.434,-1.309c0.055,-0.989 0.093,-1.661 0.119,-2.119m-5.877,7.765l-0.153,-0.586c-0.153,-0.588 0.111,-2.505 0.196,-3.079c0.076,-0.513 0.563,-1.645 0.661,-1.866c0.211,-0.542 0.849,-1.072 1.038,-1.221c0.009,-0.015 0.086,-0.098 1.071,-0.609c0.169,-0.07 1.689,-0.861 2.188,-1.123c1.316,-0.685 1.316,-0.685 1.454,-0.685l0.782,0l-0.27,0.646c-0.024,0.363 -0.115,1.926 -0.174,2.988c-0.076,0.492 -0.381,1.278 -0.467,1.494c-0.148,0.767 -1.164,1.573 -1.475,1.802l-0.206,0.152l-0.015,-0.014c-0.358,0.203 -1.313,0.673 -4.074,1.862l-0.556,0.239Z" style="fill:#fff;fill-rule:nonzero;"/><path d="M19.654,30.976c0,0 -4.018,-1.73 -4.189,-1.937c0,0 -1.211,-0.901 -1.283,-1.524c0,0 -0.38,-0.936 -0.451,-1.387c0,0 -0.171,-3.058 -0.183,-3.08c-0.012,-0.022 3.251,1.697 3.406,1.746c0,0 0.899,0.471 0.984,0.556c0,0 0.694,0.535 0.885,1.024c0,0 0.554,1.263 0.622,1.729c0.07,0.467 0.33,2.407 0.209,2.873" style="fill:#fff;fill-rule:nonzero;"/><path d="M13.88,23.549c0.03,0.443 0.071,1.21 0.147,2.563c0.052,0.314 0.33,1.041 0.43,1.291l0.021,0.08c0.037,0.34 0.704,0.976 1.162,1.32l0.051,0.047c0.175,0.129 1.973,0.941 3.699,1.69c-0.008,-0.594 -0.131,-1.673 -0.239,-2.392c-0.051,-0.351 -0.45,-1.313 -0.6,-1.654c-0.136,-0.347 -0.631,-0.782 -0.793,-0.907c-0.09,-0.072 -0.555,-0.325 -0.941,-0.527c-0.046,-0.011 -0.479,-0.232 -2.156,-1.105c-0.277,-0.143 -0.556,-0.29 -0.781,-0.406m5.973,7.837l-0.319,-0.136c-2.511,-1.084 -3.938,-1.746 -4.248,-1.973l-0.001,0.001c-0.215,-0.161 -1.272,-0.979 -1.392,-1.685c-0.071,-0.179 -0.386,-0.984 -0.455,-1.419c-0.064,-1.106 -0.157,-2.72 -0.181,-3.036l-0.211,-0.384l0.499,-0.004c0.103,0.004 0.088,0 1.4,0.683c0.79,0.411 1.984,1.032 2.112,1.084c0.973,0.506 1.059,0.592 1.091,0.624c0.049,0.035 0.738,0.576 0.952,1.126c0.053,0.12 0.566,1.301 0.638,1.793c0.038,0.245 0.354,2.415 0.204,2.991l-0.089,0.335Z" style="fill:#fff;fill-rule:nonzero;"/><path d="M13.799,23.425c0.027,0.409 0.071,1.188 0.156,2.691c0.062,0.399 0.431,1.305 0.435,1.315l0.013,0.059c0.043,0.383 0.755,1.044 1.194,1.372l0.037,0.035c0.17,0.135 2.05,0.985 3.825,1.754c0.011,-0.575 -0.12,-1.749 -0.236,-2.513c-0.053,-0.359 -0.453,-1.329 -0.606,-1.673c-0.141,-0.36 -0.635,-0.798 -0.816,-0.936c-0.083,-0.068 -0.554,-0.328 -0.951,-0.532c-0.058,-0.016 -0.611,-0.301 -2.125,-1.089c-0.338,-0.176 -0.683,-0.357 -0.926,-0.483m6.004,7.859l-0.238,-0.103c-1.766,-0.76 -3.889,-1.698 -4.235,-1.963l0,0.001c-0.131,-0.097 -1.255,-0.952 -1.364,-1.647c-0.066,-0.16 -0.388,-0.976 -0.454,-1.41c-0.065,-1.117 -0.161,-2.758 -0.184,-3.043l-0.168,-0.293l0.385,-0.002c0.068,0.004 0.068,-0.001 1.398,0.691c0.831,0.432 1.968,1.023 2.087,1.07c0.644,0.333 0.993,0.533 1.067,0.607c0.01,0.004 0.723,0.561 0.933,1.1c0.055,0.122 0.564,1.296 0.635,1.779c0.014,0.096 0.355,2.384 0.202,2.962l-0.064,0.251Z" style="fill:#fff;fill-rule:nonzero;"/><path d="M13.964,23.678c0.029,0.455 0.07,1.2 0.14,2.431c0.04,0.252 0.244,0.819 0.421,1.259l0.024,0.084c0.035,0.308 0.617,0.903 1.137,1.29l0.051,0.048c0.127,0.099 1.712,0.826 3.573,1.633c-0.02,-0.59 -0.128,-1.558 -0.234,-2.263c-0.045,-0.309 -0.388,-1.167 -0.594,-1.636c-0.132,-0.336 -0.612,-0.756 -0.771,-0.878c-0.059,-0.049 -0.444,-0.267 -0.93,-0.519c-0.032,-0.006 -0.243,-0.11 -2.123,-1.089l-0.694,-0.36Zm5.643,7.197l-0.205,-0.089c-1.239,-0.535 -3.637,-1.595 -3.86,-1.773l-0.047,-0.045c-0.004,0 -1.173,-0.877 -1.237,-1.461l-0.012,-0.037c-0.087,-0.212 -0.38,-0.962 -0.437,-1.33c-0.087,-1.517 -0.131,-2.295 -0.158,-2.704l-0.018,-0.263l1.162,0.601c1.301,0.678 2.023,1.052 2.101,1.081c0.313,0.159 0.89,0.469 1,0.558c0.003,0.003 0.674,0.521 0.859,0.997c0.15,0.34 0.558,1.325 0.615,1.705c0.103,0.677 0.248,1.913 0.239,2.538l-0.002,0.222Zm-4.298,-1.858l0.11,0.084c0.153,0.115 0.899,0.521 4.203,1.945l0.081,0.036l0.022,-0.085c0.128,-0.485 -0.135,-2.444 -0.206,-2.903c-0.069,-0.458 -0.568,-1.612 -0.624,-1.742c-0.198,-0.504 -0.878,-1.034 -0.885,-1.038c-0.04,-0.038 -0.182,-0.147 -1.049,-0.596c-0.093,-0.037 -0.869,-0.436 -2.088,-1.071c-0.901,-0.47 -1.276,-0.663 -1.328,-0.673l-0.129,0l0.061,0.135c0.022,0.283 0.114,1.875 0.183,3.047c0.064,0.418 0.404,1.266 0.443,1.362c0.082,0.506 0.751,1.141 1.206,1.499m4.593,2.474l-0.397,-0.173c-2.119,-0.912 -3.47,-1.529 -4.026,-1.835l0,0.032l-0.238,-0.176c-0.216,-0.161 -1.306,-1.007 -1.423,-1.743c-0.056,-0.127 -0.384,-0.953 -0.453,-1.41c-0.067,-1.145 -0.156,-2.666 -0.181,-3.022l-0.283,-0.482l0.643,-0.006c0.117,0.007 0.122,0.007 1.467,0.707c0.635,0.332 1.959,1.019 2.072,1.064c0.857,0.444 1.049,0.574 1.112,0.635c0.15,0.112 0.77,0.635 0.974,1.158c0.094,0.212 0.571,1.325 0.644,1.81c0.004,0.022 0.365,2.391 0.199,3.021l-0.11,0.42Z" style="fill:#fff;fill-rule:nonzero;"/><path d="M20.267,30.605c0,0 4.017,-1.729 4.188,-1.937c0,0 1.212,-0.901 1.284,-1.524c0,0 0.379,-0.936 0.45,-1.387c0,0 0.173,-3.058 0.183,-3.081c0.012,-0.021 -3.248,1.698 -3.404,1.748c0,0 -0.902,0.47 -0.986,0.556c0,0 -0.693,0.534 -0.884,1.023c0,0 -0.554,1.263 -0.623,1.729c-0.071,0.468 -0.329,2.407 -0.208,2.873" style="fill:#fff;fill-rule:nonzero;"/><path d="M26.041,23.549c-0.226,0.116 -0.508,0.264 -0.786,0.408c-1.672,0.871 -2.104,1.092 -2.194,1.12c-0.343,0.185 -0.809,0.438 -0.885,0.496c-0.188,0.148 -0.67,0.573 -0.802,0.909c-0.154,0.353 -0.554,1.315 -0.604,1.665c-0.113,0.741 -0.232,1.805 -0.239,2.393c1.726,-0.749 3.527,-1.563 3.724,-1.716c0.484,-0.365 1.15,-1.001 1.189,-1.341l0.021,-0.08c0.101,-0.251 0.377,-0.978 0.432,-1.319c0.075,-1.341 0.118,-2.099 0.144,-2.535m-5.974,7.838l-0.088,-0.336c-0.154,-0.602 0.202,-2.968 0.205,-2.991c0.072,-0.492 0.585,-1.672 0.643,-1.805c0.21,-0.538 0.895,-1.079 0.972,-1.139c0.002,-0.004 0.092,-0.094 1.033,-0.584c0.161,-0.067 1.365,-0.693 2.161,-1.108c1.296,-0.674 1.296,-0.674 1.38,-0.674l0.464,0l-0.173,0.375c-0.022,0.292 -0.114,1.927 -0.178,3.021c-0.07,0.459 -0.387,1.268 -0.458,1.446c-0.12,0.705 -1.177,1.525 -1.393,1.686l-0.002,-0.001c-0.31,0.227 -1.735,0.889 -4.247,1.972l-0.319,0.138Z" style="fill:#fff;fill-rule:nonzero;"/><path d="M26.122,23.424c-0.245,0.128 -0.595,0.31 -0.937,0.487c-1.507,0.784 -2.056,1.068 -2.146,1.098c-0.364,0.191 -0.837,0.451 -0.907,0.507c-0.194,0.15 -0.688,0.588 -0.824,0.939c-0.156,0.353 -0.558,1.323 -0.611,1.68c-0.114,0.765 -0.246,1.939 -0.237,2.514c1.775,-0.768 3.656,-1.619 3.841,-1.768c0.461,-0.348 1.173,-1.009 1.217,-1.391l0.013,-0.061c0.004,-0.009 0.371,-0.916 0.438,-1.336c0.084,-1.492 0.128,-2.265 0.153,-2.669m-6.006,7.86l-0.064,-0.251c-0.152,-0.582 0.2,-2.94 0.204,-2.963c0.069,-0.482 0.58,-1.654 0.637,-1.787c0.207,-0.53 0.921,-1.087 0.952,-1.11c0.052,-0.055 0.404,-0.255 1.021,-0.575c0.144,-0.06 1.337,-0.68 2.125,-1.089c1.316,-0.686 1.316,-0.686 1.382,-0.686l0.345,0l-0.125,0.284c-0.02,0.253 -0.116,1.919 -0.18,3.035c-0.07,0.453 -0.392,1.27 -0.458,1.43c-0.109,0.695 -1.235,1.55 -1.365,1.647l-0.001,-0.001c-0.348,0.265 -2.468,1.203 -4.234,1.963l-0.239,0.103Z" style="fill:#fff;fill-rule:nonzero;"/><path d="M25.957,23.677l-0.704,0.367c-1.667,0.866 -2.072,1.073 -2.166,1.106c-0.397,0.21 -0.81,0.44 -0.863,0.482c-0.254,0.198 -0.668,0.594 -0.778,0.877c-0.212,0.478 -0.557,1.342 -0.602,1.649c-0.106,0.706 -0.214,1.674 -0.234,2.265c1.892,-0.823 3.453,-1.541 3.596,-1.657c0.55,-0.413 1.129,-1.006 1.162,-1.291l0.018,-0.081c0.066,-0.163 0.378,-0.962 0.434,-1.324c0.07,-1.207 0.111,-1.944 0.137,-2.393m-5.643,7.198l-0.003,-0.222c-0.009,-0.627 0.137,-1.863 0.24,-2.539c0.066,-0.455 0.614,-1.707 0.621,-1.718c0.174,-0.451 0.84,-0.974 0.867,-0.996c0.117,-0.093 0.923,-0.518 0.931,-0.523c0.11,-0.038 0.959,-0.479 2.146,-1.097l1.171,-0.607l-0.017,0.261c-0.025,0.404 -0.07,1.175 -0.154,2.669c-0.071,0.46 -0.446,1.381 -0.45,1.388l-0.008,0.037c-0.059,0.557 -1.221,1.435 -1.269,1.472c-0.229,0.186 -2.542,1.211 -3.871,1.786l-0.204,0.089Zm6.058,-7.904c-0.051,0.013 -0.345,0.165 -1.312,0.669l-0.056,0.028c-1.021,0.53 -1.947,1.01 -2.083,1.067c-0.852,0.443 -0.964,0.534 -0.974,0.544c-0.086,0.069 -0.733,0.586 -0.916,1.058c-0.363,0.841 -0.589,1.473 -0.631,1.754c-0.121,0.816 -0.319,2.473 -0.206,2.904l0.022,0.084l0.082,-0.035c3.302,-1.424 4.049,-1.829 4.201,-1.944l0.102,-0.079l0.002,0.001c0.303,-0.24 1.119,-0.93 1.206,-1.473c0.047,-0.128 0.385,-0.977 0.456,-1.431c0.073,-1.271 0.16,-2.78 0.179,-3.025l0.012,-0.048l0.032,-0.075l-0.116,0l0,0.001Zm-6.357,8.519l-0.109,-0.419c-0.148,-0.577 0.142,-2.618 0.2,-3.02c0.063,-0.422 0.429,-1.312 0.642,-1.806c0.214,-0.548 0.872,-1.086 1.003,-1.187c0.015,-0.017 0.088,-0.093 1.047,-0.592c0.146,-0.061 1.349,-0.687 2.069,-1.061l0.055,-0.028c1.347,-0.702 1.347,-0.702 1.45,-0.702l0.573,0l-0.208,0.468c-0.021,0.307 -0.106,1.761 -0.176,3.007c-0.076,0.49 -0.403,1.317 -0.468,1.478c-0.107,0.699 -1.197,1.548 -1.415,1.71l-0.102,0.078l-0.008,-0.008c-0.454,0.274 -1.847,0.915 -4.155,1.91l-0.398,0.172Z" style="fill:#fff;fill-rule:nonzero;"/><path d="M19.813,24.935c0,0 -2.226,-3.294 -1.718,-5.231c0,0 1.436,-2.971 1.978,-3.712c0,0 1.928,2.943 2.164,3.733c0,0.001 0.161,3.146 -2.424,5.21" style="fill:#fff;fill-rule:nonzero;"/><path d="M20.073,16.54c-0.622,1.04 -1.699,3.268 -1.712,3.294c-0.367,1.429 1.014,3.84 1.521,4.656c2.042,-1.825 2.065,-4.383 2.059,-4.714c-0.193,-0.572 -1.252,-2.274 -1.868,-3.236m-0.325,8.828l-0.181,-0.266c-0.093,-0.139 -2.294,-3.43 -1.76,-5.473c0.078,-0.176 1.474,-3.058 2.024,-3.812l0.254,-0.345l0.236,0.358c0.199,0.306 1.958,3.002 2.199,3.811l0.013,0.071c0.009,0.135 0.14,3.32 -2.534,5.455l-0.251,0.201Z" style="fill:#fff;fill-rule:nonzero;"/><path d="M20.071,16.402c-0.611,0.998 -1.765,3.372 -1.776,3.399c-0.391,1.512 1.103,4.059 1.57,4.801c2.146,-1.866 2.154,-4.543 2.149,-4.839c-0.196,-0.59 -1.335,-2.416 -1.943,-3.361m-0.307,8.859l-0.135,-0.2c-0.094,-0.138 -2.278,-3.402 -1.752,-5.414c0.073,-0.162 1.468,-3.038 2.013,-3.787l0.191,-0.26l0.178,0.27c0.08,0.121 1.948,2.98 2.191,3.792l0.01,0.053c0.007,0.133 0.136,3.283 -2.506,5.396l-0.19,0.15Z" style="fill:#fff;fill-rule:nonzero;"/><path d="M20.082,16.971c-0.624,1.112 -1.51,2.939 -1.521,2.959c-0.249,0.983 0.51,2.77 1.369,4.208c1.707,-1.682 1.788,-3.898 1.788,-4.322c-0.179,-0.479 -0.937,-1.743 -1.636,-2.845m-0.384,8.724l-0.315,-0.468c-0.096,-0.141 -2.354,-3.507 -1.793,-5.653c0.098,-0.228 1.495,-3.113 2.06,-3.887l0.445,-0.609l0.412,0.63c0.018,0.028 1.965,2.988 2.228,3.869l0.016,0.086c0.012,0.176 0.153,3.47 -2.613,5.68l-0.44,0.352Z" style="fill:#fff;fill-rule:nonzero;"/><path d="M57.458,32.883c1.402,-4.572 -1.479,-10.15 -1.512,-10.21l1.353,-0.1c0.139,0.265 3.181,6.144 1.509,11.101" style="fill:#fff;fill-rule:nonzero;"/><path d="M56.246,23.092c0,0 -2.188,1.445 -4.279,0.476c0,0 -1.633,-0.81 -2.676,-2.327c0,0 -1.154,-1.857 -1.366,-2.083c0,0 2.172,-0.533 3.219,-0.437c0,0 2.455,-0.152 3.519,0.908c0,0 1.322,0.804 1.785,3.156l-0.202,0.307Z" style="fill:#fff;fill-rule:nonzero;"/><path d="M48.429,19.348c0.38,0.56 0.967,1.502 1.114,1.736c0.98,1.424 2.537,2.208 2.555,2.218c0.433,0.199 0.915,0.303 1.426,0.303c1.227,0 2.274,-0.588 2.509,-0.731l0.099,-0.151c-0.453,-2.107 -1.612,-2.834 -1.623,-2.842l-0.056,-0.042c-0.965,-0.962 -3.271,-0.825 -3.291,-0.822c-0.123,-0.008 -0.209,-0.012 -0.297,-0.012c-0.742,0.001 -1.836,0.213 -2.436,0.343m5.095,4.851c-0.6,0 -1.166,-0.122 -1.683,-0.364c-0.078,-0.037 -1.721,-0.865 -2.795,-2.425c-0.481,-0.773 -1.206,-1.908 -1.338,-2.048l-0.35,-0.37l0.495,-0.122c0.084,-0.022 2.237,-0.542 3.308,-0.447c0.006,-0.002 0.125,-0.008 0.302,-0.008c0.89,0 2.504,0.128 3.386,0.98c0.221,0.146 1.441,1.055 1.89,3.331l0.023,0.118l-0.353,0.496c-0.053,0.034 -1.32,0.859 -2.885,0.859" style="fill:#fff;fill-rule:nonzero;"/><path d="M48.306,19.3c0.387,0.561 1.078,1.67 1.174,1.823c0.993,1.444 2.568,2.237 2.585,2.244c0.443,0.207 0.937,0.311 1.459,0.311c1.27,0 2.35,-0.62 2.56,-0.749l0.125,-0.191c-0.452,-2.146 -1.65,-2.912 -1.664,-2.918l-0.04,-0.032c-0.772,-0.768 -2.385,-0.852 -3.042,-0.852c-0.186,0 -0.303,0.007 -0.306,0.008c-0.114,-0.008 -0.202,-0.012 -0.294,-0.012c-0.793,0.002 -1.984,0.242 -2.557,0.368m5.218,4.826c-0.588,0 -1.145,-0.119 -1.654,-0.355c-0.075,-0.037 -1.7,-0.856 -2.763,-2.403c-0.447,-0.719 -1.201,-1.903 -1.346,-2.056l-0.262,-0.28l0.372,-0.09c0.084,-0.021 2.219,-0.54 3.288,-0.446c0.003,-0.001 0.123,-0.007 0.304,-0.007c0.709,0 2.446,0.095 3.341,0.964c0.192,0.128 1.416,1.013 1.863,3.287l0.019,0.09l-0.318,0.449c-0.051,0.035 -1.3,0.847 -2.844,0.847" style="fill:#fff;fill-rule:nonzero;"/><path d="M48.798,19.499c0.336,0.511 0.743,1.161 0.931,1.463c0.935,1.362 2.453,2.132 2.468,2.14c0.398,0.184 0.847,0.28 1.327,0.28c1.108,0 2.062,-0.503 2.348,-0.672l0.02,-0.029c-0.439,-1.909 -1.492,-2.601 -1.503,-2.608l-0.069,-0.051c-0.738,-0.733 -2.373,-0.789 -2.857,-0.789c-0.154,0 -0.257,0.005 -0.279,0.006c-0.156,-0.007 -0.237,-0.009 -0.323,-0.009c-0.598,0 -1.438,0.143 -2.063,0.269m4.726,4.925c-0.632,0 -1.231,-0.129 -1.778,-0.384c-0.079,-0.037 -1.771,-0.884 -2.885,-2.504c-0.616,-0.99 -1.214,-1.91 -1.316,-2.02l-0.61,-0.651l0.866,-0.212c0.018,-0.004 2.213,-0.543 3.355,-0.453c0.059,-0.005 0.151,-0.007 0.307,-0.007c0.742,0 2.572,0.101 3.548,1.046c0.208,0.132 1.482,1.079 1.947,3.445l0.043,0.215l-0.47,0.629c-0.143,0.092 -1.42,0.896 -3.007,0.896" style="fill:#fff;fill-rule:nonzero;"/><path d="M55.975,22.471c0,0 -0.344,-2.553 1.504,-3.83c0,0 1.488,-0.971 3.359,-1.098c0,0 2.241,-0.049 2.549,-0.115c0,0 -0.494,2.087 -1.057,2.916c0,0 -0.976,2.138 -2.436,2.506c0,0 -1.343,0.717 -3.727,-0.06l-0.192,-0.319Z" style="fill:#fff;fill-rule:nonzero;"/><path d="M56.365,22.541c0.668,0.208 1.313,0.313 1.918,0.313c0.946,0 1.469,-0.265 1.473,-0.268l0.064,-0.024c1.306,-0.329 2.233,-2.32 2.24,-2.341c0.401,-0.593 0.765,-1.822 0.935,-2.458c-0.685,0.043 -1.86,0.071 -2.149,0.078c-1.761,0.12 -3.191,1.039 -3.206,1.048c-1.519,1.051 -1.409,3.115 -1.375,3.485l0.1,0.167Zm1.916,0.907c-0.697,0 -1.438,-0.128 -2.205,-0.377l-0.105,-0.033l-0.29,-0.528c-0.013,-0.112 -0.345,-2.749 1.629,-4.115c0.071,-0.046 1.581,-1.017 3.508,-1.149c1.086,-0.023 2.323,-0.07 2.506,-0.109l0.459,-0.1l-0.107,0.459c-0.02,0.086 -0.512,2.149 -1.1,3.015c-0.018,0.05 -1.016,2.199 -2.58,2.618c-0.148,0.07 -0.741,0.319 -1.715,0.319" style="fill:#fff;fill-rule:nonzero;"/><path d="M56.316,22.601c0.686,0.216 1.346,0.326 1.965,0.326c0.97,0 1.505,-0.274 1.51,-0.276l0.047,-0.02c1.34,-0.337 2.28,-2.359 2.29,-2.379c0.422,-0.627 0.806,-1.967 0.964,-2.57c-0.684,0.049 -2.059,0.082 -2.246,0.086c-1.785,0.12 -3.23,1.049 -3.245,1.059c-1.576,1.092 -1.438,3.24 -1.405,3.571l0.12,0.203Zm1.965,0.773c-0.69,0 -1.425,-0.125 -2.183,-0.372l-0.081,-0.026l-0.262,-0.476c-0.014,-0.11 -0.341,-2.705 1.596,-4.045c0.069,-0.043 1.565,-1.006 3.473,-1.135c0.869,-0.019 2.305,-0.067 2.516,-0.112l0.346,-0.076l-0.083,0.347c-0.019,0.086 -0.507,2.138 -1.086,2.992c-0.024,0.059 -1.011,2.183 -2.544,2.589c-0.131,0.062 -0.715,0.314 -1.692,0.314" style="fill:#fff;fill-rule:nonzero;"/><path d="M56.511,22.352c0.622,0.186 1.216,0.278 1.77,0.278c0.878,0 1.37,-0.243 1.375,-0.245l0.08,-0.031c1.215,-0.31 2.112,-2.205 2.12,-2.224c0.269,-0.405 0.568,-1.174 0.839,-2.128c-0.703,0.035 -1.648,0.057 -1.844,0.062c-1.673,0.114 -3.072,1 -3.086,1.009c-1.358,0.943 -1.31,2.81 -1.28,3.231l0.026,0.048Zm1.77,1.319c-0.723,0 -1.489,-0.131 -2.275,-0.386l-0.192,-0.062l-0.353,-0.682c-0.015,-0.117 -0.373,-2.883 1.72,-4.331c0.175,-0.112 1.688,-1.055 3.623,-1.187c1.223,-0.027 2.325,-0.074 2.473,-0.106l0.806,-0.173l-0.189,0.803c-0.089,0.367 -0.55,2.215 -1.12,3.071c-0.143,0.301 -1.145,2.31 -2.726,2.729c-0.117,0.061 -0.749,0.324 -1.767,0.324" style="fill:#fff;fill-rule:nonzero;"/><path d="M42.976,45.365l-0.014,0.01c0,0 -2.589,0.678 -4.166,-0.897c0,0 -1.211,-1.281 -1.603,-3.04c0,0 -0.367,-2.117 -0.483,-2.401c0,0 2.228,0.18 3.163,0.599c0,0 2.343,0.633 2.931,1.965c0,0 0.664,0.865 0.576,2.582c0.161,-0.398 0.342,-0.79 0.554,-1.17c1.221,-2.185 3.161,-3.663 5.773,-4.394c4.484,-1.255 6.891,-2.891 7.806,-5.3l0.165,0.062l-6.688,-4.92l0,7.964l-10.508,-7.964l0,7.239l-10.628,-7.239l0,25.916l13.104,0c-0.359,-1.629 -0.986,-5.456 0.018,-9.012" style="fill:#fff;fill-rule:nonzero;"/><path d="M58.694,34.021c-0.788,1.906 -2.387,3.359 -5.029,4.513c0.854,-0.028 1.526,-0.075 2.424,0.678c0,0 1.356,1.205 1.956,2.934c0,0 0.61,2.086 0.757,2.363c0,0 -2.245,-0.053 -3.229,-0.42c0,0 -2.412,-0.494 -3.152,-1.791c0,0 -0.92,-0.736 -0.803,-2.983c-0.505,0.171 -1.032,0.335 -1.596,0.493c-2.373,0.663 -3.511,1.774 -4.611,3.742c-2.171,3.89 -1.224,9.219 -0.837,10.928l18.814,-0.102l0,-16.795l-4.694,-3.56Z" style="fill:#fff;fill-rule:nonzero;"/></g></svg>