<?xml version="1.0" encoding="UTF-8" standalone="no"?><!DOCTYPE svg PUBLIC "-//W3C//DTD SVG 1.1//EN" "http://www.w3.org/Graphics/SVG/1.1/DTD/svg11.dtd"><svg width="100%" height="100%" viewBox="0 0 78 78" version="1.1" xmlns="http://www.w3.org/2000/svg" xmlns:xlink="http://www.w3.org/1999/xlink" xml:space="preserve" xmlns:serif="http://www.serif.com/" style="fill-rule:evenodd;clip-rule:evenodd;stroke-linejoin:round;stroke-miterlimit:1.41421;"><g id="organizations-icon"><circle cx="38.974" cy="38.897" r="38.893" style="fill:#6b2a7d;"/><path d="M63.125,45.287c0,0 -1.559,-1.099 -2.011,-1.734l-0.003,-1.8c0,0 4.118,-0.325 3.798,-2.432c-0.276,-1.817 -0.935,-0.816 -1.8,-4.805c0,0 1.121,-8.894 -6.337,-9.167c0,0 -6.852,0.393 -5.58,8.969c0,0 0.048,2.563 -0.473,3.186c-0.886,1.059 -1.352,1.956 -1.088,2.812c0.37,1.203 3.089,1.272 3.573,1.7l0,1.575c0,0 -0.277,0.981 -2.423,1.991c3.135,2.121 3.08,3.69 3.08,3.893l0,2.694l11.058,0l0.112,-5.883c-0.55,-0.319 -1.181,-0.652 -1.906,-0.999" style="fill:#fff;fill-rule:nonzero;"/><path d="M11.655,52.039l12.368,0l0,-2.301l0.036,-0.222c0.062,-0.117 1.272,-2.05 3.155,-3.637c-0.465,-0.261 -0.519,-0.46 -1.097,-0.736c0,0 -1.581,-0.799 -2.042,-1.444l0,-1.843c0,0 1.474,-2.38 1.198,-3.471c0,0 0.736,0.567 1.06,-0.631c0.322,-1.198 0.738,-2.996 0.738,-2.996c0,0 -0.278,-0.829 -0.969,-0.553c0,0 1.138,-9.032 -6.436,-9.311c0,0 -7.251,0.555 -5.96,9.263c0,0 -1.014,-0.366 -1.014,0.692c0,1.061 0.874,3.319 0.874,3.319c0,0 0.585,1.215 1.122,0.215c0,0 0.246,2.459 1.352,3.442l0,1.597c0,0 -1.352,1.352 -4.055,2.459c-0.113,0.045 -0.331,0.026 -0.331,0.147" style="fill:#fff;fill-rule:nonzero;"/><path d="M25.438,50.017l0,3.669l6.334,0l0,-3.871c0,0 -0.012,-1.37 -3.287,-3.391c-1.685,1.329 -2.798,3.159 -3.047,3.593" style="fill:#fff;fill-rule:nonzero;"/><path d="M45.998,44.115c0,0 -1.524,-0.916 -2.053,-1.657l0,-2.115c0,0 1.692,-2.734 1.374,-3.985c0,0 0.848,0.652 1.217,-0.723c0.371,-1.375 0.848,-3.439 0.848,-3.439c0,0 -0.319,-0.95 -1.111,-0.633c0,0 0.147,-0.636 0.079,-1.939c-0.988,0.483 -2.037,0.987 -3.464,1.533c-2.302,0.881 -3.813,2.109 -4.601,4.503c-0.237,0.716 -0.401,1.283 -0.496,2.079c0.213,-0.371 0.315,-0.367 0.786,-0.603c0,0 1.28,-0.591 2.84,-0.468c0,0 1.86,0.229 2.116,0.213c0,0 -0.503,1.6 -1.008,2.191c0,0 -0.903,1.581 -2.134,1.699c0,0 -1.077,0.368 -2.908,-0.422c0.119,4.587 1.986,9.79 4.33,13.459l0.23,0.322l10.39,0l0,-4.656c0.001,0.001 0.051,-2.255 -6.435,-5.359" style="fill:#fff;fill-rule:nonzero;"/><path d="M36.752,35.463c0.579,-1.758 1.372,-3.198 2.672,-4.256c-0.483,-0.017 -0.661,-0.142 -1.128,-0.533c0,0 -1.053,-0.936 -1.563,-2.415c0,0 -0.532,-1.797 -0.651,-2.026c0,0 1.669,-0.179 2.413,0.048c0,0 1.81,0.198 2.41,1.279c0,0 0.678,0.746 0.764,2.49c0.208,-0.096 0.411,-0.194 0.63,-0.277c1.599,-0.612 2.877,-1.188 3.899,-1.706c-0.423,-3.042 -1.996,-6.994 -7.313,-7.188c0,0 -8.322,0.635 -6.841,10.63c0,0 -1.163,-0.422 -1.163,0.794c0,1.218 1.003,3.808 1.003,3.808c0,0 0.671,1.395 1.288,0.248c0,0 0.282,2.821 1.551,3.949l0,1.834c0,0 -1.106,1.551 -4.209,2.821c-3.103,1.269 -5.077,4.937 -5.077,4.937l0,4.231l15.026,0c-3.221,-5.213 -5.523,-13.173 -3.711,-18.668" style="fill:#fff;fill-rule:nonzero;"/><path d="M52.507,19.29c0,0 -2.668,1.432 -4.656,-0.233c0,0 -1.539,-1.369 -2.281,-3.53c0,0 -0.78,-2.621 -0.952,-2.955c0,0 2.437,-0.262 3.522,0.071c0,0 2.643,0.288 3.519,1.867c0,0 1.211,1.295 1.138,4.424l-0.29,0.356Z" style="fill:#fff;fill-rule:nonzero;"/><path d="M45.221,12.956c0.271,0.8 0.666,2.119 0.764,2.448c0.688,2.004 2.139,3.317 2.153,3.33c0.548,0.458 1.23,0.695 2.014,0.695c0.976,0 1.827,-0.368 2.078,-0.486l0.135,-0.166c0.029,-2.812 -1.012,-3.961 -1.024,-3.972l-0.061,-0.086c-0.63,-1.136 -2.515,-1.572 -3.188,-1.646c-0.303,-0.084 -0.749,-0.167 -1.609,-0.167c-0.466,0.002 -0.922,0.027 -1.262,0.05m4.931,7.34c-0.993,0 -1.86,-0.306 -2.581,-0.906c-0.076,-0.067 -1.642,-1.481 -2.412,-3.72c-0.384,-1.287 -0.831,-2.712 -0.927,-2.902l-0.284,-0.562l0.625,-0.066c0.039,-0.003 0.943,-0.1 1.91,-0.1c0.777,0 1.376,0.062 1.783,0.188l0.001,0c0.067,0 2.761,0.32 3.747,2.03c0.225,0.267 1.286,1.698 1.216,4.685l-0.003,0.149l-0.515,0.58c-0.047,0.026 -1.178,0.624 -2.56,0.624" style="fill:#fff;fill-rule:nonzero;"/><path d="M52.89,18.683c0,0 -1.246,-2.761 0.549,-4.629c0,0 1.47,-1.443 3.674,-2.039c0,0 2.671,-0.599 3.017,-0.747c0,0 0.092,2.447 -0.311,3.508c0,0 -0.466,2.619 -2.101,3.384c0,0 -1.375,1.119 -4.49,0.834l-0.338,-0.311Z" style="fill:#fff;fill-rule:nonzero;"/><path d="M53.413,18.575c2.765,0.218 4.023,-0.742 4.033,-0.753l0.089,-0.055c1.408,-0.66 1.854,-3.043 1.857,-3.068c0.259,-0.694 0.314,-2.007 0.313,-2.854c-0.816,0.213 -2.161,0.518 -2.496,0.593c-2.044,0.553 -3.452,1.911 -3.466,1.924c-1.405,1.463 -0.657,3.637 -0.489,4.067l0.159,0.146Zm0.802,0.9c-0.32,0 -0.661,-0.015 -1.029,-0.048l-0.146,-0.015l-0.547,-0.55c-0.054,-0.124 -1.344,-3.053 0.633,-5.11c0.072,-0.073 1.585,-1.537 3.873,-2.156c1.311,-0.292 2.765,-0.643 2.96,-0.726l0.579,-0.247l0.023,0.629c0.004,0.103 0.092,2.548 -0.338,3.679c0,0.037 -0.498,2.728 -2.28,3.602c-0.248,0.179 -1.433,0.942 -3.728,0.942" style="fill:#fff;fill-rule:nonzero;"/><path d="M46.009,29.986l-0.103,-1.896c3.102,-1.542 4.031,-2.636 4.04,-2.647l0.216,-0.224c3.099,-3.349 1.72,-6.346 1.682,-6.483l1.504,0.217c0.046,0.16 1.078,3.969 -2.468,7.82c-0.186,0.241 -1.709,1.64 -4.871,3.213" style="fill:#fff;fill-rule:nonzero;"/></g></svg>