<?xml version="1.0" encoding="UTF-8" standalone="no"?><!DOCTYPE svg PUBLIC "-//W3C//DTD SVG 1.1//EN" "http://www.w3.org/Graphics/SVG/1.1/DTD/svg11.dtd"><svg width="100%" height="100%" viewBox="0 0 78 78" version="1.1" xmlns="http://www.w3.org/2000/svg" xmlns:xlink="http://www.w3.org/1999/xlink" xml:space="preserve" xmlns:serif="http://www.serif.com/" style="fill-rule:evenodd;clip-rule:evenodd;stroke-linejoin:round;stroke-miterlimit:1.41421;"><g id="places-icon"><circle cx="39.104" cy="39.046" r="38.893" style="fill:#6b2a7d;"/><path d="M15.257,53.609l14.988,0l0,-28.766l-14.988,-7.977l0,36.743Zm15.582,0.594l-16.176,0l0,-38.324l16.176,8.608l0,29.716Z" style="fill:#fff;fill-rule:nonzero;"/><path d="M15.184,53.682l15.134,0l0,-28.881l-15.134,-8.056l0,36.937Zm15.582,0.448l-16.03,0l0,-38.129l16.03,8.532l0,29.597Z" style="fill:#fff;fill-rule:nonzero;"/><path d="M15.481,53.385l14.541,0l0,-28.406l-14.541,-7.74l0,36.146Zm15.583,1.041l-16.625,0l0,-38.921l16.625,8.849l0,30.072Z" style="fill:#fff;fill-rule:nonzero;"/><path d="M33.327,27.898l0,26.305l3.541,0.008c-0.015,-0.199 -0.139,-0.41 -0.222,-0.614l-2.725,0.012l0,-25.117l13.684,0l0,25.117l-9.577,0c0.018,0.197 0.21,0.395 0.195,0.594l9.975,0l0,-26.305l-14.871,0Z" style="fill:#fff;fill-rule:nonzero;"/><path d="M33.4,27.971l0,26.159l1.542,0c0.006,-0.153 0.02,-0.303 0.047,-0.448l-1.141,0l0,-25.263l13.829,0l0,25.263l-6.783,0c0.028,0.145 0.041,0.295 0.046,0.448l7.185,0l0,-26.159l-14.725,0Z" style="fill:#fff;fill-rule:nonzero;"/><path d="M51.375,53.609l13.136,0l0,-9.869l-6.41,-7.295l-6.726,7.432l0,9.732Zm13.73,0.594l-14.324,0l0,-10.556l7.326,-8.093l6.998,7.962l0,10.687Z" style="fill:#fff;fill-rule:nonzero;"/><path d="M51.301,53.682l13.282,0l0,-9.969l-6.482,-7.377l-6.8,7.513l0,9.833Zm13.729,0.448l-14.176,0l0,-10.454l7.252,-8.012l6.924,7.88l0,10.586Z" style="fill:#fff;fill-rule:nonzero;"/><path d="M48.056,37.188l-0.523,-0.727c0.158,-0.114 0.313,-0.229 0.462,-0.344c7.168,-5.531 3.15,-13.139 3.109,-13.216l0.786,-0.428c0.045,0.084 4.417,8.361 -3.347,14.353c-0.157,0.122 -0.32,0.243 -0.487,0.362" style="fill:#fff;fill-rule:nonzero;"/><path d="M47.946,36.527l0.176,0.244c0.081,-0.059 0.161,-0.121 0.24,-0.181c6.776,-5.229 4.059,-12.258 3.396,-13.707l-0.265,0.145c0.645,1.425 3.254,8.253 -3.316,13.323c-0.076,0.06 -0.153,0.117 -0.231,0.176m-0.007,1.311c-0.034,-0.011 0.06,-0.501 0.033,-0.526c-0.363,-0.343 0.016,-1.553 0.016,-1.553c0.773,-0.672 1.841,-1.743 2.406,-2.598c1.912,-2.894 2.1,-7.037 0.449,-10.119l-0.139,-0.259l1.304,-0.711l0.142,0.259c0.629,1.133 0.98,2.489 1.177,3.758c0.343,2.22 0.084,4.515 -0.894,6.549c-0.634,1.321 -1.543,2.49 -2.609,3.489c-0.514,0.482 -1.765,1.747 -1.885,1.711" style="fill:#fff;fill-rule:nonzero;"/><path d="M52.755,29.511c0,0 2.281,-1.479 4.427,-0.471c0,0 1.669,0.841 2.725,2.408c0,0 1.16,1.917 1.379,2.154c0,0 -2.253,0.541 -3.331,0.437c0,0 -2.533,0.145 -3.616,-0.952c0,0 -1.352,-0.832 -1.794,-3.261l0.21,-0.315Z" style="fill:#fff;fill-rule:nonzero;"/><path d="M57.939,33.742c0.13,0.01 0.224,0.014 0.324,0.014c0.772,0 1.906,-0.217 2.521,-0.347c-0.384,-0.576 -0.983,-1.564 -1.132,-1.81c-0.989,-1.468 -2.588,-2.287 -2.604,-2.295c-0.45,-0.211 -0.953,-0.321 -1.488,-0.321c-1.262,0 -2.352,0.603 -2.594,0.747l-0.107,0.16c0.434,2.179 1.624,2.936 1.637,2.944l0.055,0.043c0.797,0.807 2.583,0.871 3.112,0.871c0.169,0 0.272,-0.006 0.276,-0.006m0.324,0.607c-0.116,0 -0.226,-0.003 -0.326,-0.013c-0.006,0.003 -0.114,0.007 -0.274,0.007c-0.746,0 -2.572,-0.101 -3.513,-1.025c-0.223,-0.151 -1.47,-1.09 -1.899,-3.437l-0.021,-0.118l0.363,-0.501c0.054,-0.037 1.361,-0.871 2.966,-0.871c0.624,0 1.212,0.127 1.749,0.379c0.077,0.039 1.757,0.898 2.844,2.511c0.483,0.797 1.214,1.971 1.352,2.12l0.344,0.372l-0.493,0.117c-0.078,0.02 -1.922,0.459 -3.092,0.459" style="fill:#fff;fill-rule:nonzero;"/><path d="M51.405,23.336c0,0 -2.097,1.706 -4.345,0.928c0,0 -1.757,-0.665 -2.982,-2.115c0,0 -1.375,-1.788 -1.615,-1.998c0,0 2.174,-0.771 3.258,-0.779c0,0 2.504,-0.408 3.705,0.571c0,0 1.438,0.689 2.155,3.056l-0.176,0.337Z" style="fill:#fff;fill-rule:nonzero;"/><path d="M42.984,20.29c0.447,0.532 1.154,1.451 1.329,1.679c1.154,1.363 2.836,2.009 2.853,2.015c0.351,0.122 0.73,0.186 1.12,0.186c1.431,0 2.64,-0.845 2.887,-1.028l0.088,-0.17c-0.675,-2.106 -1.951,-2.755 -1.964,-2.761l-0.059,-0.036c-0.597,-0.488 -1.593,-0.589 -2.324,-0.589c-0.642,0 -1.141,0.079 -1.146,0.079c-0.775,0.009 -2.107,0.405 -2.784,0.625m5.302,4.474c-0.455,0 -0.901,-0.076 -1.323,-0.221c-0.082,-0.031 -1.851,-0.712 -3.111,-2.202c-0.573,-0.744 -1.434,-1.835 -1.585,-1.966l-0.383,-0.333l0.479,-0.171c0.092,-0.032 2.236,-0.786 3.356,-0.796c-0.022,0 0.504,-0.084 1.197,-0.084c0.818,0 1.94,0.123 2.673,0.703c0.238,0.126 1.584,0.93 2.276,3.219l0.036,0.116l-0.308,0.537c-0.06,0.049 -1.493,1.198 -3.307,1.198" style="fill:#fff;fill-rule:nonzero;"/><path d="M51.401,22.922c0,0 -1.237,-2.352 0.1,-4.244c0,0 1.1,-1.465 2.87,-2.25c0,0 2.15,-0.84 2.425,-1.015c0,0 0.263,2.197 0.009,3.202c0,0 -0.188,2.415 -1.474,3.288c0,0 -1.047,1.17 -3.632,1.261l-0.298,-0.242Z" style="fill:#fff;fill-rule:nonzero;"/><path d="M51.639,22.732l0.16,0.129c2.328,-0.112 3.303,-1.147 3.312,-1.157l0.053,-0.047c1.151,-0.782 1.343,-3.044 1.346,-3.067c0.178,-0.722 0.092,-2.053 0.032,-2.728c-0.643,0.284 -1.784,0.732 -2.063,0.841c-1.662,0.738 -2.731,2.137 -2.742,2.151c-1.109,1.572 -0.261,3.537 -0.098,3.878m-0.041,0.731l-0.46,-0.403c-0.054,-0.103 -1.306,-2.536 0.12,-4.555c0.051,-0.069 1.172,-1.542 2.991,-2.349c0.834,-0.327 2.204,-0.879 2.388,-0.993l0.397,-0.252l0.056,0.467c0.011,0.092 0.266,2.264 0.002,3.309c0,0.055 -0.204,2.486 -1.568,3.443c-0.189,0.194 -1.33,1.244 -3.815,1.331l-0.111,0.002Z" style="fill:#fff;fill-rule:nonzero;"/><path d="M35.929,46.156c0.812,-2.881 2.852,-5.261 6.394,-7.032c-0.883,-0.193 -2.234,-0.69 -2.942,-2.101c0,0 -0.884,-1.613 -0.695,-3.466c0,0 0.447,-2.223 0.43,-2.541c0,0 2.355,0.786 3.133,1.502c0,0 1.852,1.498 1.992,2.996c0,0 0.575,1.079 -0.248,2.906c1.662,-0.727 2.754,-1.293 3.908,-2.236l0,-7.989l-14.278,0l0,25.712l3.16,0c-0.834,-1.841 -1.703,-4.735 -0.854,-7.751" style="fill:#fff;fill-rule:nonzero;"/><path d="M44.228,39.669c-2.453,1.06 -4.29,2.188 -5.542,3.715c0.791,-0.164 2.216,-0.289 3.34,0.601c0,0 1.256,1.066 1.819,2.635c0,0 0.445,1.597 0.507,2.138c0,0 -2.084,0.205 -2.994,-0.096c0,0 -1.831,-0.432 -2.524,-1.597c0,0 -0.556,-0.741 -0.86,-2.329c-0.329,0.575 -0.586,1.173 -0.764,1.802c-0.83,2.938 0.188,5.832 0.999,7.499l9.692,-0.13l0,-16.316c-1.21,1.003 -1.819,1.278 -3.673,2.078" style="fill:#fff;fill-rule:nonzero;"/><path d="M22.959,26.561l-5.921,0l0,-2.391l5.921,0l0,2.391Zm0,4.448l-5.921,0l0,-2.391l5.921,0l0,2.391Zm0,4.346l-5.921,0l0,-2.391l5.921,0l0,2.391Zm0,4.447l-5.921,0l0,-2.391l5.921,0l0,2.391Zm-7.999,-23.43l0,37.535l15.582,0l0,-29.242l-15.582,-8.293Z" style="fill:#fff;fill-rule:nonzero;"/><path d="M57.713,46.626l-3.917,0l0,-3.346l3.917,0l0,3.346Zm0.39,-10.626l-7.025,7.763l0,10.144l7.807,0l0,-5.219l3.38,0l0,5.219l2.543,0l0,-10.277l-6.705,-7.63Z" style="fill:#fff;fill-rule:nonzero;"/></g></svg>