<?xml version="1.0" encoding="UTF-8" standalone="no"?><!DOCTYPE svg PUBLIC "-//W3C//DTD SVG 1.1//EN" "http://www.w3.org/Graphics/SVG/1.1/DTD/svg11.dtd"><svg width="100%" height="100%" viewBox="0 0 78 78" version="1.1" xmlns="http://www.w3.org/2000/svg" xmlns:xlink="http://www.w3.org/1999/xlink" xml:space="preserve" xmlns:serif="http://www.serif.com/" style="fill-rule:evenodd;clip-rule:evenodd;stroke-linejoin:round;stroke-miterlimit:1.41421;"><g id="training-icon"><ellipse cx="39.034" cy="38.897" rx="38.894" ry="38.893" style="fill:#6b2a7d;"/><path d="M54.4,20.906c-2.705,-3.018 -6.283,-5.82 -15.12,-5.886c-3.453,-0.027 -8.724,0.788 -12.825,5.126c-2.481,2.621 -4.313,5.928 -3.787,11.337c0.114,1.175 1.789,2.531 0.609,4.8c0,0 -2.527,4.448 -2.44,5.189c0,0 -0.046,1.355 2.049,1.397c0,0 0.523,0.067 0.373,1.221l-0.024,1.682c0,0 0.066,0.504 0.982,0.807c0,0 0.173,0.171 -0.086,0.503c0,0 -0.484,0.538 0.346,1.701c0.309,0.427 0.807,0.961 0.502,2.049c0,0 -0.392,2.118 0.436,2.618c0,0 0.943,1.118 4.734,0.652c1.322,-0.164 3.774,-0.804 5.233,1.027c0,0 3.49,6.63 3.754,8.201c0,0 5.958,-10.599 13.22,-12.236c0,0 -1.769,-3.992 1.834,-9.164c0,0 4.512,-5.952 4.647,-9.226c0.002,-0.001 1.193,-5.516 -4.437,-11.798" style="fill:#fff;fill-rule:nonzero;"/><path d="M44.871,57.948c-6.244,-4.392 -8.131,-9.853 -5.765,-16.695c0.177,-0.506 0.368,-1.034 0.565,-1.575c1.686,-4.628 3.595,-9.874 -0.727,-12.891l1.055,-1.513c5.486,3.83 3.126,10.307 1.405,15.034c-0.194,0.534 -0.383,1.049 -0.554,1.547c-2.089,6.042 -0.473,10.678 5.083,14.585l-1.062,1.508Z" style="fill:#6b2a7d;fill-rule:nonzero;"/><path d="M36.692,49.572c-0.418,0.119 -0.834,0.146 -1.242,0.083c-0.059,-0.011 -1.334,-0.251 -2.369,-1.107c-0.592,-0.538 -1.159,-1.03 -1.246,-1.083l-0.524,-0.314l0.53,-0.303c0.012,-0.005 1.354,-0.774 2.123,-0.928c0.039,-0.014 0.099,-0.032 0.202,-0.061c0.488,-0.14 1.713,-0.416 2.531,0.024c0.162,0.044 1.179,0.43 1.929,1.9l0.066,0.135l-0.188,0.502c-0.078,0.087 -0.767,0.853 -1.812,1.152" style="fill:#6b2a7d;fill-rule:nonzero;"/><path d="M36.971,29.233c-0.738,-0.031 -1.43,-0.214 -2.058,-0.536c-0.088,-0.048 -2.022,-1.123 -3.239,-3.071c-0.669,-1.189 -1.321,-2.292 -1.433,-2.427l-0.68,-0.789l1.02,-0.205c0.023,-0.003 2.613,-0.522 3.942,-0.36c0.069,-0.001 0.178,0.002 0.36,0.01c0.866,0.037 2.999,0.25 4.087,1.403c0.237,0.162 1.678,1.334 2.099,4.121l0.039,0.252l-0.581,0.712c-0.169,0.099 -1.702,0.972 -3.556,0.89" style="fill:#6b2a7d;fill-rule:nonzero;"/><path d="M43.22,40.58c-0.567,-0.403 -1.095,-0.933 -1.569,-1.574l-0.116,-0.155l0.104,-0.732c0.052,-0.102 1.316,-2.472 3.769,-2.438c0.199,0.01 1.916,0.115 3.507,1.09c0.975,0.663 1.865,1.241 1.998,1.299l0.732,0.314l-0.599,0.524c-0.273,0.239 -1.668,1.432 -2.593,1.785c-0.281,0.16 -2.187,1.175 -3.664,0.62c-0.127,-0.016 -0.77,-0.164 -1.569,-0.733" style="fill:#6b2a7d;fill-rule:nonzero;"/><path d="M43.517,27.267c-0.798,-0.034 -1.637,-0.217 -2.492,-0.537l-0.207,-0.077l-0.359,-0.77c-0.012,-0.13 -0.272,-3.199 2.108,-4.697c0.198,-0.115 1.916,-1.083 4.057,-1.136c1.351,0.029 2.568,0.029 2.734,0.002l0.898,-0.152l-0.25,0.876c-0.112,0.402 -0.712,2.42 -1.383,3.337c-0.17,0.328 -1.374,2.493 -3.138,2.881c-0.133,0.061 -0.845,0.321 -1.968,0.273" style="fill:#6b2a7d;fill-rule:nonzero;"/></g></svg>