<?xml version="1.0" encoding="UTF-8" standalone="no"?><!DOCTYPE svg PUBLIC "-//W3C//DTD SVG 1.1//EN" "http://www.w3.org/Graphics/SVG/1.1/DTD/svg11.dtd"><svg width="100%" height="100%" viewBox="0 0 593 240" version="1.1" xmlns="http://www.w3.org/2000/svg" xmlns:xlink="http://www.w3.org/1999/xlink" xml:space="preserve" xmlns:serif="http://www.serif.com/" style="fill-rule:evenodd;clip-rule:evenodd;stroke-miterlimit:10;"><rect id="footer" x="0" y="0" width="592.56" height="239.04" style="fill:none;"/><clipPath id="_clip1"><rect x="0" y="0" width="592.56" height="239.04"/></clipPath><g clip-path="url(#_clip1)"><g id="footer-section" serif:id="footer section"><rect x="0" y="0" width="595.281" height="199.667" style="fill:#6d6e70;"/><path d="M103.959,34.738l92.542,0" style="fill:none;stroke:#fff;stroke-width:5px;"/><path d="M240.959,34.738l92.542,0" style="fill:none;stroke:#fff;stroke-width:5px;"/><g transform="matrix(1,0,0,1,0,-2364.06)"><text x="103.5px" y="2420.3px" style="font-family:'Aller-Bold', 'Aller';font-weight:700;font-size:15px;fill:#fff;">Quick links</text><text x="110.25px" y="2452.37px" style="font-family:'Aller-Light', 'Aller Light';font-size:11px;fill:#fff;">Co<tspan x="123.362px " y="2452.37px ">n</tspan>tact us</text></g><text x="240.5px" y="56.238px" style="font-family:'Aller-Bold', 'Aller';font-weight:700;font-size:15px;fill:#fff;">Social media</text><g transform="matrix(1,0,0,1,0,-2364.06)"><text x="247.833px" y="2452.37px" style="font-family:'Aller-Light', 'Aller Light';font-size:11px;fill:#fff;">Fa<tspan x="258.998px 264.278px 270.361px " y="2452.37px 2452.37px 2452.37px ">ceb</tspan>ook</text><text x="247.833px" y="2470.37px" style="font-family:'Aller-Light', 'Aller Light';font-size:11px;fill:#fff;">Tw<tspan x="261.55px " y="2470.37px ">i</tspan>tter</text><text x="247.833px" y="2488.37px" style="font-family:'Aller-Light', 'Aller Light';font-size:11px;fill:#fff;">Li<tspan x="256.303px " y="2488.37px ">n</tspan>ke<tspan x="274.2px " y="2488.37px ">d</tspan>In</text><text x="247.833px" y="2507.03px" style="font-family:'Aller-Light', 'Aller Light';font-size:11px;fill:#fff;">Yo<tspan x="260.461px " y="2507.03px ">u</tspan></text><text x="266.786px" y="2507.03px" style="font-family:'Aller-Light', 'Aller Light';font-size:11px;fill:#fff;">T</text><text x="270.731px" y="2507.03px" style="font-family:'Aller-Light', 'Aller Light';font-size:11px;fill:#fff;">ube</text></g><path d="M103.309,86.696l2.69,-2.69l-2.722,-2.722" style="fill:none;stroke:#fff;stroke-width:0.5px;"/><path d="M240.642,86.696l2.69,-2.69l-2.722,-2.722" style="fill:none;stroke:#fff;stroke-width:0.5px;"/><path d="M240.642,104.696l2.69,-2.69l-2.722,-2.722" style="fill:none;stroke:#fff;stroke-width:0.5px;"/><path d="M240.642,122.696l2.69,-2.69l-2.722,-2.722" style="fill:none;stroke:#fff;stroke-width:0.5px;"/><path d="M240.642,141.363l2.69,-2.69l-2.722,-2.722" style="fill:none;stroke:#fff;stroke-width:0.5px;"/><path d="M370.959,34.738l92.541,0" style="fill:none;stroke:#fff;stroke-width:5px;"/><path d="M370.642,86.696l2.69,-2.69l-2.722,-2.722" style="fill:none;stroke:#fff;stroke-width:0.5px;"/><path d="M370.642,104.696l2.69,-2.69l-2.722,-2.722" style="fill:none;stroke:#fff;stroke-width:0.5px;"/><path d="M370.642,122.696l2.69,-2.69l-2.722,-2.722" style="fill:none;stroke:#fff;stroke-width:0.5px;"/><path d="M103.309,104.696l2.69,-2.69l-2.722,-2.722" style="fill:none;stroke:#fff;stroke-width:0.5px;"/><path d="M103.309,122.363l2.69,-2.69l-2.722,-2.722" style="fill:none;stroke:#fff;stroke-width:0.5px;"/><path d="M103.309,140.363l2.69,-2.69l-2.722,-2.722" style="fill:none;stroke:#fff;stroke-width:0.5px;"/><g transform="matrix(1,0,0,1,0,-2364.06)"><text x="370.5px" y="2420.3px" style="font-family:'Aller-Bold', 'Aller';font-weight:700;font-size:15px;fill:#fff;">Ke<tspan x="388.215px " y="2420.3px ">e</tspan>p in touch</text><text x="377.583px" y="2452.37px" style="font-family:'Aller-Light', 'Aller Light';font-size:11px;fill:#fff;">New<tspan x="399.506px " y="2452.37px ">s</tspan>letter</text><text x="377.583px" y="2470.37px" style="font-family:'Aller-Light', 'Aller Light';font-size:11px;fill:#fff;">Eve<tspan x="395.337px " y="2470.37px ">n</tspan>ts</text><text x="377.583px" y="2488.37px" style="font-family:'Aller-Light', 'Aller Light';font-size:11px;fill:#fff;">RS<tspan x="389.661px " y="2488.37px ">S</tspan></text></g><g transform="matrix(1,0,0,1,0,-2364.06)"><text x="110.5px" y="2470.37px" style="font-family:'Aller-Light', 'Aller Light';font-size:11px;fill:#fff;">About us Wo<tspan x="173.222px " y="2470.37px ">r</tspan>k</text><text x="110.5px" y="2488.37px" style="font-family:'Aller-Light', 'Aller Light';font-size:11px;fill:#fff;">with us Eve<tspan x="166.347px " y="2488.37px ">n</tspan>t</text><text x="110.5px" y="2506.37px" style="font-family:'Aller-Light', 'Aller Light';font-size:11px;fill:#fff;">Ca<tspan x="122.941px " y="2506.37px ">l</tspan>endar New<tspan x="178.986px " y="2506.37px ">s</tspan></text></g><g transform="matrix(1,0,0,1,0,-2364.06)"><text x="190.503px" y="2585.46px" style="font-family:'Aller-Light', 'Aller Light';font-size:8px;fill:#a5a7aa;">2018 ʩ E</text><text x="226.935px" y="2585.46px" style="font-family:'Aller-Light', 'Aller Light';font-size:8px;fill:#a5a7aa;">xc</text><text x="234.495px" y="2585.46px" style="font-family:'Aller-Light', 'Aller Light';font-size:8px;fill:#a5a7aa;">ept Int</text><text x="257.799px" y="2585.46px" style="font-family:'Aller-Light', 'Aller Light';font-size:8px;fill:#a5a7aa;">e</text><text x="262.123px" y="2585.46px" style="font-family:'Aller-Light', 'Aller Light';font-size:8px;fill:#a5a7aa;">g</text><text x="266.411px" y="2585.46px" style="font-family:'Aller-Light', 'Aller Light';font-size:8px;fill:#a5a7aa;">r</text><text x="269.111px" y="2585.46px" style="font-family:'Aller-Light', 'Aller Light';font-size:8px;fill:#a5a7aa;">ated Sustainability B.V.<tspan x="350.319px " y="2585.46px "> </tspan>- Privacy Po<tspan x="393.815px " y="2585.46px ">l</tspan>icy</text></g></g></g></svg>