<?xml version="1.0" encoding="UTF-8" standalone="no"?><!DOCTYPE svg PUBLIC "-//W3C//DTD SVG 1.1//EN" "http://www.w3.org/Graphics/SVG/1.1/DTD/svg11.dtd"><svg width="100%" height="100%" viewBox="0 0 596 399" version="1.1" xmlns="http://www.w3.org/2000/svg" xmlns:xlink="http://www.w3.org/1999/xlink" xml:space="preserve" xmlns:serif="http://www.serif.com/" style="fill-rule:evenodd;clip-rule:evenodd;stroke-miterlimit:10;"><g id="content-innovation" serif:id="content innovation"><g id="down-btn" serif:id="down btn"><rect x="103.499" y="379.226" width="46.834" height="18.859" style="fill:#6b2a7e;"/><path d="M124.034,386.357l3.322,3.321l3.362,-3.361" style="fill:none;stroke:#fff;stroke-width:0.88px;"/></g><g id="about-btn" serif:id="about btn"><rect x="103.333" y="354.941" width="75.833" height="18.834" style="fill:#a5a7aa;"/><path d="M170.36,367.964l3.321,-3.322l-3.362,-3.362" style="fill:none;stroke:#fff;stroke-width:0.88px;"/><text x="110.708px" y="366.821px" style="font-family:'Aller';font-size:8px;fill:#fff;">M<tspan x="116.836px 122.268px 126.644px 130.532px 132.028px 136.564px 140.924px 146.356px 151.348px 155.156px 156.652px 161.644px " y="366.821px 366.821px 366.821px 366.821px 366.821px 366.821px 366.821px 366.821px 366.821px 366.821px 366.821px 366.821px ">ORE ABOUT US</tspan></text></g><g transform="matrix(1,0,0,1,1.08641e-13,-564.642)"><text x="104.063px" y="883.582px" style="font-family:'Aller-Light', 'Aller Light';font-size:8px;fill:#231f20;">We<tspan x="115.855px " y="883.582px "> </tspan>inject p</text><text x="144.527px" y="883.582px" style="font-family:'Aller-Light', 'Aller Light';font-size:8px;fill:#231f20;">r</text><text x="147.227px" y="883.582px" style="font-family:'Aller-Light', 'Aller Light';font-size:8px;fill:#231f20;">ojects</text><text x="170.395px" y="883.582px" style="font-family:'Aller-Light', 'Aller Light';font-size:8px;fill:#231f20;">with deep scien</text><text x="226.763px" y="883.582px" style="font-family:'Aller-Light', 'Aller Light';font-size:8px;fill:#231f20;">ce</text><text x="234.827px" y="883.582px" style="font-family:'Aller-Light', 'Aller Light';font-size:8px;fill:#231f20;">, bespoke<tspan x="268.971px " y="883.582px "> </tspan>design, and emp</text><text x="329.563px" y="883.582px" style="font-family:'Aller-Light', 'Aller Light';font-size:8px;fill:#231f20;">ow</text><text x="339.971px" y="883.582px" style="font-family:'Aller-Light', 'Aller Light';font-size:8px;fill:#231f20;">er them</text><text x="104.063px" y="895.582px" style="font-family:'Aller-Light', 'Aller Light';font-size:8px;fill:#231f20;">with a smart business<tspan x="180.927px " y="895.582px "> </tspan>st</text><text x="189.255px" y="895.582px" style="font-family:'Aller-Light', 'Aller Light';font-size:8px;fill:#231f20;">r</text><text x="191.955px" y="895.582px" style="font-family:'Aller-Light', 'Aller Light';font-size:8px;fill:#231f20;">at</text><text x="198.771px" y="895.582px" style="font-family:'Aller-Light', 'Aller Light';font-size:8px;fill:#231f20;">e</text><text x="203.095px" y="895.582px" style="font-family:'Aller-Light', 'Aller Light';font-size:8px;fill:#231f20;">gy.<tspan x="213.143px " y="895.582px "> </tspan>With lean p</text><text x="256.031px" y="895.582px" style="font-family:'Aller-Light', 'Aller Light';font-size:8px;fill:#231f20;">r</text><text x="258.731px" y="895.582px" style="font-family:'Aller-Light', 'Aller Light';font-size:8px;fill:#231f20;">oject mana</text><text x="297.995px" y="895.582px" style="font-family:'Aller-Light', 'Aller Light';font-size:8px;fill:#231f20;">g</text><text x="302.183px" y="895.582px" style="font-family:'Aller-Light', 'Aller Light';font-size:8px;fill:#231f20;">ement</text><text x="327.007px" y="895.582px" style="font-family:'Aller-Light', 'Aller Light';font-size:8px;fill:#231f20;">w</text><text x="332.923px" y="895.582px" style="font-family:'Aller-Light', 'Aller Light';font-size:8px;fill:#231f20;">e deli</text><text x="352.867px" y="895.582px" style="font-family:'Aller-Light', 'Aller Light';font-size:8px;fill:#231f20;">v</text><text x="356.835px" y="895.582px" style="font-family:'Aller-Light', 'Aller Light';font-size:8px;fill:#231f20;">er</text><text x="104.063px" y="907.582px" style="font-family:'Aller-Light', 'Aller Light';font-size:8px;fill:#231f20;">c</text><text x="107.803px" y="907.582px" style="font-family:'Aller-Light', 'Aller Light';font-size:8px;fill:#231f20;">onc</text><text x="120.811px" y="907.582px" style="font-family:'Aller-Light', 'Aller Light';font-size:8px;fill:#231f20;">r</text><text x="123.511px" y="907.582px" style="font-family:'Aller-Light', 'Aller Light';font-size:8px;fill:#231f20;">ete</text><text x="137.071px" y="907.582px" style="font-family:'Aller-Light', 'Aller Light';font-size:8px;fill:#231f20;">r</text><text x="139.771px" y="907.582px" style="font-family:'Aller-Light', 'Aller Light';font-size:8px;fill:#231f20;">esults</text><text x="162.971px" y="907.582px" style="font-family:'Aller-Light', 'Aller Light';font-size:8px;fill:#231f20;">f</text><text x="165.571px" y="907.582px" style="font-family:'Aller-Light', 'Aller Light';font-size:8px;fill:#231f20;">or n</text><text x="179.539px" y="907.582px" style="font-family:'Aller-Light', 'Aller Light';font-size:8px;fill:#231f20;">o</text><text x="184.031px" y="907.582px" style="font-family:'Aller-Light', 'Aller Light';font-size:8px;fill:#231f20;">w and</text><text x="207.407px" y="907.582px" style="font-family:'Aller-Light', 'Aller Light';font-size:8px;fill:#231f20;">f</text><text x="210.007px" y="907.582px" style="font-family:'Aller-Light', 'Aller Light';font-size:8px;fill:#231f20;">or</text><text x="219.399px" y="907.582px" style="font-family:'Aller-Light', 'Aller Light';font-size:8px;fill:#231f20;">g</text><text x="223.587px" y="907.582px" style="font-family:'Aller-Light', 'Aller Light';font-size:8px;fill:#231f20;">ene</text><text x="237.011px" y="907.582px" style="font-family:'Aller-Light', 'Aller Light';font-size:8px;fill:#231f20;">r</text><text x="239.711px" y="907.582px" style="font-family:'Aller-Light', 'Aller Light';font-size:8px;fill:#231f20;">ations to</text><text x="272.799px" y="907.582px" style="font-family:'Aller-Light', 'Aller Light';font-size:8px;fill:#231f20;">c</text><text x="276.539px" y="907.582px" style="font-family:'Aller-Light', 'Aller Light';font-size:8px;fill:#231f20;">om</text><text x="287.819px" y="907.582px" style="font-family:'Aller-Light', 'Aller Light';font-size:8px;fill:#231f20;">e</text><text x="292.143px" y="907.582px" style="font-family:'Aller-Light', 'Aller Light';font-size:8px;fill:#231f20;">.</text></g><g id="next-btn" serif:id="next btn"><g><g opacity="0.699997"><rect x="569.28" y="115.775" width="26" height="55.5" style="fill:#e5e6e7;"/></g></g><path d="M580.454,147.069l3.783,-3.783l-3.828,-3.828" style="fill:none;stroke:#231f20;stroke-width:0.5px;"/></g><g id="graphic"><g id="logo"><path d="M365.504,218.387l0.175,-0.175l0,-3.895l7.415,0l0.175,-0.175l0,-2.011l-0.175,-0.174l-7.59,0l-2.313,0l-0.176,0.174l0,6.081l0.176,0.175l2.313,0Z" style="fill:#6b2a7e;fill-rule:nonzero;"/><path d="M367.655,218.37l0,2.008l0.176,0.174l2.312,0l0.174,-0.174l0,-2.008l-0.174,-0.179l-2.312,0l-0.176,0.179Z" style="fill:#6b2a7e;fill-rule:nonzero;"/><path d="M365.679,224.432l0,-3.897l-0.175,-0.174l-2.312,0l-0.177,0.174l0,6.08l0.177,0.176l10.634,0l0.175,-0.176l0,-2.008l-0.175,-0.175l-8.147,0Z" style="fill:#6b2a7e;fill-rule:nonzero;"/><path d="M439.541,211.951l-10.635,0l-0.176,0.175l0,2.01l0.176,0.174l10.635,0l0.176,-0.174l0,-2.01l-0.176,-0.175Z" style="fill:#6b2a7e;fill-rule:nonzero;"/><path d="M433.065,216.19l-0.177,0.177l0,10.248l0.177,0.177l2.313,0l0.174,-0.177l0,-10.248l-0.174,-0.177l-2.313,0Z" style="fill:#6b2a7e;fill-rule:nonzero;"/><path d="M416.064,211.951l-0.179,0.175l0,14.488l0.179,0.177l2.313,0l0.173,-0.177l0,-12.304l5.659,0l0,4.945l-3.078,0l-0.175,0.176l0,2.01l0.175,0.174l5.569,0l0.175,-0.174l0,-9.31l0,-0.005l-0.175,-0.175l-10.636,0Z" style="fill:#6b2a7e;fill-rule:nonzero;"/><path d="M405.065,218.387l0.175,-0.175l0,-3.895l7.418,0l0.174,-0.175l0,-2.011l-0.174,-0.174l-7.593,0l-2.313,0l-0.175,0.174l0,6.081l0.175,0.175l2.313,0Z" style="fill:#6b2a7e;fill-rule:nonzero;"/><path d="M407.216,218.37l0,2.008l0.176,0.174l2.315,0l0.174,-0.174l0,-2.008l-0.174,-0.179l-2.315,0l-0.176,0.179Z" style="fill:#6b2a7e;fill-rule:nonzero;"/><path d="M405.239,224.432l0,-3.897l-0.175,-0.174l-2.312,0l-0.176,0.174l0,6.08l0.176,0.176l10.636,0l0.174,-0.176l0,-2.008l-0.174,-0.175l-8.149,0Z" style="fill:#6b2a7e;fill-rule:nonzero;"/><path d="M392.651,218.387l0.173,-0.175l0,-3.895l6.606,0l0.176,-0.175l0,-2.011l-0.176,-0.174l-6.779,0l-2.314,0l-0.176,0.174l0,6.081l0.176,0.175l2.314,0Z" style="fill:#6b2a7e;fill-rule:nonzero;"/><path d="M392.824,224.432l0,-3.897l-0.173,-0.174l-2.314,0l-0.176,0.174l0,6.08l0.176,0.176l9.824,0l0.176,-0.176l0,-2.008l-0.176,-0.175l-7.337,0Z" style="fill:#6b2a7e;fill-rule:nonzero;"/><path d="M378.017,218.386l0.251,0l1.527,-1.53l0,-0.248l-1.18,-1.178l0,-3.279l-0.177,-0.176l-2.311,0l-0.177,0.176l0,4.091l0.049,0.124l2.018,2.02Z" style="fill:#6b2a7e;fill-rule:nonzero;"/><path d="M385.076,220.361l-0.25,0l-1.525,1.524l0,0.251l1.355,1.355l0,3.124l0.175,0.177l2.314,0l0.177,-0.177l0,-3.938l-0.056,-0.125l-2.19,-2.191Z" style="fill:#6b2a7e;fill-rule:nonzero;"/><path d="M384.831,211.957l-0.175,0.174l0,2.367l-8.657,8.655l0.035,0.038l-0.085,0.085l0,3.338l0.176,0.177l2.312,0l0.177,-0.177l0,-2.521l8.653,-8.657l0.055,-0.123l0,-3.182l-0.177,-0.174l-2.314,0Z" style="fill:#6b2a7e;fill-rule:nonzero;"/><path d="M363.055,230.282c0.037,-0.009 0.071,-0.017 0.111,-0.019c0.037,-0.001 0.073,-0.001 0.109,-0.001c0.081,0 0.153,0.003 0.222,0.02l0,3.651c-0.069,0.012 -0.139,0.021 -0.215,0.021c-0.04,0 -0.081,0 -0.121,-0.005c-0.04,0 -0.075,-0.007 -0.106,-0.016l0,-3.651Z" style="fill:#6b2a7e;fill-rule:nonzero;"/><path d="M364.811,230.282c0.036,-0.009 0.072,-0.017 0.112,-0.019c0.042,-0.001 0.077,-0.001 0.109,-0.001c0.066,0 0.138,0.003 0.213,0.02l2.017,2.934l0,-2.934c0.008,0 0.018,0 0.028,-0.003c0.008,-0.004 0.017,-0.004 0.027,-0.004c0.023,-0.006 0.045,-0.01 0.078,-0.012c0.027,-0.001 0.054,-0.001 0.074,-0.001c0.033,0 0.067,0 0.104,0.001c0.039,0.002 0.071,0.01 0.097,0.019l0,3.651c-0.03,0.009 -0.063,0.016 -0.101,0.016c-0.039,0.005 -0.076,0.005 -0.112,0.005c-0.026,0 -0.058,0 -0.097,-0.005c-0.037,0 -0.073,-0.007 -0.111,-0.016l-2.026,-2.922l0,2.922c-0.064,0.012 -0.135,0.021 -0.205,0.021c-0.072,0 -0.141,-0.009 -0.207,-0.021l0,-3.651Z" style="fill:#6b2a7e;fill-rule:nonzero;"/><path d="M369.661,230.678l-1.238,0c-0.008,-0.03 -0.009,-0.063 -0.012,-0.1c-0.004,-0.031 -0.004,-0.066 -0.004,-0.101c0,-0.031 0,-0.067 0.004,-0.1c0.003,-0.038 0.004,-0.071 0.012,-0.095l2.919,0c0.004,0.024 0.009,0.057 0.011,0.089c0.003,0.034 0.003,0.069 0.003,0.106c0,0.03 0,0.062 -0.003,0.097c-0.002,0.038 -0.007,0.074 -0.011,0.104l-1.24,0l0,3.255c-0.007,0 -0.019,0 -0.025,0.005c-0.01,0.001 -0.02,0.001 -0.027,0.001c-0.025,0.006 -0.051,0.01 -0.082,0.01c-0.03,0.002 -0.059,0.004 -0.078,0.004c-0.038,0 -0.078,-0.002 -0.118,-0.004c-0.041,0 -0.08,-0.006 -0.111,-0.016l0,-3.255Z" style="fill:#6b2a7e;fill-rule:nonzero;"/><path d="M372.091,230.282l2.288,0c0.01,0.024 0.014,0.058 0.018,0.096c0.002,0.033 0.002,0.068 0.002,0.099c0,0.035 0,0.073 -0.002,0.106c-0.004,0.037 -0.008,0.07 -0.018,0.101l-1.844,0l0,1.104l1.549,0c0.003,0.032 0.01,0.065 0.012,0.096c0.001,0.038 0.003,0.069 0.003,0.106c0,0.029 -0.002,0.067 -0.003,0.106c-0.002,0.038 -0.009,0.068 -0.012,0.096l-1.549,0l0,1.339l1.891,0c0.004,0.031 0.008,0.064 0.012,0.098c0,0.032 0.002,0.068 0.002,0.103c0,0.031 -0.002,0.067 -0.002,0.104c-0.004,0.037 -0.008,0.073 -0.012,0.097l-2.335,0l0,-3.651Z" style="fill:#6b2a7e;fill-rule:nonzero;"/><path d="M377.669,232.062c0.035,-0.004 0.075,-0.005 0.113,-0.008c0.042,-0.002 0.078,-0.004 0.114,-0.004c0.028,0 0.061,0.002 0.099,0.004c0.038,0.003 0.073,0.004 0.109,0.008l0,1.758c-0.134,0.061 -0.3,0.107 -0.495,0.134c-0.198,0.027 -0.383,0.04 -0.555,0.04c-0.291,0 -0.555,-0.045 -0.781,-0.129c-0.23,-0.09 -0.425,-0.211 -0.588,-0.373c-0.159,-0.16 -0.284,-0.357 -0.37,-0.587c-0.088,-0.231 -0.133,-0.49 -0.133,-0.78c0,-0.298 0.045,-0.562 0.133,-0.799c0.086,-0.235 0.212,-0.437 0.372,-0.606c0.166,-0.167 0.362,-0.296 0.592,-0.385c0.231,-0.091 0.484,-0.134 0.769,-0.134c0.197,0 0.375,0.014 0.531,0.039c0.153,0.025 0.281,0.057 0.378,0.088c-0.009,0.066 -0.021,0.129 -0.037,0.186c-0.017,0.056 -0.038,0.115 -0.071,0.184c-0.048,-0.014 -0.098,-0.028 -0.151,-0.038c-0.05,-0.011 -0.107,-0.024 -0.167,-0.034c-0.057,-0.01 -0.13,-0.018 -0.205,-0.023c-0.075,-0.006 -0.161,-0.007 -0.26,-0.007c-0.468,0 -0.825,0.133 -1.062,0.403c-0.239,0.268 -0.36,0.643 -0.36,1.126c0,0.491 0.13,0.858 0.388,1.105c0.259,0.246 0.62,0.37 1.079,0.37c0.093,0 0.183,-0.006 0.281,-0.015c0.094,-0.009 0.187,-0.024 0.277,-0.046l0,-1.477Z" style="fill:#6b2a7e;fill-rule:nonzero;"/><path d="M379.211,230.275c0.151,-0.017 0.298,-0.033 0.437,-0.042c0.142,-0.012 0.292,-0.021 0.447,-0.021c0.165,0 0.335,0.021 0.508,0.051c0.169,0.035 0.326,0.095 0.462,0.175c0.139,0.082 0.252,0.195 0.339,0.334c0.087,0.145 0.131,0.32 0.131,0.533c0,0.162 -0.026,0.302 -0.079,0.421c-0.05,0.117 -0.115,0.221 -0.193,0.312c-0.078,0.087 -0.165,0.162 -0.258,0.221c-0.099,0.056 -0.191,0.109 -0.288,0.147l-0.08,0.033l1.219,1.494c-0.045,0.009 -0.089,0.012 -0.131,0.012l-0.129,0l-0.128,0c-0.04,0 -0.082,-0.003 -0.129,-0.012l-1.354,-1.628l0,-0.026l0.169,-0.046c0.107,-0.033 0.217,-0.073 0.328,-0.118c0.112,-0.047 0.213,-0.105 0.301,-0.174c0.09,-0.069 0.163,-0.155 0.222,-0.254c0.053,-0.103 0.081,-0.22 0.081,-0.353c0,-0.246 -0.093,-0.433 -0.272,-0.552c-0.187,-0.123 -0.431,-0.186 -0.739,-0.186c-0.075,0 -0.15,0.004 -0.221,0.01c-0.074,0.009 -0.138,0.015 -0.202,0.023l0,3.304c-0.069,0.012 -0.139,0.021 -0.215,0.021c-0.079,0 -0.157,-0.009 -0.226,-0.021l0,-3.658Z" style="fill:#6b2a7e;fill-rule:nonzero;"/><path d="M384.402,232.7l-0.729,-2.002l-0.733,2.002l1.462,0Zm-0.972,-2.418c0.037,-0.009 0.079,-0.017 0.126,-0.019c0.044,-0.001 0.092,-0.001 0.137,-0.001c0.037,0 0.078,0 0.123,0.001c0.047,0.002 0.088,0.01 0.125,0.019l1.389,3.651l-0.204,0.021c-0.098,0 -0.186,-0.009 -0.268,-0.021l-0.314,-0.851l-1.737,0l-0.307,0.851c-0.09,0.012 -0.178,0.021 -0.262,0.021c-0.033,0 -0.07,-0.002 -0.107,-0.009c-0.035,-0.003 -0.065,-0.007 -0.086,-0.012l1.385,-3.651Z" style="fill:#6b2a7e;fill-rule:nonzero;"/><path d="M386.346,230.678l-1.239,0c-0.004,-0.03 -0.006,-0.063 -0.009,-0.1c-0.003,-0.031 -0.005,-0.066 -0.005,-0.101c0,-0.031 0.002,-0.067 0.005,-0.1c0.003,-0.038 0.005,-0.071 0.009,-0.095l2.923,0c0.004,0.024 0.007,0.057 0.007,0.089c0.002,0.034 0.002,0.069 0.002,0.106c0,0.03 0,0.062 -0.002,0.097c0,0.038 -0.003,0.074 -0.007,0.104l-1.242,0l0,3.255c-0.007,0 -0.017,0 -0.025,0.005c-0.01,0.001 -0.02,0.001 -0.028,0.001c-0.024,0.006 -0.05,0.01 -0.079,0.01c-0.033,0.002 -0.059,0.004 -0.081,0.004c-0.037,0 -0.077,-0.002 -0.119,-0.004c-0.042,0 -0.079,-0.006 -0.11,-0.016l0,-3.255Z" style="fill:#6b2a7e;fill-rule:nonzero;"/><path d="M388.778,230.282l2.288,0c0.006,0.024 0.012,0.058 0.013,0.096c0.006,0.033 0.006,0.068 0.006,0.099c0,0.035 0,0.073 -0.006,0.106c-0.001,0.037 -0.007,0.07 -0.013,0.101l-1.845,0l0,1.104l1.548,0c0.005,0.032 0.007,0.065 0.01,0.096c0.002,0.038 0.002,0.069 0.002,0.106c0,0.029 0,0.067 -0.002,0.106c-0.003,0.038 -0.005,0.068 -0.01,0.096l-1.548,0l0,1.339l1.89,0c0.004,0.031 0.007,0.064 0.01,0.098c0.002,0.032 0.006,0.068 0.006,0.103c0,0.031 -0.004,0.067 -0.006,0.104c-0.003,0.037 -0.006,0.073 -0.01,0.097l-2.333,0l0,-3.651Z" style="fill:#6b2a7e;fill-rule:nonzero;"/><path d="M392.561,233.55c0.052,0.011 0.129,0.018 0.229,0.025c0.098,0.006 0.191,0.01 0.271,0.01c0.211,0 0.409,-0.024 0.596,-0.074c0.19,-0.049 0.35,-0.131 0.494,-0.25c0.139,-0.114 0.251,-0.267 0.334,-0.456c0.081,-0.192 0.125,-0.429 0.125,-0.714c0,-0.256 -0.042,-0.473 -0.122,-0.657c-0.079,-0.186 -0.19,-0.336 -0.33,-0.453c-0.141,-0.119 -0.305,-0.204 -0.492,-0.261c-0.183,-0.056 -0.384,-0.084 -0.597,-0.084c-0.069,0 -0.154,0.003 -0.26,0.007c-0.104,0.005 -0.187,0.011 -0.248,0.021l0,2.886Zm-0.444,-3.269c0.051,-0.004 0.119,-0.009 0.197,-0.018c0.078,-0.005 0.163,-0.012 0.248,-0.022c0.088,-0.004 0.174,-0.008 0.259,-0.008c0.083,-0.004 0.162,-0.004 0.236,-0.004c0.309,0 0.591,0.04 0.841,0.129c0.253,0.082 0.464,0.205 0.637,0.367c0.174,0.158 0.307,0.353 0.401,0.586c0.09,0.235 0.135,0.495 0.135,0.793c0,0.317 -0.045,0.592 -0.141,0.829c-0.095,0.234 -0.229,0.429 -0.407,0.59c-0.174,0.156 -0.388,0.275 -0.637,0.352c-0.251,0.079 -0.532,0.118 -0.845,0.118c-0.078,0 -0.156,-0.002 -0.24,-0.004c-0.087,-0.001 -0.171,-0.006 -0.255,-0.012c-0.088,-0.006 -0.166,-0.015 -0.238,-0.021c-0.076,-0.008 -0.14,-0.013 -0.191,-0.023l0,-3.652Z" style="fill:#6b2a7e;fill-rule:nonzero;"/><path d="M397.485,233.8c0.004,-0.063 0.014,-0.129 0.034,-0.2c0.018,-0.072 0.042,-0.14 0.063,-0.202c0.118,0.045 0.26,0.089 0.43,0.136c0.168,0.047 0.345,0.068 0.525,0.068c0.174,0 0.318,-0.015 0.434,-0.052c0.117,-0.035 0.208,-0.082 0.28,-0.144c0.065,-0.059 0.119,-0.129 0.147,-0.21c0.034,-0.078 0.047,-0.164 0.047,-0.252c0,-0.172 -0.052,-0.309 -0.158,-0.415c-0.11,-0.105 -0.24,-0.19 -0.397,-0.25l-0.615,-0.249c-0.261,-0.105 -0.438,-0.224 -0.532,-0.357c-0.098,-0.133 -0.147,-0.307 -0.147,-0.522c0,-0.272 0.107,-0.497 0.321,-0.678c0.211,-0.182 0.513,-0.273 0.907,-0.273c0.15,0 0.316,0.016 0.495,0.051c0.18,0.031 0.33,0.076 0.456,0.13c-0.015,0.126 -0.044,0.249 -0.096,0.374c-0.114,-0.048 -0.253,-0.089 -0.408,-0.122c-0.153,-0.033 -0.307,-0.051 -0.447,-0.051c-0.256,0 -0.447,0.051 -0.573,0.151c-0.126,0.101 -0.192,0.236 -0.192,0.405c0,0.161 0.047,0.279 0.138,0.353c0.091,0.072 0.214,0.139 0.371,0.197l0.496,0.195c0.094,0.036 0.19,0.079 0.291,0.134c0.103,0.055 0.192,0.118 0.276,0.193c0.082,0.076 0.151,0.168 0.206,0.278c0.052,0.109 0.078,0.243 0.078,0.394c0,0.162 -0.03,0.315 -0.09,0.451c-0.061,0.135 -0.151,0.254 -0.272,0.357c-0.121,0.099 -0.267,0.178 -0.444,0.234c-0.178,0.057 -0.381,0.084 -0.614,0.084c-0.201,0 -0.384,-0.021 -0.553,-0.063c-0.168,-0.037 -0.32,-0.089 -0.457,-0.145" style="fill:#6b2a7e;fill-rule:nonzero;"/><path d="M400.814,230.282c0.036,-0.009 0.075,-0.017 0.116,-0.019c0.038,-0.001 0.076,-0.001 0.112,-0.001c0.066,0 0.138,0.003 0.215,0.02l0,2.137c0,0.414 0.085,0.713 0.26,0.895c0.174,0.18 0.42,0.272 0.729,0.272c0.314,0 0.557,-0.092 0.73,-0.272c0.172,-0.182 0.256,-0.481 0.256,-0.895l0,-2.137c0.074,-0.017 0.147,-0.02 0.223,-0.02c0.071,0 0.142,0.003 0.22,0.02l0,2.214c0,0.484 -0.123,0.855 -0.368,1.113c-0.247,0.258 -0.597,0.385 -1.061,0.385c-0.46,0 -0.817,-0.127 -1.063,-0.385c-0.247,-0.258 -0.369,-0.629 -0.369,-1.113l0,-2.214Z" style="fill:#6b2a7e;fill-rule:nonzero;"/><path d="M404.553,233.8c0.004,-0.063 0.017,-0.129 0.037,-0.2c0.02,-0.072 0.043,-0.14 0.065,-0.202c0.115,0.045 0.257,0.089 0.428,0.136c0.169,0.047 0.344,0.068 0.522,0.068c0.174,0 0.319,-0.015 0.434,-0.052c0.118,-0.035 0.209,-0.082 0.28,-0.144c0.07,-0.059 0.12,-0.129 0.15,-0.21c0.032,-0.078 0.047,-0.164 0.047,-0.252c0,-0.172 -0.054,-0.309 -0.16,-0.415c-0.108,-0.105 -0.239,-0.19 -0.395,-0.25l-0.616,-0.249c-0.262,-0.105 -0.438,-0.224 -0.532,-0.357c-0.096,-0.133 -0.147,-0.307 -0.147,-0.522c0,-0.272 0.108,-0.497 0.32,-0.678c0.213,-0.182 0.514,-0.273 0.909,-0.273c0.152,0 0.314,0.016 0.495,0.051c0.179,0.031 0.33,0.076 0.454,0.13c-0.013,0.126 -0.042,0.249 -0.091,0.374c-0.12,-0.048 -0.255,-0.089 -0.411,-0.122c-0.158,-0.033 -0.307,-0.051 -0.447,-0.051c-0.255,0 -0.446,0.051 -0.576,0.151c-0.126,0.101 -0.189,0.236 -0.189,0.405c0,0.161 0.046,0.279 0.135,0.353c0.094,0.072 0.217,0.139 0.375,0.197l0.495,0.195c0.094,0.036 0.191,0.079 0.293,0.134c0.101,0.055 0.19,0.118 0.271,0.193c0.083,0.076 0.151,0.168 0.206,0.278c0.05,0.109 0.081,0.243 0.081,0.394c0,0.162 -0.031,0.315 -0.09,0.451c-0.058,0.135 -0.152,0.254 -0.271,0.357c-0.123,0.099 -0.271,0.178 -0.447,0.234c-0.174,0.057 -0.381,0.084 -0.611,0.084c-0.202,0 -0.386,-0.021 -0.556,-0.063c-0.166,-0.037 -0.318,-0.089 -0.458,-0.145" style="fill:#6b2a7e;fill-rule:nonzero;"/><path d="M408.667,230.678l-1.24,0c-0.004,-0.03 -0.007,-0.063 -0.007,-0.1c-0.002,-0.031 -0.004,-0.066 -0.004,-0.101c0,-0.031 0.002,-0.067 0.004,-0.1c0,-0.038 0.003,-0.071 0.007,-0.095l2.923,0c0.004,0.024 0.006,0.057 0.007,0.089c0.003,0.034 0.005,0.069 0.005,0.106c0,0.03 -0.002,0.062 -0.005,0.097c-0.001,0.038 -0.003,0.074 -0.007,0.104l-1.24,0l0,3.255c-0.011,0 -0.016,0 -0.027,0.005c-0.011,0.001 -0.018,0.001 -0.027,0.001c-0.024,0.006 -0.049,0.01 -0.079,0.01c-0.034,0.002 -0.06,0.004 -0.081,0.004c-0.036,0 -0.077,-0.002 -0.12,-0.004c-0.043,0 -0.076,-0.006 -0.109,-0.016l0,-3.255Z" style="fill:#6b2a7e;fill-rule:nonzero;"/><path d="M412.486,232.7l-0.729,-2.002l-0.733,2.002l1.462,0Zm-0.973,-2.418c0.037,-0.009 0.078,-0.017 0.124,-0.019c0.048,-0.001 0.092,-0.001 0.138,-0.001c0.037,0 0.078,0 0.123,0.001c0.049,0.002 0.09,0.01 0.127,0.019l1.387,3.651l-0.202,0.021c-0.097,0 -0.187,-0.009 -0.268,-0.021l-0.314,-0.851l-1.738,0l-0.305,0.851c-0.09,0.012 -0.179,0.021 -0.262,0.021c-0.035,0 -0.073,-0.002 -0.107,-0.009c-0.037,-0.003 -0.068,-0.007 -0.089,-0.012l1.386,-3.651Z" style="fill:#6b2a7e;fill-rule:nonzero;"/><path d="M414.122,230.282c0.034,-0.009 0.071,-0.017 0.11,-0.019c0.038,-0.001 0.076,-0.001 0.111,-0.001c0.079,0 0.154,0.003 0.22,0.02l0,3.651c-0.066,0.012 -0.136,0.021 -0.213,0.021c-0.039,0 -0.08,0 -0.122,-0.005c-0.04,0 -0.073,-0.007 -0.106,-0.016l0,-3.651Z" style="fill:#6b2a7e;fill-rule:nonzero;"/><path d="M415.877,230.282c0.037,-0.009 0.077,-0.017 0.113,-0.019c0.04,-0.001 0.077,-0.001 0.109,-0.001c0.065,0 0.137,0.003 0.216,0.02l2.015,2.934l0,-2.934c0.009,0 0.019,0 0.026,-0.003c0.009,-0.004 0.02,-0.004 0.028,-0.004c0.021,-0.006 0.047,-0.01 0.079,-0.012c0.026,-0.001 0.053,-0.001 0.075,-0.001c0.031,0 0.068,0 0.102,0.001c0.039,0.002 0.075,0.01 0.099,0.019l0,3.651c-0.033,0.009 -0.064,0.016 -0.103,0.016c-0.039,0.005 -0.075,0.005 -0.111,0.005c-0.027,0 -0.06,0 -0.098,-0.005c-0.039,0 -0.074,-0.007 -0.11,-0.016l-2.024,-2.922l0,2.922c-0.067,0.012 -0.136,0.021 -0.206,0.021c-0.075,0 -0.144,-0.009 -0.21,-0.021l0,-3.651Z" style="fill:#6b2a7e;fill-rule:nonzero;"/><path d="M421.807,232.7l-0.729,-2.002l-0.732,2.002l1.461,0Zm-0.969,-2.418c0.033,-0.009 0.074,-0.017 0.122,-0.019c0.048,-0.001 0.093,-0.001 0.138,-0.001c0.035,0 0.078,0 0.125,0.001c0.045,0.002 0.088,0.01 0.122,0.019l1.388,3.651l-0.199,0.021c-0.1,0 -0.19,-0.009 -0.271,-0.021l-0.312,-0.851l-1.737,0l-0.308,0.851c-0.09,0.012 -0.177,0.021 -0.262,0.021c-0.038,0 -0.071,-0.002 -0.108,-0.009c-0.035,-0.003 -0.065,-0.007 -0.086,-0.012l1.388,-3.651Z" style="fill:#6b2a7e;fill-rule:nonzero;"/><path d="M423.877,233.577c0.027,0.006 0.065,0.008 0.108,0.01c0.046,0.004 0.094,0.007 0.149,0.008c0.052,0.002 0.105,0.004 0.157,0.005c0.052,0 0.096,0.001 0.131,0.001c0.15,0 0.295,-0.007 0.424,-0.03c0.131,-0.023 0.25,-0.06 0.348,-0.113c0.102,-0.055 0.181,-0.125 0.238,-0.216c0.057,-0.09 0.089,-0.2 0.089,-0.333c0,-0.132 -0.032,-0.239 -0.089,-0.329c-0.057,-0.092 -0.135,-0.162 -0.229,-0.219c-0.092,-0.055 -0.198,-0.094 -0.322,-0.12c-0.123,-0.025 -0.248,-0.036 -0.373,-0.036l-0.631,0l0,1.372Zm0.577,-1.762c0.253,0 0.455,-0.054 0.615,-0.163c0.156,-0.11 0.239,-0.264 0.239,-0.46c0,-0.219 -0.095,-0.374 -0.276,-0.464c-0.184,-0.088 -0.436,-0.132 -0.759,-0.132c-0.06,0 -0.131,0 -0.206,0.003c-0.078,0.002 -0.14,0.008 -0.19,0.016l0,1.2l0.577,0Zm-1.012,-1.534c0.081,-0.017 0.202,-0.026 0.36,-0.04c0.159,-0.009 0.338,-0.013 0.54,-0.013c0.189,0 0.375,0.015 0.545,0.053c0.173,0.036 0.322,0.091 0.447,0.172c0.129,0.077 0.231,0.173 0.304,0.294c0.075,0.118 0.109,0.26 0.109,0.422c0,0.107 -0.016,0.2 -0.053,0.289c-0.036,0.094 -0.084,0.172 -0.144,0.238c-0.061,0.07 -0.127,0.129 -0.199,0.181c-0.076,0.048 -0.151,0.083 -0.234,0.099c0.094,0.013 0.192,0.04 0.292,0.081c0.1,0.044 0.196,0.105 0.28,0.181c0.082,0.073 0.154,0.169 0.207,0.283c0.054,0.116 0.081,0.248 0.081,0.4c0,0.194 -0.044,0.355 -0.124,0.488c-0.084,0.137 -0.197,0.247 -0.334,0.332c-0.144,0.088 -0.306,0.15 -0.487,0.191c-0.184,0.04 -0.379,0.061 -0.585,0.061c-0.06,0 -0.134,-0.002 -0.222,-0.004c-0.087,-0.002 -0.181,-0.005 -0.277,-0.009c-0.095,-0.004 -0.189,-0.012 -0.277,-0.02c-0.09,-0.009 -0.165,-0.018 -0.229,-0.028l0,-3.651Z" style="fill:#6b2a7e;fill-rule:nonzero;"/><path d="M426.937,230.282c0.033,-0.009 0.07,-0.017 0.108,-0.019c0.038,-0.001 0.073,-0.001 0.111,-0.001c0.08,0 0.153,0.003 0.219,0.02l0,3.651c-0.066,0.012 -0.135,0.021 -0.213,0.021c-0.038,0 -0.079,0 -0.12,-0.005c-0.042,0 -0.077,-0.007 -0.105,-0.016l0,-3.651Z" style="fill:#6b2a7e;fill-rule:nonzero;"/><path d="M428.692,230.282c0.029,-0.009 0.063,-0.017 0.104,-0.019c0.042,-0.001 0.077,-0.001 0.115,-0.001c0.076,0 0.147,0.003 0.215,0.02l0,3.249l1.795,0c0.012,0.064 0.02,0.13 0.02,0.201c0,0.076 -0.008,0.144 -0.02,0.201l-2.229,0l0,-3.651Z" style="fill:#6b2a7e;fill-rule:nonzero;"/><path d="M431.698,230.282c0.036,-0.009 0.073,-0.017 0.111,-0.019c0.035,-0.001 0.074,-0.001 0.111,-0.001c0.081,0 0.152,0.003 0.22,0.02l0,3.651c-0.068,0.012 -0.139,0.021 -0.213,0.021c-0.041,0 -0.083,0 -0.123,-0.005c-0.041,0 -0.074,-0.007 -0.106,-0.016l0,-3.651Z" style="fill:#6b2a7e;fill-rule:nonzero;"/><path d="M434.131,230.678l-1.239,0c-0.006,-0.03 -0.009,-0.063 -0.009,-0.1c-0.004,-0.031 -0.004,-0.066 -0.004,-0.101c0,-0.031 0,-0.067 0.004,-0.1c0,-0.038 0.003,-0.071 0.009,-0.095l2.923,0c0.004,0.024 0.005,0.057 0.008,0.089c0,0.034 0.002,0.069 0.002,0.106c0,0.03 -0.002,0.062 -0.002,0.097c-0.003,0.038 -0.004,0.074 -0.008,0.104l-1.241,0l0,3.255c-0.011,0 -0.019,0 -0.029,0.005c-0.007,0.001 -0.016,0.001 -0.024,0.001c-0.025,0.006 -0.05,0.01 -0.083,0.01c-0.03,0.002 -0.057,0.004 -0.078,0.004c-0.037,0 -0.077,-0.002 -0.12,-0.004c-0.04,0 -0.076,-0.006 -0.109,-0.016l0,-3.255Z" style="fill:#6b2a7e;fill-rule:nonzero;"/><path d="M437.336,232.607l-1.288,-2.325c0.079,-0.017 0.162,-0.02 0.247,-0.02c0.078,0 0.161,0.003 0.248,0.02l1.031,1.91l1,-1.91c0.072,-0.017 0.146,-0.02 0.229,-0.02c0.075,0 0.152,0.003 0.233,0.02l-1.261,2.325l0,1.326c-0.074,0.012 -0.15,0.021 -0.221,0.021c-0.08,0 -0.152,-0.009 -0.218,-0.021l0,-1.326Z" style="fill:#6b2a7e;fill-rule:nonzero;"/></g><g id="point-line" serif:id="point line"><path d="M281.032,171.968c0,1.065 -0.864,1.929 -1.93,1.929c-1.065,0 -1.928,-0.864 -1.928,-1.929c0,-1.065 0.863,-1.93 1.928,-1.93c1.066,0 1.93,0.865 1.93,1.93" style="fill:#231f20;fill-rule:nonzero;"/><path d="M357.675,216.702l-78.161,-44.598" style="fill:none;stroke:#231f20;stroke-width:0.85px;"/></g><g id="diagram"><g><g opacity="0.300003"><path d="M293.113,145.588c0,32.13 -26.045,58.175 -58.175,58.175c-32.13,0 -58.176,-26.045 -58.176,-58.175c0,-32.129 26.046,-58.176 58.176,-58.176c32.13,0 58.175,26.047 58.175,58.176" style="fill:#ad41b9;fill-rule:nonzero;"/></g></g><g><g opacity="0.399994"><path d="M380.343,145.93c0,32.128 -26.043,58.175 -58.174,58.175c-32.128,0 -58.175,-26.047 -58.175,-58.175c0,-32.13 26.047,-58.175 58.175,-58.175c32.131,0 58.174,26.045 58.174,58.175" style="fill:#70cdee;fill-rule:nonzero;"/></g></g><g><g opacity="0.399994"><path d="M336.71,222.136c0,32.13 -26.048,58.177 -58.177,58.177c-32.127,0 -58.174,-26.047 -58.174,-58.177c0,-32.128 26.047,-58.173 58.174,-58.173c32.129,0 58.177,26.045 58.177,58.173" style="fill:#87c350;fill-rule:nonzero;"/></g></g><path d="M278.819,163.961c3.842,0 7.607,0.375 11.236,1.091c-2.529,7.146 -6.423,13.654 -11.372,19.2c-4.873,-5.555 -8.697,-12.054 -11.176,-19.184c3.663,-0.732 7.445,-1.107 11.312,-1.107" style="fill:#803b94;fill-rule:nonzero;"/><g transform="matrix(1,0,0,1,-7.2,-564.642)"><text x="212.703px" y="706.364px" style="font-family:'Aller';font-size:11.926px;fill:#231f20;">S<tspan x="218.606px 225.379px 228.098px 233.894px 241.407px 248.181px 253.977px 256.207px " y="706.364px 706.364px 706.364px 706.364px 706.364px 706.364px 706.364px 706.364px ">CIENCE &amp;</tspan></text><text x="213.162px" y="719.137px" style="font-family:'Aller';font-size:11.926px;fill:#231f20;">R<tspan x="219.685px 225.481px 231.384px 237.18px 243.942px 250.286px 257.06px " y="719.137px 719.137px 719.137px 719.137px 719.137px 719.137px 719.137px ">ESEARCH</tspan></text></g><g transform="matrix(1,0,0,1,2.4,-564.642)"><text x="299.542px" y="706.364px" style="font-family:'Aller';font-size:11.926px;fill:#231f20;">D<tspan x="307.281px 313.077px 318.981px 321.7px 329.225px 336.738px 338.968px " y="706.364px 706.364px 706.364px 706.364px 706.364px 706.364px 706.364px ">ESIGN &amp;</tspan></text><text x="290.025px" y="719.137px" style="font-family:'Aller';font-size:11.926px;fill:#231f20;">E<tspan x="295.821px 303.334px 310.859px 313.578px 321.091px 326.887px 332.683px 339.206px 341.925px 349.438px " y="719.137px 719.137px 719.137px 719.137px 719.137px 719.137px 719.137px 719.137px 719.137px 719.137px ">NGINEERING</tspan></text></g><g transform="matrix(1,0,0,1,-2.25588,-561.813)"><text x="253.859px" y="784.314px" style="font-family:'Aller';font-size:11.926px;fill:#231f20;">B<tspan x="260.359px 267.8px 273.704px 276.423px 283.936px 289.732px 295.313px 301.216px 303.446px " y="784.314px 784.314px 784.314px 784.314px 784.314px 784.314px 784.314px 784.314px 784.314px ">USINESS &amp;</tspan></text><text x="247.235px" y="797.087px" style="font-family:'Aller';font-size:11.926px;fill:#231f20;">M<tspan x="256.37px 263.132px 270.645px 277.108px 284.633px 290.429px 299.564px 305.36px 312.873px " y="797.087px 797.087px 797.087px 797.087px 797.087px 797.087px 797.087px 797.087px 797.087px ">ANAGEMENT</tspan></text></g></g></g><g id="prev-btn" serif:id="prev btn"><g><g opacity="0.699997"><rect x="0" y="115.776" width="26" height="55.5" style="fill:#e5e6e7;"/></g></g><path d="M14.826,139.982l-3.783,3.783l3.828,3.828" style="fill:none;stroke:#231f20;stroke-width:0.5px;"/></g><g id="title"><path id="title-border" serif:id="title border" d="M104.363,25.249l92.542,0" style="fill:none;stroke:#231f20;stroke-width:5px;"/><text x="103.905px" y="46.749px" style="font-family:'Aller-Bold', 'Aller';font-weight:700;font-size:15px;fill:#231f20;">Innov<tspan x="142.68px " y="46.749px ">a</tspan>tion re<tspan x="196.125px " y="46.749px ">a</tspan>lize<tspan x="229.245px " y="46.749px ">d</tspan></text></g></g></svg>