<?xml version="1.0" encoding="UTF-8" standalone="no"?>
<!DOCTYPE svg PUBLIC "-//W3C//DTD SVG 1.1//EN" "http://www.w3.org/Graphics/SVG/1.1/DTD/svg11.dtd">
<svg width="100%" height="100%" viewBox="0 0 13 17" version="1.1" xmlns="http://www.w3.org/2000/svg" xmlns:xlink="http://www.w3.org/1999/xlink" xml:space="preserve" xmlns:serif="http://www.serif.com/" style="fill-rule:evenodd;clip-rule:evenodd;stroke-linejoin:round;stroke-miterlimit:1.41421;">
  <g id="E">
    <path d="M2.789,7.206l0.196,-0.196l0,-4.35l8.285,0l0.196,-0.196l0,-2.246l-0.196,-0.196l-8.481,0l-2.584,0l-0.196,0.196l0,6.792l0.196,0.196l2.584,0Z" style="fill:#6c2a7e;fill-rule:nonzero;"/>
    <path d="M5.193,7.184l0,2.246l0.196,0.195l2.584,0l0.197,-0.195l0,-2.246l-0.197,-0.195l-2.584,0l-0.196,0.195Z" style="fill:#6c2a7e;fill-rule:nonzero;"/>
    <path d="M2.985,13.958l0,-4.353l-0.196,-0.196l-2.584,0l-0.197,0.196l0,6.794l0.197,0.198l11.882,0l0.196,-0.198l0,-2.246l-0.196,-0.195l-9.102,0Z" style="fill:#6c2a7e;fill-rule:nonzero;"/>
  </g>
</svg>