<?xml version="1.0" encoding="UTF-8" standalone="no"?>
<!DOCTYPE svg PUBLIC "-//W3C//DTD SVG 1.1//EN" "http://www.w3.org/Graphics/SVG/1.1/DTD/svg11.dtd">
<svg width="100%" height="100%" viewBox="0 0 86 25" version="1.1" xmlns="http://www.w3.org/2000/svg" xmlns:xlink="http://www.w3.org/1999/xlink" xml:space="preserve" xmlns:serif="http://www.serif.com/" style="fill-rule:evenodd;clip-rule:evenodd;stroke-linejoin:round;stroke-miterlimit:1.41421;">
    <g id="logo">
        <g id="subtitle">
            <path d="M0.053,20.494c0.04,-0.009 0.081,-0.017 0.124,-0.019c0.042,-0.002 0.083,-0.003 0.123,-0.003c0.09,0 0.172,0.007 0.247,0.022l0,4.081c-0.075,0.014 -0.154,0.022 -0.239,0.022c-0.045,0 -0.091,-0.001 -0.135,-0.004c-0.045,-0.002 -0.085,-0.009 -0.12,-0.018l0,-4.081Z" style="fill:#6c2a7e;fill-rule:nonzero;"/>
            <path d="M2.015,20.494c0.039,-0.009 0.082,-0.017 0.127,-0.019c0.045,-0.002 0.085,-0.003 0.12,-0.003c0.074,0 0.154,0.007 0.239,0.022l2.253,3.279l0,-3.279c0.01,0 0.021,-0.001 0.031,-0.003c0.009,-0.003 0.02,-0.004 0.03,-0.004c0.025,-0.006 0.053,-0.01 0.086,-0.012c0.032,-0.002 0.061,-0.003 0.086,-0.003c0.035,0 0.073,0.001 0.116,0.003c0.042,0.002 0.078,0.01 0.108,0.019l0,4.081c-0.035,0.009 -0.073,0.016 -0.116,0.018c-0.042,0.003 -0.083,0.004 -0.123,0.004c-0.03,0 -0.066,-0.001 -0.108,-0.004c-0.043,-0.002 -0.084,-0.009 -0.124,-0.018l-2.262,-3.266l0,3.266c-0.074,0.014 -0.151,0.022 -0.232,0.022c-0.08,0 -0.157,-0.008 -0.231,-0.022l0,-4.081Z" style="fill:#6c2a7e;fill-rule:nonzero;"/>
            <path d="M7.435,20.937l-1.386,0c-0.005,-0.035 -0.008,-0.071 -0.01,-0.109c-0.003,-0.037 -0.004,-0.077 -0.004,-0.116c0,-0.035 0.001,-0.072 0.004,-0.113c0.002,-0.039 0.005,-0.074 0.01,-0.104l3.265,0c0.005,0.03 0.009,0.063 0.012,0.101c0.002,0.037 0.003,0.075 0.003,0.116c0,0.035 -0.001,0.073 -0.003,0.112c-0.003,0.041 -0.007,0.078 -0.012,0.113l-1.385,0l0,3.639c-0.01,0 -0.02,0 -0.03,0.003c-0.01,0.003 -0.021,0.003 -0.029,0.003c-0.027,0.005 -0.056,0.009 -0.091,0.011c-0.035,0.002 -0.065,0.004 -0.09,0.004c-0.04,0 -0.083,-0.002 -0.131,-0.004c-0.047,-0.002 -0.089,-0.008 -0.123,-0.017l0,-3.639Z" style="fill:#6c2a7e;fill-rule:nonzero;"/>
            <path d="M10.151,20.494l2.554,0c0.009,0.03 0.015,0.065 0.018,0.104c0.002,0.042 0.004,0.079 0.004,0.114c0,0.039 -0.002,0.08 -0.004,0.119c-0.003,0.04 -0.009,0.078 -0.018,0.112l-2.059,0l0,1.236l1.729,0c0.005,0.035 0.008,0.071 0.011,0.108c0.002,0.038 0.004,0.076 0.004,0.116c0,0.035 -0.002,0.074 -0.004,0.116c-0.003,0.042 -0.006,0.079 -0.011,0.109l-1.729,0l0,1.497l2.11,0c0.006,0.035 0.009,0.071 0.012,0.108c0.002,0.037 0.003,0.076 0.003,0.116c0,0.035 -0.001,0.074 -0.003,0.117c-0.003,0.043 -0.006,0.078 -0.012,0.109l-2.605,0l0,-4.081Z" style="fill:#6c2a7e;fill-rule:nonzero;"/>
            <path d="M16.38,22.485c0.04,-0.004 0.083,-0.008 0.128,-0.011c0.045,-0.003 0.087,-0.004 0.127,-0.004c0.03,0 0.066,0.001 0.109,0.004c0.041,0.003 0.083,0.007 0.123,0.011l0,1.962c-0.15,0.069 -0.335,0.12 -0.553,0.149c-0.221,0.031 -0.427,0.045 -0.622,0.045c-0.325,0 -0.616,-0.049 -0.873,-0.145c-0.256,-0.098 -0.475,-0.236 -0.655,-0.415c-0.18,-0.18 -0.317,-0.399 -0.415,-0.657c-0.098,-0.255 -0.146,-0.546 -0.146,-0.871c0,-0.33 0.048,-0.627 0.146,-0.891c0.098,-0.265 0.237,-0.49 0.419,-0.677c0.183,-0.188 0.401,-0.331 0.659,-0.432c0.257,-0.099 0.542,-0.149 0.858,-0.149c0.223,0 0.423,0.016 0.594,0.045c0.172,0.03 0.314,0.062 0.423,0.098c-0.009,0.075 -0.023,0.143 -0.041,0.206c-0.017,0.062 -0.044,0.13 -0.079,0.205c-0.055,-0.015 -0.11,-0.028 -0.168,-0.041c-0.057,-0.012 -0.12,-0.026 -0.187,-0.037c-0.067,-0.013 -0.144,-0.022 -0.228,-0.026c-0.085,-0.006 -0.182,-0.008 -0.292,-0.008c-0.524,0 -0.92,0.15 -1.187,0.45c-0.267,0.298 -0.401,0.718 -0.401,1.257c0,0.549 0.145,0.96 0.435,1.235c0.289,0.275 0.691,0.412 1.205,0.412c0.1,0 0.204,-0.005 0.31,-0.016c0.108,-0.01 0.211,-0.027 0.311,-0.052l0,-1.647Z" style="fill:#6c2a7e;fill-rule:nonzero;"/>
            <path d="M18.103,20.487c0.17,-0.021 0.333,-0.037 0.49,-0.049c0.156,-0.013 0.323,-0.019 0.498,-0.019c0.185,0 0.373,0.019 0.566,0.056c0.191,0.037 0.365,0.103 0.519,0.195c0.156,0.092 0.281,0.217 0.378,0.374c0.098,0.158 0.147,0.355 0.147,0.595c0,0.18 -0.03,0.336 -0.087,0.468c-0.057,0.132 -0.129,0.249 -0.217,0.349c-0.087,0.099 -0.185,0.181 -0.291,0.247c-0.107,0.064 -0.214,0.119 -0.318,0.165l-0.09,0.037l1.361,1.67c-0.05,0.009 -0.099,0.014 -0.148,0.014l-0.143,0l-0.143,0c-0.044,0 -0.091,-0.005 -0.141,-0.014l-1.513,-1.82l0,-0.03l0.187,-0.052c0.12,-0.036 0.242,-0.079 0.367,-0.131c0.125,-0.053 0.237,-0.117 0.337,-0.196c0.099,-0.076 0.18,-0.171 0.244,-0.283c0.061,-0.113 0.093,-0.244 0.093,-0.393c0,-0.275 -0.103,-0.482 -0.307,-0.619c-0.205,-0.136 -0.479,-0.205 -0.823,-0.205c-0.085,0 -0.168,0.003 -0.248,0.011c-0.079,0.008 -0.154,0.017 -0.224,0.026l0,3.692c-0.075,0.014 -0.155,0.021 -0.24,0.021c-0.09,0 -0.175,-0.007 -0.254,-0.021l0,-4.088Z" style="fill:#6c2a7e;fill-rule:nonzero;"/>
            <path d="M23.904,23.196l-0.816,-2.238l-0.817,2.238l1.633,0Zm-1.086,-2.702c0.04,-0.009 0.086,-0.017 0.139,-0.019c0.052,-0.002 0.103,-0.004 0.153,-0.004c0.04,0 0.086,0.002 0.139,0.004c0.051,0.002 0.098,0.01 0.138,0.019l1.55,4.081l-0.225,0.021c-0.11,0 -0.209,-0.007 -0.299,-0.021l-0.352,-0.951l-1.939,0l-0.344,0.951c-0.101,0.014 -0.197,0.021 -0.292,0.021c-0.04,0 -0.08,-0.002 -0.12,-0.007c-0.04,-0.005 -0.072,-0.01 -0.097,-0.014l1.549,-4.081Z" style="fill:#6c2a7e;fill-rule:nonzero;"/>
            <path d="M26.075,20.937l-1.385,0c-0.005,-0.035 -0.009,-0.071 -0.011,-0.109c-0.002,-0.037 -0.004,-0.077 -0.004,-0.116c0,-0.035 0.002,-0.072 0.004,-0.113c0.002,-0.039 0.006,-0.074 0.011,-0.104l3.264,0c0.005,0.03 0.009,0.063 0.012,0.101c0.002,0.037 0.003,0.075 0.003,0.116c0,0.035 -0.001,0.073 -0.003,0.112c-0.003,0.041 -0.007,0.078 -0.012,0.113l-1.385,0l0,3.639c-0.01,0 -0.02,0 -0.03,0.003c-0.01,0.003 -0.02,0.003 -0.029,0.003c-0.026,0.005 -0.056,0.009 -0.091,0.011c-0.034,0.002 -0.065,0.004 -0.089,0.004c-0.041,0 -0.084,-0.002 -0.131,-0.004c-0.048,-0.002 -0.09,-0.008 -0.124,-0.017l0,-3.639Z" style="fill:#6c2a7e;fill-rule:nonzero;"/>
            <path d="M28.792,20.494l2.554,0c0.009,0.03 0.015,0.065 0.018,0.104c0.003,0.042 0.004,0.079 0.004,0.114c0,0.039 -0.001,0.08 -0.004,0.119c-0.003,0.04 -0.009,0.078 -0.018,0.112l-2.059,0l0,1.236l1.729,0c0.005,0.035 0.008,0.071 0.011,0.108c0.003,0.038 0.004,0.076 0.004,0.116c0,0.035 -0.001,0.074 -0.004,0.116c-0.003,0.042 -0.006,0.079 -0.011,0.109l-1.729,0l0,1.497l2.11,0c0.005,0.035 0.009,0.071 0.012,0.108c0.002,0.037 0.004,0.076 0.004,0.116c0,0.035 -0.002,0.074 -0.004,0.117c-0.003,0.043 -0.007,0.078 -0.012,0.109l-2.605,0l0,-4.081Z" style="fill:#6c2a7e;fill-rule:nonzero;"/>
            <path d="M33.016,24.147c0.06,0.01 0.146,0.02 0.258,0.026c0.111,0.007 0.213,0.011 0.303,0.011c0.235,0 0.457,-0.027 0.666,-0.082c0.21,-0.055 0.392,-0.146 0.549,-0.277c0.159,-0.129 0.283,-0.3 0.375,-0.512c0.092,-0.213 0.139,-0.479 0.139,-0.798c0,-0.284 -0.045,-0.528 -0.135,-0.733c-0.09,-0.205 -0.213,-0.373 -0.371,-0.506c-0.156,-0.132 -0.339,-0.23 -0.546,-0.291c-0.207,-0.063 -0.43,-0.094 -0.67,-0.094c-0.075,0 -0.171,0.002 -0.288,0.007c-0.118,0.005 -0.211,0.013 -0.28,0.022l0,3.227Zm-0.495,-3.653c0.06,-0.005 0.134,-0.011 0.222,-0.019c0.086,-0.008 0.178,-0.015 0.276,-0.022c0.098,-0.007 0.193,-0.013 0.288,-0.015c0.095,-0.003 0.183,-0.004 0.263,-0.004c0.348,0 0.663,0.047 0.942,0.143c0.279,0.093 0.517,0.231 0.711,0.412c0.195,0.179 0.344,0.398 0.446,0.658c0.103,0.26 0.154,0.554 0.154,0.883c0,0.354 -0.053,0.663 -0.158,0.926c-0.104,0.261 -0.255,0.48 -0.453,0.658c-0.197,0.177 -0.435,0.308 -0.715,0.396c-0.279,0.088 -0.593,0.131 -0.943,0.131c-0.085,0 -0.175,-0.001 -0.269,-0.004c-0.095,-0.002 -0.19,-0.008 -0.285,-0.014c-0.095,-0.007 -0.183,-0.015 -0.265,-0.023c-0.083,-0.008 -0.154,-0.015 -0.214,-0.025l0,-4.081Z" style="fill:#6c2a7e;fill-rule:nonzero;"/>
            <path d="M38.518,24.425c0.005,-0.07 0.019,-0.145 0.041,-0.225c0.022,-0.08 0.046,-0.154 0.071,-0.224c0.129,0.05 0.289,0.101 0.479,0.153c0.189,0.052 0.385,0.079 0.584,0.079c0.195,0 0.357,-0.02 0.487,-0.06c0.129,-0.04 0.234,-0.094 0.311,-0.161c0.077,-0.068 0.132,-0.146 0.168,-0.236c0.035,-0.09 0.052,-0.184 0.052,-0.284c0,-0.19 -0.059,-0.344 -0.179,-0.461c-0.12,-0.117 -0.268,-0.211 -0.442,-0.28l-0.688,-0.278c-0.291,-0.115 -0.488,-0.247 -0.596,-0.396c-0.107,-0.15 -0.161,-0.345 -0.161,-0.584c0,-0.305 0.118,-0.558 0.355,-0.76c0.238,-0.203 0.576,-0.304 1.015,-0.304c0.17,0 0.355,0.019 0.554,0.057c0.199,0.037 0.369,0.086 0.51,0.146c-0.016,0.14 -0.051,0.279 -0.106,0.42c-0.13,-0.055 -0.282,-0.102 -0.456,-0.139c-0.176,-0.038 -0.343,-0.057 -0.502,-0.057c-0.285,0 -0.498,0.057 -0.64,0.168c-0.142,0.113 -0.213,0.264 -0.213,0.453c0,0.18 0.051,0.311 0.153,0.394c0.102,0.083 0.241,0.155 0.415,0.221l0.555,0.217c0.104,0.039 0.213,0.09 0.325,0.149c0.112,0.06 0.215,0.133 0.307,0.218c0.092,0.085 0.169,0.188 0.229,0.31c0.06,0.122 0.089,0.269 0.089,0.439c0,0.183 -0.033,0.352 -0.101,0.504c-0.067,0.153 -0.168,0.285 -0.303,0.398c-0.135,0.111 -0.3,0.199 -0.499,0.262c-0.196,0.062 -0.424,0.093 -0.684,0.093c-0.225,0 -0.43,-0.023 -0.617,-0.068c-0.188,-0.045 -0.359,-0.1 -0.513,-0.164" style="fill:#6c2a7e;fill-rule:nonzero;"/>
            <path d="M42.237,20.494c0.041,-0.009 0.083,-0.017 0.128,-0.019c0.045,-0.002 0.087,-0.003 0.127,-0.003c0.075,0 0.155,0.007 0.24,0.022l0,2.388c0,0.465 0.097,0.798 0.291,1c0.195,0.202 0.467,0.302 0.817,0.302c0.349,0 0.62,-0.1 0.812,-0.302c0.191,-0.202 0.288,-0.535 0.288,-1l0,-2.388c0.08,-0.015 0.162,-0.022 0.247,-0.022c0.079,0 0.162,0.007 0.247,0.022l0,2.471c0,0.544 -0.136,0.96 -0.412,1.247c-0.274,0.287 -0.668,0.429 -1.182,0.429c-0.519,0 -0.915,-0.142 -1.191,-0.429c-0.274,-0.287 -0.412,-0.703 -0.412,-1.247l0,-2.471Z" style="fill:#6c2a7e;fill-rule:nonzero;"/>
            <path d="M46.415,24.425c0.005,-0.07 0.019,-0.145 0.041,-0.225c0.022,-0.08 0.047,-0.154 0.071,-0.224c0.13,0.05 0.289,0.101 0.48,0.153c0.189,0.052 0.384,0.079 0.584,0.079c0.194,0 0.356,-0.02 0.486,-0.06c0.13,-0.04 0.234,-0.094 0.311,-0.161c0.077,-0.068 0.133,-0.146 0.169,-0.236c0.034,-0.09 0.051,-0.184 0.051,-0.284c0,-0.19 -0.059,-0.344 -0.179,-0.461c-0.119,-0.117 -0.267,-0.211 -0.442,-0.28l-0.688,-0.278c-0.29,-0.115 -0.488,-0.247 -0.595,-0.396c-0.107,-0.15 -0.162,-0.345 -0.162,-0.584c0,-0.305 0.119,-0.558 0.356,-0.76c0.237,-0.203 0.576,-0.304 1.014,-0.304c0.17,0 0.355,0.019 0.555,0.057c0.199,0.037 0.369,0.086 0.509,0.146c-0.015,0.14 -0.05,0.279 -0.105,0.42c-0.13,-0.055 -0.282,-0.102 -0.457,-0.139c-0.175,-0.038 -0.342,-0.057 -0.502,-0.057c-0.284,0 -0.497,0.057 -0.64,0.168c-0.142,0.113 -0.213,0.264 -0.213,0.453c0,0.18 0.051,0.311 0.153,0.394c0.102,0.083 0.241,0.155 0.416,0.221l0.555,0.217c0.104,0.039 0.212,0.09 0.325,0.149c0.112,0.06 0.215,0.133 0.306,0.218c0.093,0.085 0.169,0.188 0.229,0.31c0.06,0.122 0.09,0.269 0.09,0.439c0,0.183 -0.034,0.352 -0.102,0.504c-0.066,0.153 -0.167,0.285 -0.303,0.398c-0.134,0.111 -0.3,0.199 -0.498,0.262c-0.196,0.062 -0.425,0.093 -0.684,0.093c-0.225,0 -0.431,-0.023 -0.617,-0.068c-0.189,-0.045 -0.359,-0.1 -0.514,-0.164" style="fill:#6c2a7e;fill-rule:nonzero;"/>
            <path d="M51.012,20.937l-1.385,0c-0.005,-0.035 -0.009,-0.071 -0.011,-0.109c-0.002,-0.037 -0.003,-0.077 -0.003,-0.116c0,-0.035 0.001,-0.072 0.003,-0.113c0.002,-0.039 0.006,-0.074 0.011,-0.104l3.264,0c0.005,0.03 0.009,0.063 0.012,0.101c0.002,0.037 0.004,0.075 0.004,0.116c0,0.035 -0.002,0.073 -0.004,0.112c-0.003,0.041 -0.007,0.078 -0.012,0.113l-1.385,0l0,3.639c-0.011,0 -0.019,0 -0.029,0.003c-0.011,0.003 -0.021,0.003 -0.03,0.003c-0.026,0.005 -0.055,0.009 -0.09,0.011c-0.035,0.002 -0.066,0.004 -0.09,0.004c-0.04,0 -0.084,-0.002 -0.132,-0.004c-0.047,-0.002 -0.088,-0.008 -0.123,-0.017l0,-3.639Z" style="fill:#6c2a7e;fill-rule:nonzero;"/>
            <path d="M55.279,23.196l-0.816,-2.238l-0.817,2.238l1.633,0Zm-1.086,-2.702c0.04,-0.009 0.086,-0.017 0.139,-0.019c0.052,-0.002 0.103,-0.004 0.153,-0.004c0.04,0 0.086,0.002 0.139,0.004c0.052,0.002 0.098,0.01 0.138,0.019l1.55,4.081l-0.225,0.021c-0.11,0 -0.209,-0.007 -0.299,-0.021l-0.353,-0.951l-1.938,0l-0.345,0.951c-0.1,0.014 -0.197,0.021 -0.291,0.021c-0.04,0 -0.081,-0.002 -0.12,-0.007c-0.04,-0.005 -0.072,-0.01 -0.098,-0.014l1.55,-4.081Z" style="fill:#6c2a7e;fill-rule:nonzero;"/>
            <path d="M57.105,20.494c0.04,-0.009 0.081,-0.017 0.124,-0.019c0.042,-0.002 0.083,-0.003 0.123,-0.003c0.09,0 0.172,0.007 0.247,0.022l0,4.081c-0.075,0.014 -0.154,0.022 -0.239,0.022c-0.045,0 -0.09,-0.001 -0.135,-0.004c-0.045,-0.002 -0.085,-0.009 -0.12,-0.018l0,-4.081Z" style="fill:#6c2a7e;fill-rule:nonzero;"/>
            <path d="M59.067,20.494c0.04,-0.009 0.082,-0.017 0.127,-0.019c0.045,-0.002 0.085,-0.003 0.119,-0.003c0.075,0 0.155,0.007 0.24,0.022l2.253,3.279l0,-3.279c0.011,0 0.021,-0.001 0.031,-0.003c0.009,-0.003 0.02,-0.004 0.03,-0.004c0.024,-0.006 0.054,-0.01 0.086,-0.012c0.032,-0.002 0.061,-0.003 0.086,-0.003c0.035,0 0.073,0.001 0.116,0.003c0.042,0.002 0.078,0.01 0.108,0.019l0,4.081c-0.035,0.009 -0.073,0.016 -0.116,0.018c-0.042,0.003 -0.083,0.004 -0.123,0.004c-0.03,0 -0.066,-0.001 -0.108,-0.004c-0.043,-0.002 -0.084,-0.009 -0.124,-0.018l-2.261,-3.266l0,3.266c-0.075,0.014 -0.152,0.022 -0.233,0.022c-0.079,0 -0.157,-0.008 -0.231,-0.022l0,-4.081Z" style="fill:#6c2a7e;fill-rule:nonzero;"/>
            <path d="M65.692,23.196l-0.815,-2.238l-0.817,2.238l1.632,0Zm-1.085,-2.702c0.039,-0.009 0.085,-0.017 0.138,-0.019c0.052,-0.002 0.104,-0.004 0.154,-0.004c0.039,0 0.086,0.002 0.138,0.004c0.052,0.002 0.098,0.01 0.138,0.019l1.55,4.081l-0.224,0.021c-0.111,0 -0.21,-0.007 -0.3,-0.021l-0.352,-0.951l-1.938,0l-0.345,0.951c-0.1,0.014 -0.197,0.021 -0.292,0.021c-0.04,0 -0.08,-0.002 -0.12,-0.007c-0.04,-0.005 -0.072,-0.01 -0.097,-0.014l1.55,-4.081Z" style="fill:#6c2a7e;fill-rule:nonzero;"/>
            <path d="M68.006,24.178c0.029,0.005 0.069,0.009 0.12,0.011c0.049,0.003 0.105,0.006 0.165,0.008c0.059,0.002 0.118,0.004 0.175,0.007c0.058,0.002 0.106,0.004 0.146,0.004c0.169,0 0.329,-0.012 0.475,-0.037c0.148,-0.025 0.277,-0.068 0.39,-0.128c0.112,-0.059 0.201,-0.139 0.265,-0.239c0.065,-0.1 0.098,-0.225 0.098,-0.375c0,-0.145 -0.033,-0.267 -0.098,-0.367c-0.064,-0.1 -0.149,-0.18 -0.255,-0.242c-0.104,-0.063 -0.225,-0.108 -0.362,-0.135c-0.137,-0.028 -0.276,-0.041 -0.415,-0.041l-0.704,0l0,1.534Zm0.644,-1.97c0.28,0 0.507,-0.06 0.685,-0.182c0.176,-0.122 0.266,-0.294 0.266,-0.513c0,-0.244 -0.104,-0.417 -0.308,-0.517c-0.205,-0.1 -0.486,-0.149 -0.846,-0.149c-0.07,0 -0.146,0 -0.231,0.003c-0.085,0.003 -0.155,0.009 -0.21,0.018l0,1.34l0.644,0Zm-1.131,-1.714c0.09,-0.014 0.223,-0.028 0.401,-0.041c0.177,-0.012 0.378,-0.018 0.603,-0.018c0.213,0 0.418,0.019 0.609,0.059c0.192,0.04 0.36,0.104 0.502,0.192c0.142,0.087 0.255,0.196 0.337,0.329c0.082,0.133 0.124,0.291 0.124,0.475c0,0.115 -0.021,0.222 -0.061,0.322c-0.039,0.1 -0.092,0.189 -0.16,0.265c-0.067,0.079 -0.142,0.145 -0.225,0.2c-0.082,0.054 -0.168,0.091 -0.259,0.111c0.105,0.016 0.214,0.047 0.326,0.094c0.113,0.048 0.216,0.114 0.311,0.199c0.094,0.084 0.172,0.19 0.233,0.318c0.059,0.127 0.089,0.276 0.089,0.446c0,0.214 -0.046,0.396 -0.139,0.546c-0.092,0.15 -0.217,0.273 -0.374,0.37c-0.157,0.097 -0.339,0.169 -0.543,0.214c-0.205,0.044 -0.421,0.067 -0.651,0.067c-0.07,0 -0.154,-0.001 -0.25,-0.004c-0.098,-0.002 -0.2,-0.006 -0.308,-0.011c-0.107,-0.005 -0.211,-0.012 -0.31,-0.022c-0.1,-0.01 -0.185,-0.02 -0.255,-0.03l0,-4.081Z" style="fill:#6c2a7e;fill-rule:nonzero;"/>
            <path d="M71.42,20.494c0.039,-0.009 0.08,-0.017 0.123,-0.019c0.042,-0.002 0.083,-0.003 0.124,-0.003c0.089,0 0.172,0.007 0.246,0.022l0,4.081c-0.074,0.014 -0.154,0.022 -0.239,0.022c-0.045,0 -0.09,-0.001 -0.135,-0.004c-0.045,-0.002 -0.085,-0.009 -0.119,-0.018l0,-4.081Z" style="fill:#6c2a7e;fill-rule:nonzero;"/>
            <path d="M73.381,20.494c0.035,-0.009 0.075,-0.017 0.12,-0.019c0.045,-0.002 0.087,-0.003 0.127,-0.003c0.085,0 0.165,0.007 0.24,0.022l0,3.631l2.005,0c0.016,0.07 0.024,0.145 0.024,0.224c0,0.085 -0.008,0.161 -0.024,0.226l-2.492,0l0,-4.081Z" style="fill:#6c2a7e;fill-rule:nonzero;"/>
            <path d="M76.742,20.494c0.04,-0.009 0.081,-0.017 0.123,-0.019c0.043,-0.002 0.084,-0.003 0.124,-0.003c0.09,0 0.172,0.007 0.247,0.022l0,4.081c-0.075,0.014 -0.155,0.022 -0.239,0.022c-0.045,0 -0.091,-0.001 -0.135,-0.004c-0.045,-0.002 -0.085,-0.009 -0.12,-0.018l0,-4.081Z" style="fill:#6c2a7e;fill-rule:nonzero;"/>
            <path d="M79.46,20.937l-1.385,0c-0.006,-0.035 -0.01,-0.071 -0.011,-0.109c-0.003,-0.037 -0.004,-0.077 -0.004,-0.116c0,-0.035 0.001,-0.072 0.004,-0.113c0.001,-0.039 0.005,-0.074 0.011,-0.104l3.264,0c0.005,0.03 0.009,0.063 0.012,0.101c0.002,0.037 0.003,0.075 0.003,0.116c0,0.035 -0.001,0.073 -0.003,0.112c-0.003,0.041 -0.007,0.078 -0.012,0.113l-1.385,0l0,3.639c-0.011,0 -0.02,0 -0.03,0.003c-0.01,0.003 -0.02,0.003 -0.03,0.003c-0.026,0.005 -0.055,0.009 -0.09,0.011c-0.035,0.002 -0.065,0.004 -0.09,0.004c-0.04,0 -0.083,-0.002 -0.131,-0.004c-0.047,-0.002 -0.088,-0.008 -0.123,-0.017l0,-3.639Z" style="fill:#6c2a7e;fill-rule:nonzero;"/>
            <path d="M83.038,23.093l-1.438,-2.599c0.09,-0.014 0.183,-0.022 0.278,-0.022c0.085,0 0.177,0.008 0.276,0.022l1.154,2.134l1.115,-2.134c0.08,-0.014 0.165,-0.022 0.255,-0.022c0.085,0 0.172,0.008 0.261,0.022l-1.408,2.599l0,1.482c-0.084,0.014 -0.167,0.022 -0.246,0.022c-0.09,0 -0.173,-0.008 -0.247,-0.022l0,-1.482Z" style="fill:#6c2a7e;fill-rule:nonzero;"/>
        </g>
        <g id="logo1" serif:id="logo">
            <path d="M2.789,7.206l0.196,-0.196l0,-4.35l8.285,0l0.196,-0.196l0,-2.246l-0.196,-0.196l-8.481,0l-2.584,0l-0.196,0.196l0,6.792l0.196,0.196l2.584,0Z" style="fill:#6c2a7e;fill-rule:nonzero;"/>
            <path d="M5.193,7.184l0,2.246l0.196,0.195l2.584,0l0.197,-0.195l0,-2.246l-0.197,-0.195l-2.584,0l-0.196,0.195Z" style="fill:#6c2a7e;fill-rule:nonzero;"/>
            <path d="M2.985,13.958l0,-4.353l-0.196,-0.196l-2.584,0l-0.197,0.196l0,6.794l0.197,0.198l11.882,0l0.196,-0.198l0,-2.246l-0.196,-0.195l-9.102,0Z" style="fill:#6c2a7e;fill-rule:nonzero;"/>
            <path d="M85.503,0.016l-11.882,0l-0.196,0.196l0,2.246l0.196,0.196l11.882,0l0.196,-0.196l0,-2.246l-0.196,-0.196Z" style="fill:#6c2a7e;fill-rule:nonzero;"/>
            <path d="M78.27,4.753l-0.196,0.195l0,11.451l0.196,0.197l2.585,0l0.195,-0.197l0,-11.451l-0.195,-0.195l-2.585,0Z" style="fill:#6c2a7e;fill-rule:nonzero;"/>
            <path d="M59.272,0.016l-0.195,0.196l0,16.188l0.195,0.196l2.585,0l0.195,-0.196l0,-13.746l6.323,0l0,5.523l-3.44,0l-0.195,0.196l0,2.247l0.195,0.196l6.22,0l0.196,-0.196l0,-10.402l0,-0.006l-0.196,-0.196l-11.883,0Z" style="fill:#6c2a7e;fill-rule:nonzero;"/>
            <path d="M46.987,7.206l0.196,-0.196l0,-4.35l8.284,0l0.197,-0.196l0,-2.246l-0.197,-0.196l-8.48,0l-2.584,0l-0.196,0.196l0,6.792l0.196,0.196l2.584,0Z" style="fill:#6c2a7e;fill-rule:nonzero;"/>
            <path d="M49.391,7.184l0,2.246l0.196,0.195l2.585,0l0.196,-0.195l0,-2.246l-0.196,-0.195l-2.585,0l-0.196,0.195Z" style="fill:#6c2a7e;fill-rule:nonzero;"/>
            <path d="M47.184,13.958l0,-4.353l-0.196,-0.196l-2.584,0l-0.197,0.196l0,6.794l0.197,0.198l11.883,0l0.195,-0.198l0,-2.246l-0.195,-0.195l-9.103,0Z" style="fill:#6c2a7e;fill-rule:nonzero;"/>
            <path d="M33.117,7.206l0.196,-0.196l0,-4.35l7.379,0l0.196,-0.196l0,-2.246l-0.196,-0.196l-7.575,0l-2.584,0l-0.196,0.196l0,6.792l0.196,0.196l2.584,0Z" style="fill:#6c2a7e;fill-rule:nonzero;"/>
            <path d="M33.313,13.958l0,-4.353l-0.196,-0.196l-2.584,0l-0.197,0.196l0,6.794l0.197,0.198l10.976,0l0.197,-0.198l0,-2.246l-0.197,-0.195l-8.196,0Z" style="fill:#6c2a7e;fill-rule:nonzero;"/>
            <path d="M16.77,7.204l0.278,0l1.706,-1.707l0,-0.277l-1.318,-1.317l0,-3.666l-0.196,-0.196l-2.584,0l-0.197,0.196l0,4.574l0.057,0.139l2.254,2.254Z" style="fill:#6c2a7e;fill-rule:nonzero;"/>
            <path d="M24.655,9.41l-0.277,0l-1.706,1.706l0,0.277l1.514,1.515l0,3.491l0.197,0.197l2.584,0l0.196,-0.197l0,-4.4l-0.058,-0.139l-2.45,-2.45Z" style="fill:#6c2a7e;fill-rule:nonzero;"/>
            <path d="M24.383,0.022l-0.196,0.195l0,2.645l-9.671,9.67l0.041,0.041l-0.098,0.097l0,3.729l0.195,0.197l2.585,0l0.197,-0.197l0,-2.818l9.67,-9.67l0.057,-0.14l0,-3.554l-0.196,-0.195l-2.584,0Z" style="fill:#6c2a7e;fill-rule:nonzero;"/>
        </g>
    </g>
</svg>
