<?xml version="1.0" encoding="UTF-8" standalone="no"?><!DOCTYPE svg PUBLIC "-//W3C//DTD SVG 1.1//EN" "http://www.w3.org/Graphics/SVG/1.1/DTD/svg11.dtd"><svg width="100%" height="100%" viewBox="0 0 389 171" version="1.1" xmlns="http://www.w3.org/2000/svg" xmlns:xlink="http://www.w3.org/1999/xlink" xml:space="preserve" xmlns:serif="http://www.serif.com/" style="fill-rule:evenodd;clip-rule:evenodd;stroke-linecap:round;stroke-miterlimit:10;"><g id="services-graphic"><path d="M339.442,27.931c-0.233,0.141 -0.47,0.307 -0.68,0.49c0.053,0.156 0.108,0.309 0.186,0.455c0.289,0 0.577,-0.037 0.851,-0.093c0.09,0.14 0.195,0.275 0.315,0.392c0.114,0.125 0.246,0.235 0.385,0.332c-0.081,0.266 -0.147,0.541 -0.182,0.819c0.142,0.085 0.289,0.15 0.438,0.212c0.21,-0.193 0.41,-0.41 0.574,-0.63c0.163,0.043 0.33,0.076 0.496,0.093c0.166,0.016 0.338,0.02 0.506,0.004c0.105,0.262 0.23,0.506 0.377,0.748c0.159,-0.019 0.31,-0.064 0.467,-0.105c0.042,-0.285 0.056,-0.576 0.051,-0.852c0.156,-0.072 0.308,-0.142 0.45,-0.234c0.14,-0.092 0.278,-0.192 0.399,-0.307c0.243,0.139 0.497,0.26 0.76,0.358c0.11,-0.116 0.207,-0.244 0.303,-0.375c-0.138,-0.252 -0.312,-0.491 -0.488,-0.703c0.083,-0.149 0.152,-0.303 0.206,-0.461c0.054,-0.164 0.094,-0.329 0.117,-0.495c0.28,-0.046 0.539,-0.119 0.809,-0.211c0.018,-0.164 0,-0.33 -0.008,-0.492c-0.28,-0.101 -0.549,-0.175 -0.831,-0.216c-0.031,-0.167 -0.088,-0.327 -0.148,-0.485c-0.071,-0.154 -0.147,-0.307 -0.244,-0.445c0.173,-0.221 0.322,-0.449 0.458,-0.703c-0.099,-0.129 -0.214,-0.244 -0.335,-0.354c-0.28,0.11 -0.523,0.235 -0.76,0.391c-0.139,-0.098 -0.284,-0.184 -0.435,-0.26c-0.152,-0.072 -0.31,-0.129 -0.476,-0.176c-0.012,-0.271 -0.049,-0.551 -0.107,-0.83c-0.161,-0.019 -0.318,-0.049 -0.48,-0.049c-0.138,0.254 -0.246,0.518 -0.328,0.789c-0.169,0.006 -0.338,0.034 -0.5,0.073c-0.164,0.039 -0.323,0.095 -0.482,0.156c-0.177,-0.205 -0.38,-0.399 -0.596,-0.584c-0.138,0.082 -0.28,0.16 -0.407,0.254c0.054,0.289 0.122,0.56 0.228,0.824c-0.131,0.109 -0.244,0.238 -0.35,0.367c-0.104,0.131 -0.197,0.276 -0.28,0.424c-0.27,-0.055 -0.549,-0.078 -0.833,-0.084c-0.06,0.152 -0.121,0.303 -0.161,0.457c0.22,0.192 0.453,0.358 0.698,0.498c-0.029,0.168 -0.038,0.338 -0.031,0.506c0.005,0.168 0.028,0.338 0.068,0.502" style="fill:#51c7ea;fill-rule:nonzero;"/><path d="M345.985,18.074l0.005,0.004c-0.106,0.098 -0.214,0.189 -0.304,0.303c-0.325,-0.118 -0.669,-0.203 -1.019,-0.254c-0.151,0.199 -0.275,0.414 -0.392,0.633c0.197,0.318 0.409,0.603 0.66,0.861c-0.052,0.148 -0.094,0.299 -0.126,0.451l-0.01,-0.004c-0.041,0.151 -0.056,0.311 -0.08,0.465c-0.329,0.096 -0.651,0.23 -0.974,0.393c0.006,0.252 0.016,0.498 0.061,0.748c0.337,0.142 0.693,0.244 1.039,0.308c0.04,0.151 0.106,0.291 0.161,0.438l-0.01,0.006c0.069,0.138 0.13,0.283 0.21,0.416c-0.204,0.269 -0.401,0.574 -0.557,0.89c0.148,0.205 0.312,0.393 0.485,0.571c0.361,-0.086 0.707,-0.208 1.025,-0.358c0.131,0.086 0.25,0.184 0.392,0.256l-0.005,0.006c0.13,0.086 0.272,0.156 0.416,0.217c-0.012,0.351 0.015,0.695 0.069,1.048c0.234,0.077 0.479,0.143 0.728,0.174c0.244,-0.279 0.447,-0.578 0.616,-0.89c0.157,0.009 0.315,-0.01 0.468,-0.02l0,0.014c0.157,-0.02 0.312,-0.041 0.466,-0.071c0.194,0.278 0.425,0.553 0.674,0.801c0.239,-0.076 0.466,-0.166 0.689,-0.281c0.034,-0.365 0.019,-0.738 -0.025,-1.082c0.129,-0.092 0.25,-0.189 0.368,-0.295l-0.005,-0.002c0.106,-0.098 0.212,-0.189 0.305,-0.301c0.323,0.118 0.667,0.203 1.019,0.252c0.15,-0.199 0.276,-0.416 0.392,-0.633c-0.199,-0.322 -0.409,-0.605 -0.66,-0.865c0.056,-0.142 0.093,-0.297 0.128,-0.447l0.01,0c0.04,-0.15 0.055,-0.305 0.08,-0.459c0.327,-0.098 0.65,-0.23 0.973,-0.397c-0.006,-0.248 -0.019,-0.5 -0.059,-0.746c-0.336,-0.142 -0.693,-0.246 -1.037,-0.308c-0.042,-0.153 -0.109,-0.295 -0.163,-0.44l0.008,-0.004c-0.066,-0.14 -0.129,-0.283 -0.208,-0.418c0.204,-0.269 0.4,-0.574 0.554,-0.888c-0.143,-0.205 -0.307,-0.393 -0.484,-0.571c-0.361,0.083 -0.704,0.208 -1.023,0.358c-0.13,-0.09 -0.251,-0.186 -0.389,-0.256l0.004,-0.01c-0.133,-0.082 -0.271,-0.154 -0.415,-0.218c0.006,-0.346 -0.02,-0.688 -0.078,-1.047c-0.234,-0.078 -0.475,-0.139 -0.724,-0.174c-0.242,0.279 -0.449,0.578 -0.616,0.892c-0.158,-0.009 -0.316,0.006 -0.469,0.02l0.003,-0.012c-0.157,0.016 -0.316,0.037 -0.468,0.067c-0.194,-0.276 -0.427,-0.551 -0.676,-0.801c-0.237,0.08 -0.466,0.168 -0.687,0.281c-0.033,0.367 -0.018,0.74 0.024,1.084c-0.13,0.094 -0.253,0.193 -0.369,0.295" style="fill:#51c7ea;fill-rule:nonzero;"/><path d="M333.398,18.453c-0.268,0.244 -0.525,0.504 -0.769,0.785c0.236,0.457 0.518,0.895 0.862,1.274c0.352,-0.12 0.686,-0.252 1.012,-0.418c0.153,0.14 0.299,0.293 0.467,0.408c0.162,0.131 0.332,0.248 0.511,0.353c-0.077,0.356 -0.133,0.721 -0.16,1.086c0.45,0.242 0.942,0.403 1.44,0.528c0.215,-0.303 0.407,-0.621 0.576,-0.942c0.202,0.043 0.411,0.045 0.617,0.063c0.206,0.006 0.416,-0.002 0.62,-0.018c0.146,0.33 0.319,0.654 0.511,0.973c0.507,-0.082 1,-0.221 1.47,-0.424c-0.003,-0.371 -0.031,-0.738 -0.081,-1.098c0.182,-0.095 0.361,-0.199 0.534,-0.314c0.165,-0.123 0.34,-0.236 0.491,-0.377c0.31,0.178 0.643,0.346 0.985,0.49c0.354,-0.371 0.689,-0.769 0.944,-1.215c-0.221,-0.293 -0.459,-0.574 -0.717,-0.834c0.097,-0.183 0.178,-0.373 0.248,-0.566c0.079,-0.193 0.123,-0.399 0.179,-0.596c0.364,-0.035 0.718,-0.099 1.082,-0.181c0.089,-0.51 0.098,-1.028 0.054,-1.541c-0.355,-0.108 -0.713,-0.194 -1.071,-0.256c-0.026,-0.205 -0.086,-0.403 -0.13,-0.604c-0.068,-0.195 -0.127,-0.394 -0.207,-0.58c0.265,-0.244 0.525,-0.506 0.768,-0.785c-0.236,-0.457 -0.519,-0.893 -0.862,-1.274c-0.354,0.118 -0.686,0.252 -1.014,0.417c-0.156,-0.137 -0.297,-0.286 -0.467,-0.407c-0.161,-0.131 -0.331,-0.244 -0.509,-0.351c0.078,-0.358 0.132,-0.721 0.163,-1.088c-0.452,-0.24 -0.944,-0.404 -1.443,-0.529c-0.215,0.304 -0.41,0.623 -0.575,0.943c-0.207,-0.045 -0.412,-0.045 -0.619,-0.063c-0.208,-0.004 -0.411,0.002 -0.621,0.018c-0.145,-0.328 -0.316,-0.652 -0.509,-0.973c-0.505,0.082 -1,0.221 -1.473,0.422c0.006,0.375 0.037,0.744 0.087,1.096c-0.186,0.098 -0.365,0.203 -0.536,0.316c-0.165,0.125 -0.339,0.239 -0.49,0.381c-0.312,-0.178 -0.645,-0.349 -0.987,-0.49c-0.359,0.369 -0.686,0.766 -0.943,1.213c0.219,0.293 0.459,0.572 0.716,0.836c-0.095,0.181 -0.18,0.373 -0.247,0.566c-0.08,0.192 -0.122,0.397 -0.178,0.594c-0.363,0.037 -0.718,0.098 -1.083,0.183c-0.087,0.506 -0.095,1.026 -0.051,1.541c0.355,0.108 0.712,0.192 1.066,0.256c0.029,0.203 0.088,0.403 0.133,0.604c0.062,0.191 0.123,0.39 0.206,0.578" style="fill:#51c7ea;fill-rule:nonzero;"/><path d="M243.045,122.086c4.433,-0.072 7.115,-0.578 7.115,-1.105c0,-2.577 -1.752,-2.688 -3.697,-3.325c-1.199,-0.39 -2.686,-0.611 -2.365,-2.677c0.789,-0.721 1.064,-2.209 1.064,-2.209c0,0 1.051,-0.53 1.173,-1.545c0.088,-0.774 -0.316,-1.133 -0.316,-1.133l0,-0.983c0,-2.185 -1.872,-3.908 -4.124,-3.908c-2.254,0 -4.127,1.723 -4.127,3.908l0,0.983c0,0 -0.404,0.359 -0.315,1.133c0.12,1.015 1.172,1.545 1.172,1.545c0,0 0.277,1.488 1.066,2.209c0.317,2.064 -1.167,2.287 -2.367,2.677c-1.947,0.637 -3.697,0.748 -3.697,3.325c-0.005,0.525 2.677,1.033 7.109,1.107" style="fill:#51c7ea;fill-rule:nonzero;"/><path d="M229.269,145.988c4.431,-0.074 7.114,-0.582 7.114,-1.109c-0.006,-2.573 -1.756,-2.69 -3.702,-3.323c-1.199,-0.392 -2.684,-0.609 -2.366,-2.677c0.789,-0.723 2.461,-0.235 2.461,-0.235c0,0 -0.539,-4.709 -0.539,-5.633c0,-2.185 -1.872,-3.908 -4.125,-3.908c-2.254,0 -4.127,1.723 -4.127,3.908c0,0.926 -0.799,5.909 -0.799,5.909c0,0 1.933,-0.762 2.721,-0.041c0.318,2.066 -1.166,2.285 -2.367,2.677c-1.945,0.633 -3.696,0.75 -3.696,3.325c0,0.527 2.683,1.035 7.113,1.109" style="fill:#51c7ea;fill-rule:nonzero;"/><path d="M260.242,141.556c-1.198,-0.393 -2.685,-0.609 -2.366,-2.678c0.789,-0.722 1.066,-2.207 1.066,-2.207c0,0 1.049,-0.527 1.17,-1.547c0.09,-0.775 -0.312,-1.132 -0.312,-1.132l0,-0.981c0,-2.185 -1.873,-3.908 -4.127,-3.908c-2.252,0 -4.125,1.723 -4.125,3.908l0,0.981c0,0 -0.406,0.357 -0.315,1.132c0.12,1.016 1.172,1.547 1.172,1.547c0,0 0.275,1.487 1.065,2.207c0.318,2.067 -1.166,2.285 -2.367,2.678c-1.944,0.635 -3.695,0.75 -3.695,3.324c0,0.528 2.683,1.035 7.114,1.11l0.563,-3.614l-0.285,-0.455c-0.04,-0.064 -0.032,-0.144 0.019,-0.201l0.736,-0.797c0.065,-0.064 0.18,-0.064 0.244,0l0.737,0.797c0.051,0.057 0.059,0.137 0.018,0.201l-0.282,0.455l0.561,3.612c4.431,-0.073 7.115,-0.58 7.115,-1.108c-0.01,-2.574 -1.762,-2.691 -3.706,-3.324" style="fill:#51c7ea;fill-rule:nonzero;"/><path d="M248.457,137.627c0.315,0 0.629,-0.135 0.848,-0.396c0.389,-0.469 0.326,-1.165 -0.142,-1.553l-6.171,-5.135l0,-6.053c0,-0.607 -0.493,-1.099 -1.103,-1.099c-0.608,0 -1.102,0.492 -1.102,1.099l0,6.053l-6.171,5.135c-0.468,0.388 -0.531,1.084 -0.143,1.553c0.389,0.466 1.086,0.531 1.552,0.14l5.864,-4.879l5.863,4.879c0.205,0.172 0.455,0.256 0.705,0.256" style="fill:#fff;fill-rule:nonzero;"/><path d="M365.244,128.834c-0.319,-0.318 -0.835,-0.318 -1.152,0l-0.646,0.645c-0.318,0.318 -0.318,0.834 0,1.152c0.16,0.158 0.366,0.238 0.575,0.238c0.209,0 0.418,-0.08 0.577,-0.238l0.646,-0.645c0.316,-0.318 0.316,-0.834 0,-1.152" style="fill:#51c7ea;fill-rule:nonzero;"/><path d="M331.453,120.551l4.175,5.494c-0.319,0.434 -0.506,0.967 -0.506,1.545c0,1.441 1.175,2.615 2.616,2.615c1.441,0 2.617,-1.174 2.617,-2.615c0,-0.584 -0.195,-1.125 -0.521,-1.562l4.326,-7.11c0.245,0.074 0.502,0.113 0.768,0.113c0.125,0 0.245,-0.009 0.365,-0.025l5.216,9.682l-3.202,7.984c-0.098,-0.012 -0.197,-0.017 -0.299,-0.017c-0.982,0 -1.838,0.542 -2.285,1.345l-4.297,-1.084c-0.156,-1.293 -1.26,-2.301 -2.595,-2.301c-1.443,0 -2.616,1.172 -2.616,2.616c0,0.449 0.113,0.869 0.312,1.238l-4.074,4.533l0,-22.451Zm33.911,23.613l-32.907,0l4.152,-4.619c0.365,0.192 0.782,0.301 1.222,0.301c1.015,0 1.895,-0.58 2.329,-1.426l4.242,1.072c0.114,1.338 1.238,2.395 2.606,2.395c1.443,0 2.615,-1.174 2.615,-2.617c0,-0.795 -0.356,-1.508 -0.917,-1.989l3.089,-7.658l2.834,5.672c-0.589,0.481 -0.965,1.213 -0.965,2.029c0,1.442 1.173,2.616 2.614,2.616c1.444,0 2.615,-1.174 2.615,-2.616c0,-0.294 -0.047,-0.578 -0.139,-0.843l3.024,-3.022c0.296,-0.297 0.296,-0.781 0,-1.078c-0.298,-0.297 -0.78,-0.297 -1.078,0l-2.851,2.854c-0.438,-0.332 -0.981,-0.528 -1.571,-0.528c-0.081,0 -0.159,0.006 -0.238,0.012l-3.544,-6.732l3.558,-8.268c0.074,0.006 0.149,0.01 0.224,0.01c1.213,0 2.233,-0.826 2.529,-1.946l6.368,-2.941c0.42,0 0.761,-0.342 0.761,-0.764c0,-0.418 -0.341,-0.759 -0.761,-0.759l-6.424,2.941c-0.356,-1.025 -1.328,-1.764 -2.473,-1.764c-1.442,0 -2.614,1.176 -2.614,2.617c0,0.823 0.381,1.557 0.977,2.038l-3.081,7.433l-4.886,-8.222c0.535,-0.481 0.87,-1.172 0.87,-1.946c0,-1.443 -1.173,-2.615 -2.616,-2.615c-1.443,0 -2.615,1.172 -2.615,2.615c0,0.623 0.22,1.197 0.585,1.647l-4.29,7.06c-0.272,-0.095 -0.565,-0.148 -0.87,-0.148c-0.314,0 -0.613,0.055 -0.891,0.156l-5.394,-7.098l0,-7.779c0,-0.422 -0.341,-0.762 -0.761,-0.762c-0.42,0 -0.76,0.34 -0.76,0.762l0,7.488l-1.28,0c-0.42,0 -0.762,0.34 -0.762,0.762c0,0.422 0.342,0.762 0.762,0.762l1.28,0l0,7.656l-1.28,0c-0.42,0 -0.762,0.34 -0.762,0.762c0,0.42 0.342,0.762 0.762,0.762l1.28,0l0,7.839l-1.28,0c-0.42,0 -0.762,0.342 -0.762,0.76c0,0.422 0.342,0.762 0.762,0.762l1.28,0l0,7.119c0,0.422 0.34,0.762 0.76,0.762l6.563,0l0,1c0,0.42 0.34,0.761 0.76,0.761c0.42,0 0.762,-0.341 0.762,-0.761l0,-1l7.654,0l0,1c0,0.42 0.342,0.761 0.762,0.761c0.422,0 0.762,-0.341 0.762,-0.761l0,-1l7.839,0l0,1c0,0.42 0.344,0.761 0.763,0.761c0.421,0 0.762,-0.341 0.762,-0.761l0,-1l8.045,0c0.42,0 0.762,-0.34 0.762,-0.762c0,-0.42 -0.341,-0.762 -0.762,-0.762" style="fill:#51c7ea;fill-rule:nonzero;"/><path d="M366.248,115.734c0,4.338 -3.516,7.852 -7.851,7.852c-4.336,0 -7.851,-3.514 -7.851,-7.852c0,-4.334 3.515,-7.85 7.851,-7.85c4.335,0 7.851,3.516 7.851,7.85" style="fill:#51c7ea;fill-rule:nonzero;"/><path d="M360.382,120.502c-0.366,0.053 -0.76,0.078 -1.182,0.078c-0.591,0 -1.109,-0.072 -1.553,-0.219c-0.443,-0.146 -0.826,-0.351 -1.142,-0.617c-0.315,-0.271 -0.577,-0.597 -0.779,-0.98c-0.206,-0.383 -0.354,-0.815 -0.448,-1.287l-1.191,0c-0.046,-0.133 -0.066,-0.313 -0.066,-0.541c0,-0.233 0.02,-0.418 0.066,-0.571l1.043,0c-0.009,-0.088 -0.015,-0.177 -0.015,-0.269l0,-0.283l0,-0.26c0,-0.084 0.006,-0.17 0.015,-0.256l-1.043,0c-0.046,-0.133 -0.066,-0.313 -0.066,-0.545c0,-0.227 0.02,-0.416 0.066,-0.566l1.177,0c0.103,-0.485 0.257,-0.928 0.462,-1.334c0.202,-0.405 0.465,-0.748 0.785,-1.032c0.321,-0.281 0.7,-0.502 1.136,-0.658c0.435,-0.16 0.942,-0.238 1.512,-0.238c0.425,0 0.816,0.023 1.169,0.076c0.361,0.053 0.742,0.166 1.158,0.332c-0.019,0.262 -0.073,0.522 -0.16,0.775c-0.088,0.252 -0.183,0.502 -0.289,0.758c-0.31,-0.105 -0.584,-0.179 -0.821,-0.224c-0.236,-0.043 -0.518,-0.069 -0.844,-0.069c-0.597,0 -1.053,0.137 -1.367,0.405c-0.312,0.267 -0.531,0.671 -0.655,1.209l2.734,0c0.018,0.062 0.033,0.138 0.042,0.232c0.006,0.092 0.014,0.184 0.014,0.285c0,0.111 -0.008,0.221 -0.014,0.326c-0.009,0.11 -0.024,0.198 -0.042,0.268l-2.879,0l0,0.797c0,0.094 0.006,0.183 0.013,0.271l2.868,0c0.017,0.061 0.031,0.139 0.04,0.231c0.008,0.092 0.014,0.187 0.014,0.285c0,0.113 -0.006,0.225 -0.014,0.33c-0.009,0.103 -0.023,0.193 -0.04,0.266l-2.723,0c0.132,0.5 0.359,0.865 0.682,1.093c0.318,0.229 0.799,0.344 1.435,0.344c0.323,0 0.609,-0.021 0.856,-0.066c0.247,-0.041 0.525,-0.119 0.833,-0.223c0.114,0.246 0.21,0.5 0.284,0.76c0.075,0.26 0.128,0.521 0.165,0.787c-0.46,0.166 -0.869,0.277 -1.236,0.33" style="fill:#fff;fill-rule:nonzero;"/><path d="M343.823,44.801c-0.32,0.32 -0.579,0.945 -0.579,1.398l0,5.883l3.416,0l0,-9.299c0,-0.453 -0.259,-0.56 -0.578,-0.242l-2.259,2.26Z" style="fill:#51c7ea;fill-rule:nonzero;"/><path d="M358.828,39.226c-0.318,0.32 -0.579,0.943 -0.579,1.396l0,11.461l3.417,0l0,-14.88c0,-0.452 -0.258,-0.559 -0.578,-0.239l-2.26,2.262Z" style="fill:#51c7ea;fill-rule:nonzero;"/><path d="M363.829,34.217c-0.319,0.32 -0.579,0.945 -0.579,1.396l0,16.469l3.176,0l0,-19.638c0,-0.454 -0.258,-0.561 -0.579,-0.241l-2.018,2.014Z" style="fill:#51c7ea;fill-rule:nonzero;"/><path d="M353.927,44.127c0,0 -0.152,0.152 -0.342,0.34c-0.186,0.189 -0.338,0.707 -0.338,1.16l0,6.455l3.417,0l0,-9.871c0,-0.451 -0.261,-0.561 -0.581,-0.24l-2.156,2.156Z" style="fill:#51c7ea;fill-rule:nonzero;"/><path d="M348.825,42.39c-0.32,-0.32 -0.579,-0.213 -0.579,0.238l0,9.453l3.416,0l0,-6.043c0,-0.453 -0.245,-1.062 -0.55,-1.365l-0.549,-0.547l-1.738,-1.736Z" style="fill:#51c7ea;fill-rule:nonzero;"/><path d="M339.522,49.103l-1.102,1.104c-0.319,0.32 -0.579,0.871 -0.579,1.228l0,0.648l3.814,0l0,-4.298c0,-0.453 -0.259,-0.561 -0.578,-0.239l-1.555,1.557Z" style="fill:#51c7ea;fill-rule:nonzero;"/><path d="M335.655,48.248l12.151,-12.424l4.21,3.908c0.321,0.321 0.838,0.321 1.16,0l12.531,-12.453l3.185,3.201c0.32,0.321 0.579,0.215 0.579,-0.24l1.8,-11.976l-11.966,1.492c-0.453,0 -0.56,0.26 -0.241,0.58l3.327,3.724l-1.685,1.682l-7.823,7.83l-4.575,-4.455c-0.32,-0.32 -0.838,-0.318 -1.158,0l-15.177,15.371l3.682,3.76Z" style="fill:#fff;fill-rule:nonzero;"/><ellipse cx="257.657" cy="21.484" rx="6.946" ry="7.058" style="fill:#51c7ea;"/><path d="M257.657,29.082c-1.062,0 -2.073,-0.227 -2.986,-0.629l0,3.147c0,0.281 0.187,0.64 0.414,0.796l2.155,0.825c0.229,0.16 0.606,0.166 0.838,0.013l2.139,-0.695c0.23,-0.152 0.423,-0.504 0.423,-0.787l0,-3.297c-0.915,0.4 -1.923,0.627 -2.983,0.627" style="fill:#51c7ea;fill-rule:nonzero;"/><path d="M255.158,26.527l-2.157,-5.617c0,0 0.733,-1.922 2.201,-2.002c1.951,-0.106 2.217,3.295 0.699,3.31c-1.74,0.016 -1.274,-2.701 1.668,-2.552c3.129,-0.2 3.691,2.531 1.88,2.552c-2.062,0.014 -0.771,-3.64 1.249,-3.548c1.598,0.072 1.727,2.146 1.727,2.146c0,0 -1.971,4.768 -2.218,5.957" style="fill:none;stroke:#fff;stroke-width:0.9px;"/><path d="M228.284,24.804l1.98,-1.98l1.982,1.98c0.147,0.148 0.343,0.223 0.537,0.223c0.196,0 0.391,-0.075 0.539,-0.223c0.298,-0.299 0.298,-0.779 0,-1.078l-1.979,-1.981l1.979,-1.98c0.298,-0.299 0.298,-0.781 0,-1.078c-0.296,-0.299 -0.779,-0.299 -1.076,0l-1.982,1.98l-1.98,-1.98c-0.297,-0.299 -0.782,-0.299 -1.077,0c-0.298,0.297 -0.298,0.779 0,1.078l1.978,1.98l-1.978,1.981c-0.298,0.299 -0.298,0.779 0,1.078c0.146,0.148 0.343,0.223 0.536,0.223c0.196,0 0.393,-0.075 0.541,-0.223" style="fill:#51c7ea;fill-rule:nonzero;"/><path d="M255.344,39.092c-0.486,-0.486 -1.273,-0.486 -1.761,0l-3.232,3.234l-3.235,-3.234c-0.486,-0.486 -1.274,-0.486 -1.759,0c-0.488,0.486 -0.488,1.273 0,1.76l3.233,3.234l-3.233,3.235c-0.488,0.486 -0.488,1.275 0,1.759c0.242,0.242 0.56,0.366 0.878,0.366c0.318,0 0.637,-0.124 0.88,-0.366l3.236,-3.234l3.232,3.234c0.244,0.242 0.563,0.366 0.882,0.366c0.317,0 0.637,-0.124 0.878,-0.366c0.486,-0.484 0.486,-1.273 0,-1.759l-3.234,-3.235l3.234,-3.234c0.486,-0.487 0.486,-1.274 0.001,-1.76" style="fill:#51c7ea;fill-rule:nonzero;"/><ellipse cx="229.77" cy="47.365" rx="3.203" ry="3.203" style="fill:#51c7ea;"/><g transform="matrix(1,0,0,1,-100.62,-665.82)"><text x="110.436px" y="732.188px" style="font-family:'Aller-Bold', 'Aller';font-weight:700;font-size:9.511px;fill:#fff;">VISIONS &amp;</text><text x="110.327px" y="742.65px" style="font-family:'Aller-Bold', 'Aller';font-weight:700;font-size:9.511px;fill:#fff;">STRAT<tspan x="138.203px " y="742.65px ">E</tspan>GY</text></g><g transform="matrix(1,0,0,1,-104.22,-665.82)"><text x="212.8px" y="732.188px" style="font-family:'Aller-Bold', 'Aller';font-weight:700;font-size:9.511px;fill:#fff;">CO<tspan x="225.582px " y="732.188px ">N</tspan>CEPTS &amp;</text><text x="224.403px" y="742.65px" style="font-family:'Aller-Bold', 'Aller';font-weight:700;font-size:9.511px;fill:#fff;">DESIGN</text></g><g transform="matrix(1,0,0,1,-100.62,-665.82)"><text x="308.746px" y="825.81px" style="font-family:'Aller-Bold', 'Aller';font-weight:700;font-size:9.511px;fill:#fff;">STA<tspan x="325.418px " y="825.81px ">K</tspan>EHOLDERS</text><text x="312.674px" y="836.272px" style="font-family:'Aller-Bold', 'Aller';font-weight:700;font-size:9.511px;fill:#fff;">&amp; LEADERSHIP</text></g><g transform="matrix(1,0,0,1,-113.762,-665.82)"><text x="440.406px" y="825.81px" style="font-family:'Aller-Bold', 'Aller';font-weight:700;font-size:9.511px;fill:#fff;">RESILIENT</text><text x="421.746px" y="835.321px" style="font-family:'Aller-Bold', 'Aller';font-weight:700;font-size:9.511px;fill:#fff;">BUSINESS<tspan x="463.707px " y="835.321px "> </tspan>MODELS</text></g><g transform="matrix(1,0,0,1,-104.22,-665.82)"><text x="419.257px" y="732.188px" style="font-family:'Aller-Bold', 'Aller';font-weight:700;font-size:9.511px;fill:#fff;">MANAG<tspan x="451.831px " y="732.188px ">E</tspan>MENT &amp;</text><text x="424.345px" y="742.65px" style="font-family:'Aller-Bold', 'Aller';font-weight:700;font-size:9.511px;fill:#fff;">DEVELO<tspan x="458.83px " y="742.65px ">P</tspan>MENT</text></g><g transform="matrix(1,0,0,1,-100.08,-665.82)"><text x="319.426px" y="732.188px" style="font-family:'Aller-Bold', 'Aller';font-weight:700;font-size:9.511px;fill:#fff;">TRANSITION</text><text x="321.832px" y="742.65px" style="font-family:'Aller-Bold', 'Aller';font-weight:700;font-size:9.511px;fill:#fff;">ROA<tspan x="340.596px " y="742.65px ">D</tspan>MAPS</text></g><ellipse cx="229.77" cy="47.365" rx="5.263" ry="5.264" style="fill:none;stroke:#51c7ea;stroke-width:1.36px;stroke-linecap:butt;"/><path d="M123.107,34.332l0,-9.275m-3.592,-12.538l0,36.27l35.475,0l0,-36.219" style="fill:#51c7ea;fill-rule:nonzero;"/><path d="M124.873,26.689c-0.008,-0.813 0.364,-1.891 0.912,-2.859c0.662,-1.174 1.518,-2.092 2.241,-2.444l-20.804,-12.615l-0.025,0.041c-0.231,-0.035 -1.532,-0.23 -2.849,1.877c-1.317,2.107 -0.527,3.121 -0.396,3.314l0.001,0c0.034,0.047 0.063,0.067 0.063,0.067l0.011,-0.02l20.846,12.639Z" style="fill:#fff;fill-rule:nonzero;"/><path d="M126.591,24.176c-0.754,1.361 -0.928,2.434 -0.842,2.939c0.025,0.155 0.407,0.278 0.469,0.264l0.003,0l6.296,0.104l-3.375,-5.387c-0.02,-0.162 -0.245,-0.328 -0.295,-0.316c-0.509,0.105 -1.472,0.982 -2.256,2.396" style="fill:#fff;fill-rule:nonzero;"/><path d="M26.417,26.234c1.276,-1.195 2.99,-1.928 4.872,-1.928c3.934,0 7.134,3.199 7.134,7.133c0,3.934 -3.2,7.135 -7.134,7.135c-3.934,0 -7.135,-3.201 -7.135,-7.135c0,-0.312 0.071,-1.758 0.645,-3c0.557,-1.201 1.618,-2.205 1.618,-2.205m23.032,4.387c-0.076,-0.096 -1.898,-2.381 -5.023,-4.676c-4.175,-3.068 -8.717,-4.69 -13.137,-4.69c-4.419,0 -8.963,1.622 -13.138,4.69c-3.124,2.295 -4.946,4.58 -5.023,4.676l-0.646,0.818l0.646,0.816c0.077,0.096 1.899,2.385 5.023,4.678c4.175,3.069 8.719,4.69 13.138,4.69c4.42,0 8.962,-1.621 13.137,-4.69c3.125,-2.293 4.947,-4.582 5.023,-4.678l0.646,-0.816l-0.646,-0.818Z" style="fill:#51c7ea;fill-rule:nonzero;"/><path d="M26.749,30.054c-0.134,0.438 -0.206,0.902 -0.206,1.385c0,2.621 2.124,4.746 4.746,4.746c2.621,0 4.746,-2.125 4.746,-4.746c0,-2.621 -2.125,-4.746 -4.746,-4.746c-1.278,0 -2.436,0.506 -3.288,1.324l2.341,2.639l-3.593,-0.602Z" style="fill:#51c7ea;fill-rule:nonzero;"/><path d="M49.488,16.537c0.394,0.496 0.768,1.008 1.122,1.535" style="fill:none;stroke:#fff;stroke-width:1.51px;stroke-linecap:butt;stroke-miterlimit:9;"/><path d="M52.403,21.261c1.389,2.996 2.163,6.334 2.163,9.854c0,12.955 -10.503,23.457 -23.458,23.457c-6.015,0 -11.5,-2.262 -15.652,-5.985" style="fill:none;stroke:#fff;stroke-width:1.51px;stroke-linecap:butt;stroke-miterlimit:9;stroke-dasharray:3.66,3.66;"/><path d="M14.14,47.312c-0.438,-0.457 -0.857,-0.934 -1.256,-1.426" style="fill:none;stroke:#fff;stroke-width:1.51px;stroke-linecap:butt;stroke-miterlimit:9;"/><path d="M12.883,45.886c-3.273,-4.031 -5.235,-9.174 -5.235,-14.771c0,-12.958 10.504,-23.459 23.46,-23.459c4.83,0 9.319,1.459 13.051,3.962" style="fill:none;stroke:#fff;stroke-width:1.51px;stroke-linecap:butt;"/><path d="M41.561,13.496l5.976,0.852l-2.25,-5.602l-3.726,4.75Z" style="fill:#fff;fill-rule:nonzero;"/><ellipse cx="137.59" cy="27.804" rx="8.085" ry="8.216" style="fill:none;stroke:#fff;stroke-width:0.87px;stroke-linecap:butt;stroke-dasharray:2.68,0.98;"/><path d="M134.114,35.914l0,1.299" style="fill:none;stroke:#fff;stroke-width:0.87px;stroke-linecap:butt;"/><path d="M134.114,38.052l0,1.521c0,0.331 0.218,0.749 0.483,0.932l2.509,0.957c0.265,0.186 0.706,0.192 0.974,0.016l2.49,-0.809c0.267,-0.176 0.491,-0.588 0.491,-0.912l0,-2.123" style="fill:none;stroke:#fff;stroke-width:0.87px;stroke-linecap:butt;stroke-dasharray:2.3,0.84;"/><path d="M141.061,37.217l0,-1.301" style="fill:none;stroke:#fff;stroke-width:0.87px;stroke-linecap:butt;"/><path d="M134.682,33.676l-2.51,-6.541c0,0 0.851,-2.234 2.559,-2.326c2.273,-0.127 2.581,3.832 0.817,3.849c-2.026,0.02 -1.485,-3.142 1.941,-2.972c3.64,-0.227 4.294,2.949 2.187,2.972c-2.399,0.018 -0.899,-4.234 1.453,-4.13c1.859,0.085 2.009,2.502 2.009,2.502c0,0 -2.292,5.546 -2.58,6.929" style="fill:none;stroke:#fff;stroke-width:0.87px;stroke-linecap:butt;"/><path d="M231.184,39.515c2.128,-8.348 7.166,-12.602 13.636,-14.678" style="fill:none;stroke:#fff;stroke-width:1.81px;stroke-linecap:butt;"/><path d="M244.687,28.664l5.195,-5.02l-6.945,-1.99l1.75,7.01Z" style="fill:#fff;fill-rule:nonzero;"/><path d="M79.133,32.787l8.912,0" style="fill:none;stroke:#231f20;stroke-width:1px;stroke-linecap:butt;"/><path d="M87.316,35.266l4.317,-2.493l-4.317,-2.493l0,4.986Z" style="fill:#231f20;fill-rule:nonzero;"/><path d="M185.633,32.787l8.912,0" style="fill:none;stroke:#231f20;stroke-width:1px;stroke-linecap:butt;"/><path d="M193.816,35.266l4.317,-2.493l-4.317,-2.493l0,4.986Z" style="fill:#231f20;fill-rule:nonzero;"/><path d="M292.633,32.787l8.912,0" style="fill:none;stroke:#231f20;stroke-width:1px;stroke-linecap:butt;"/><path d="M300.816,35.266l4.317,-2.493l-4.317,-2.493l0,4.986Z" style="fill:#231f20;fill-rule:nonzero;"/><path d="M242.883,86.035l0,8.914" style="fill:none;stroke:#231f20;stroke-width:1px;stroke-linecap:butt;"/><path d="M240.405,94.219l2.492,4.317l2.493,-4.317l-4.985,0Z" style="fill:#231f20;fill-rule:nonzero;"/><path d="M351.383,86.035l0,8.914" style="fill:none;stroke:#231f20;stroke-width:1px;stroke-linecap:butt;"/><path d="M348.905,94.219l2.492,4.317l2.493,-4.317l-4.985,0Z" style="fill:#231f20;fill-rule:nonzero;"/></g></svg>